<?xml version="1.0" standalone="no"?>
<!DOCTYPE svg PUBLIC "-//W3C//DTD SVG 20010904//EN"
 "http://www.w3.org/TR/2001/REC-SVG-20010904/DTD/svg10.dtd">
<svg version="1.0" xmlns="http://www.w3.org/2000/svg"
 width="1075.000000pt" height="1075.000000pt" viewBox="0 0 1075.000000 1075.000000"
 preserveAspectRatio="xMidYMid meet">
<metadata>
Created by potrace 1.14, written by Peter Selinger 2001-2017
</metadata>
<g transform="translate(0.000000,1075.000000) scale(0.100000,-0.100000)"
fill="#000000" stroke="none">
<path d="M1096 7073 c-1 -1 -24 -5 -51 -9 -122 -16 -269 -64 -381 -123 -66
-36 -97 -54 -104 -61 -3 -3 -23 -17 -45 -31 -72 -47 -191 -163 -251 -243 -25
-34 -50 -68 -57 -77 -68 -90 -151 -294 -183 -454 -18 -90 -24 -403 -10 -543
36 -361 262 -712 581 -904 77 -46 223 -114 265 -123 8 -1 35 -8 60 -15 25 -7
54 -14 65 -16 11 -2 31 -6 45 -9 14 -3 73 -8 132 -12 l106 -6 1 1317 0 1317
-85 -3 c-47 -2 -86 -4 -88 -5z"/>
<path d="M7898 7073 c-2 -5 -4 -595 -3 -1313 l0 -1305 555 -5 c305 -3 602 -3
659 0 l103 5 2 280 1 280 -65 22 c-244 81 -468 266 -587 483 -31 58 -82 179
-88 211 -2 11 -6 22 -8 27 -3 4 -8 24 -11 44 -3 21 -10 55 -14 75 -5 21 -8 94
-7 163 2 116 5 141 21 210 3 14 8 34 11 45 14 61 22 83 68 180 74 156 196 305
319 390 108 75 181 113 273 143 71 23 83 30 83 50 l0 22 -654 0 c-360 0 -656
-3 -658 -7z"/>
<path d="M2799 7055 c0 -11 -2 -33 -3 -48 -1 -16 2 -31 6 -33 5 -3 6 -9 3 -14
-6 -9 -7 -135 -3 -213 2 -26 1 -47 -2 -47 -5 0 -4 -75 2 -188 2 -28 1 -52 -2
-52 -4 0 -4 -52 0 -175 0 -11 0 -38 -1 -60 0 -22 0 -44 1 -50 1 -5 2 -13 1
-17 -2 -15 -3 -133 -1 -143 1 -5 2 -14 1 -18 -1 -4 -1 -47 -1 -95 0 -48 1 -98
0 -112 0 -14 1 -50 1 -80 0 -30 0 -61 0 -67 -1 -7 -1 -19 -2 -25 0 -7 1 -37 3
-66 2 -28 1 -52 -2 -52 -4 0 -4 -52 0 -175 0 -11 0 -38 -1 -60 0 -22 0 -44 1
-50 1 -5 2 -13 1 -17 -2 -15 -3 -133 -1 -143 1 -5 2 -14 1 -18 -3 -15 -2 -161
1 -210 2 -26 1 -47 -2 -47 -7 0 -3 -157 4 -176 3 -9 3 -21 -1 -27 -7 -11 -7
-116 0 -123 3 -3 1430 -6 2036 -4 l63 0 -28 38 c-15 20 -31 39 -34 42 -3 3
-21 25 -40 50 -19 25 -37 47 -41 50 -3 3 -22 26 -41 51 -19 26 -40 53 -46 60
-7 8 -39 48 -72 89 -33 41 -68 84 -77 95 -10 11 -31 38 -47 60 -17 22 -33 42
-36 45 -3 3 -39 48 -80 100 -41 52 -83 104 -93 115 -10 11 -37 45 -60 75 -23
30 -64 82 -92 115 -27 34 -61 76 -75 94 -14 19 -32 42 -40 51 -30 36 -46 56
-80 100 -19 24 -45 56 -56 70 -26 30 -110 135 -144 180 -14 18 -32 41 -40 50
-30 37 -46 56 -80 100 -19 24 -41 51 -48 58 -7 8 -25 30 -40 50 -15 21 -35 46
-45 57 -10 11 -37 45 -60 75 -23 30 -48 61 -55 68 -7 8 -25 30 -40 50 -15 21
-29 39 -32 42 -4 3 -36 43 -74 90 -37 47 -73 92 -79 100 -7 8 -77 96 -156 195
-178 223 -171 215 -172 190z"/>
<path d="M6371 7023 c-12 -27 -29 -59 -36 -73 -8 -14 -26 -50 -40 -80 -14 -30
-30 -62 -35 -70 -5 -8 -22 -42 -37 -75 -15 -33 -32 -63 -38 -67 -5 -4 -7 -8
-2 -8 4 0 0 -11 -8 -24 -9 -13 -45 -83 -80 -156 -35 -72 -68 -137 -73 -143 -4
-7 -17 -32 -27 -57 -10 -25 -27 -56 -36 -70 -9 -14 -17 -28 -18 -32 -1 -5 -31
-68 -68 -140 -36 -73 -76 -154 -89 -180 -13 -27 -24 -52 -24 -57 0 -5 -7 -14
-15 -21 -8 -7 -15 -20 -15 -29 0 -9 -6 -23 -12 -29 -7 -7 -13 -16 -14 -20 0
-6 -134 -274 -170 -342 -7 -14 -25 -50 -39 -80 -14 -30 -30 -62 -35 -70 -5 -8
-36 -69 -68 -135 -33 -66 -114 -230 -181 -364 -67 -134 -120 -245 -118 -247 5
-6 2609 -6 2614 0 4 4 -451 921 -467 941 -4 6 -9 17 -12 25 -2 8 -39 85 -83
170 -43 85 -79 157 -80 160 -1 3 -19 39 -40 80 -21 41 -39 77 -40 80 -1 3 -91
183 -200 400 -109 217 -199 397 -200 400 -4 18 -181 360 -186 360 -4 0 -16
-21 -28 -47z"/>
<path d="M9419 7006 c-2 -2 -24 -6 -49 -9 -61 -8 -131 -24 -182 -43 -68 -25
-228 -106 -228 -115 0 -5 -5 -9 -11 -9 -39 0 -236 -204 -284 -293 -11 -20 -23
-37 -27 -37 -5 0 -8 -5 -8 -11 0 -7 -10 -33 -21 -58 -31 -67 -47 -107 -55
-146 -1 -5 -7 -31 -13 -57 -9 -38 -22 -149 -24 -193 0 -33 15 -174 24 -214 51
-232 200 -454 399 -593 111 -78 263 -143 380 -162 14 -3 43 -8 65 -12 58 -9
192 -10 250 -1 28 4 64 10 82 12 62 9 196 57 271 97 276 146 470 413 518 713
22 138 3 353 -43 475 -50 132 -153 294 -237 370 -21 19 -51 46 -65 58 -93 84
-273 174 -406 203 -33 7 -67 14 -75 16 -22 5 -256 13 -261 9z"/>
<path d="M1367 5710 c-10 -4 -12 -144 -12 -630 l0 -625 75 -1 c42 -1 100 3
130 8 30 5 70 11 88 14 63 9 218 64 307 110 49 25 92 49 95 52 3 4 32 25 64
47 79 53 213 188 277 278 92 130 165 296 196 442 9 39 11 50 14 50 2 0 6 35
13 148 6 84 5 98 -9 103 -19 8 -1220 11 -1238 4z"/>
</g>
</svg>
