<svg xmlns="http://www.w3.org/2000/svg" width="301.099" height="204.831" viewBox="0 0 301.099 204.831">
  <g id="glap_logo" transform="translate(0.007)">
    <path id="パス_1" data-name="パス 1" d="M146.058,178.411H5.086c-.519,0-1.04.013-1.558-.014a3.683,3.683,0,0,1-3.511-3.364,15.122,15.122,0,0,1-.006-1.554,3.913,3.913,0,0,1,3.63-3.417c2.42.086,4.846.014,7.268.014q18.563,0,37.126,0a10.522,10.522,0,0,0,1.681-.086c.739-.119.9-.484.682-1.213-.61-2.02-1.188-4.051-1.816-6.065-.513-1.644-1.084-3.269-1.624-4.906-.108-.328-.193-.663-.295-.993q-.362-1.173-.73-2.343c-.013-.041-.035-.079-.047-.121-.524-1.821-1.029-3.647-1.579-5.458-.487-1.605-1.02-3.2-1.538-4.792-.053-.163-.154-.313-.2-.477q-.724-2.482-1.437-4.967c-.012-.042-.014-.086-.027-.127q-.851-2.644-1.7-5.286a7.752,7.752,0,0,1-.31-.987,18.433,18.433,0,0,0-.827-2.718c-.574-1.668-.983-3.392-1.5-5.082-.524-1.729-1.092-3.443-1.642-5.164-.039-.123-.116-.235-.152-.358q-.711-2.416-1.412-4.836c-.025-.083-.029-.171-.055-.253q-.814-2.519-1.634-5.036c-.027-.082-.075-.157-.1-.24q-.726-2.48-1.449-4.963c-.036-.124-.039-.258-.078-.381q-.812-2.523-1.628-5.043c-.132-.411-.256-.825-.387-1.236q-.372-1.169-.749-2.336A4.87,4.87,0,0,1,27.269,94a20.812,20.812,0,0,0-.962-3.216c-.6-1.705-1-3.477-1.5-5.217-.118-.414-.283-.814-.415-1.226q-.3-.922-.574-1.851c-.136-.454-.248-.916-.386-1.369-.236-.782-.484-1.561-.724-2.342-.026-.082-.03-.171-.056-.253q-.781-2.4-1.564-4.792c-.027-.082-.073-.158-.1-.241q-.779-2.669-1.554-5.336a7.2,7.2,0,0,0-.339-1.111,7.8,7.8,0,0,1-.754-2.468,1.3,1.3,0,0,0-.052-.254Q17.5,61.935,16.7,59.545c-.027-.082-.071-.158-.1-.241q-.736-2.544-1.468-5.091c-.036-.124-.045-.257-.086-.38q-.8-2.455-1.615-4.907a6.459,6.459,0,0,1-.251-.735,23.521,23.521,0,0,0-.932-3.092c-.593-1.7-.985-3.477-1.507-5.207-.5-1.647-1.053-3.278-1.586-4.915a5.157,5.157,0,0,1-.2-.477c-.293-1.353-.8-2.639-1.184-3.962-.633-2.2-1.3-4.381-2.033-6.545-.139-.408-.214-.836-.334-1.251-.167-.58-.348-1.154-.526-1.731s-.361-1.15-.532-1.73c-.061-.206-.071-.429-.138-.633C3.68,17.008,3.139,15.37,2.6,13.733c-.027-.082-.069-.16-.093-.241-.493-1.691-.983-3.39-1.48-5.086-.145-.5-.341-.979-.473-1.478A19.248,19.248,0,0,1,.071,4.794,4.621,4.621,0,0,1,4.338.017C4.943.043,5.55,0,6.156,0q41.02.008,82.039.021c16.829.013,33.66.077,50.489.1,10.081.016,20.164.051,30.245-.014,3.979-.026,7.958-.082,11.933.089,1.466.064,2.926.258,4.388.41,1.807.187,3.614.373,5.416.594,1.114.136,2.22.332,3.328.512,1.066.174,2.129.362,3.195.541.086.014.175,0,.258.025,2.381.608,4.824.952,7.177,1.678a2.835,2.835,0,0,0,.491.165,51.9,51.9,0,0,1,5.26,1.375c.462.1.909.279,1.36.424.657.211,1.315.421,1.969.639.491.163.98.332,1.464.514.283.105.545.274.835.354a43.977,43.977,0,0,1,5.437,2.078c2.021.871,4.062,1.695,6.083,2.565.792.341,1.563.733,2.325,1.137,2.363,1.253,4.74,2.48,7.066,3.8,2.138,1.211,4.241,2.487,6.312,3.809,1.636,1.044,3.225,2.167,4.788,3.317,2.12,1.561,4.229,3.142,6.28,4.792,1.682,1.353,3.3,2.787,4.9,4.246,1.786,1.634,3.544,3.3,5.254,5.016q3.982,4,7.576,8.353c1.318,1.6,2.625,3.214,3.853,4.881,1.3,1.77,2.518,3.606,3.752,5.427.919,1.356,1.842,2.712,2.7,4.11.922,1.507,1.772,3.058,2.639,4.6.571,1.013,1.135,2.03,1.671,3.061s1.045,2.077,1.545,3.128q.722,1.515,1.4,3.051c.662,1.5,1.322,2.992,1.955,4.5.6,1.428,1.209,2.856,1.741,4.309s.924,2.961,1.469,4.41c.563,1.5.943,3.042,1.4,4.567.273.908.522,1.817.768,2.732.492,1.834.911,3.679,1.332,5.528a37.317,37.317,0,0,1,.818,4.187c.084.769.306,1.524.441,2.289.195,1.1.393,2.21.54,3.32q.356,2.7.644,5.4c.158,1.5.365,3.011.376,4.518q.062,7.779-.021,15.559c-.018,1.5-.292,3.006-.461,4.508-.158,1.416-.365,2.828-.492,4.247a20.465,20.465,0,0,1-.7,4.342,1.343,1.343,0,0,0-.061.252c-.267,2.54-.954,5-1.458,7.493-.153.759-.38,1.5-.58,2.253a5.105,5.105,0,0,0-.175.488,36,36,0,0,1-1.246,4.619,16.328,16.328,0,0,1-.875,2.7,8.4,8.4,0,0,0-.353,1.242c-.152.494-.319.982-.489,1.469-.184.529-.379,1.054-.572,1.581s-.387,1.05-.587,1.573a5.878,5.878,0,0,0-.378.961,11.348,11.348,0,0,1-.976,2.526,3.314,3.314,0,0,1-3.057,2.017c-.56.043-1.124.025-1.686.025H146.057S146.058,178.413,146.058,178.411Zm27.548-8.328v0h24.145l83.6,0c.562,0,1.127.008,1.686-.03a1.67,1.67,0,0,0,1.668-1.363c.145-.585.365-1.15.558-1.723.221-.652.453-1.3.672-1.954.152-.45.293-.9.434-1.356.523-1.69,1.168-3.354,1.532-5.077.445-2.111,1.085-4.172,1.484-6.3.357-1.908.791-3.8,1.022-5.732.071-.6.243-1.187.327-1.784.193-1.367.4-2.734.53-4.107.145-1.5.179-3.02.328-4.526a68.787,68.787,0,0,0,.406-9.835c-.147-3.278-.415-6.553-.63-9.829-.057-.862-.093-1.727-.178-2.587a11.148,11.148,0,0,0-.289-1.787.663.663,0,0,0-1.206-.219,3.077,3.077,0,0,0-.334.692,9.844,9.844,0,0,1-.4.952,24.432,24.432,0,0,1-2.949,4.237,42.885,42.885,0,0,1-6.213,5.858,26.772,26.772,0,0,1-5.629,3.407,20.59,20.59,0,0,0-2.318,1.133,8.838,8.838,0,0,1-2.505,1.03,2.463,2.463,0,0,0-.478.2,40.606,40.606,0,0,1-5.424,1.681,1.658,1.658,0,0,1-.386.045,24.827,24.827,0,0,1-5.437.131,1.849,1.849,0,0,0-.388-.009A1.337,1.337,0,0,0,255.8,132.3q-.265.728-.546,1.45c-.547,1.4-1.1,2.8-1.641,4.2-.061.16-.064.341-.113.506a3.879,3.879,0,0,1-.3.853,6.668,6.668,0,0,0-.784,2.183,6.6,6.6,0,0,1-.331.98c-.544,1.5-1.1,2.989-1.63,4.491-.3.853-.571,1.718-.824,2.587a7,7,0,0,0-.244,1.267c-.071.731-.127,1.465-.138,2.2a6.6,6.6,0,0,1-.7,3.128,6.431,6.431,0,0,0-.389,1.232,10.311,10.311,0,0,1-.335,1.114c-.575,1.345-1.193,2.673-1.756,4.023a3.553,3.553,0,0,1-.879,1.257,9.616,9.616,0,0,1-3.757,1.932,7.645,7.645,0,0,1-2.307.307,1.3,1.3,0,0,1-1.349-1.97c.571-1.439,1.139-2.885,1.815-4.277a13.813,13.813,0,0,0,.955-2.114,4.593,4.593,0,0,1,.278-.584c.549-1.215,1.1-2.429,1.642-3.648q.549-1.239,1.066-2.494c.523-1.275,1.028-2.556,1.547-3.832.357-.878.722-1.752,1.087-2.626.248-.6.5-1.187.754-1.781.134-.318.264-.637.395-.956.228-.556.46-1.111.684-1.669.113-.28.21-.567.322-.847.256-.638.515-1.273.774-1.91l.343-.838q.366-.895.732-1.79c.164-.4.334-.792.5-1.19.179-.437.353-.877.528-1.316s.348-.879.522-1.319c.189-.48.382-.958.571-1.438.158-.4.315-.8.475-1.2.191-.479.387-.956.576-1.436s.374-.964.562-1.445c.173-.441.348-.882.522-1.321.206-.519.428-1.034.615-1.559a7.933,7.933,0,0,0,.3-1.1.374.374,0,0,0-.174-.307.386.386,0,0,0-.344.061c-.451.4-.889.821-1.32,1.246a54.158,54.158,0,0,1-8.407,7.07,13.437,13.437,0,0,1-3.391,1.55,10.959,10.959,0,0,1-4.623.432,6.623,6.623,0,0,1-2.242-.576,5.774,5.774,0,0,1-2.965-4.479,13.147,13.147,0,0,1,.457-5.9,14.127,14.127,0,0,0,.473-2.671,1.019,1.019,0,0,0-.266-.8c-.315-.25-.523.134-.732.331s-.419.437-.63.655c-1.947,2.022-3.859,4.077-5.849,6.055a27.357,27.357,0,0,1-8.263,5.688,3.1,3.1,0,0,1-.859.28c-2.282.275-4.576.6-6.652-.823a3.5,3.5,0,0,0-.353-.162,7.739,7.739,0,0,1-3.635-4.045,11.531,11.531,0,0,0-.778-1.631c-.251-.421-.584-.442-.976-.1-.685.594-1.368,1.193-2.013,1.83a39.551,39.551,0,0,1-5.956,4.758,8.912,8.912,0,0,1-2.827,1.251,15.371,15.371,0,0,1-5.417.21,6.554,6.554,0,0,1-3.21-1.275,6.019,6.019,0,0,1-2.5-4.217,17.141,17.141,0,0,1,.1-5.168c.352-1.9.94-3.761,1.451-5.631.182-.663.432-1.307.666-1.956.16-.445.338-.883.517-1.321.114-.279.256-.547.366-.827.315-.8.632-1.6.924-2.409a7.9,7.9,0,0,0,.393-1.364c.1-.586-.3-.881-.883-.7a1.3,1.3,0,0,0-.356.153,13.435,13.435,0,0,0-2.884,2.38,23.734,23.734,0,0,0-3.474,5.425c-.4.9-.735,1.857-1.2,2.7a41.818,41.818,0,0,0-1.664,4.475c-.659,1.577-.9,3.321-1.445,4.954a31.21,31.21,0,0,0-1.228,4.217,3.953,3.953,0,0,1-.2.479q-.822,2.517-1.633,5.038c-.013.04-.013.086-.025.127-.495,1.65-.985,3.3-1.49,4.945-.075.245-.253.46-.322.705a15.973,15.973,0,0,0-.488,2.007c-.113.795.238,1.207,1,1.133a14.173,14.173,0,0,0,3.061-.5,19.861,19.861,0,0,1,7.189-.7,2.519,2.519,0,0,1,1.1.341,1.647,1.647,0,0,1,.606,1.95c-.223.608-.578.747-1.5.586a2.105,2.105,0,0,1-.254-.053,5.161,5.161,0,0,0-2.821-.019,39.28,39.28,0,0,0-6.14,1.582,11.893,11.893,0,0,0-4.35,2.7,2.353,2.353,0,0,1-1.454.779,8.176,8.176,0,0,1-3.961-.428,2.482,2.482,0,0,1-1.524-3.346c.125-.412.187-.843.3-1.26q.687-2.558,1.392-5.112c.057-.206.19-.392.248-.6q.779-2.735,1.543-5.473c.012-.042.009-.087.019-.128.493-2.009.983-4.019,1.484-6.025.062-.249.214-.476.277-.726a21.478,21.478,0,0,0,.48-2.145,3.181,3.181,0,0,0-.126-1.14.367.367,0,0,0-.618-.178c-.37.3-.73.611-1.068.943-2.653,2.59-5.29,5.2-7.954,7.777-2.547,2.467-5.318,4.675-8.067,6.908-1.271,1.034-2.586,2.015-3.914,2.974q-1.832,1.325-3.739,2.546c-1.3.836-2.643,1.618-3.975,2.409-.667.4-1.345.774-2.035,1.127-1.149.587-2.282,1.222-3.476,1.7-1.276.514-2.53,1.082-3.853,1.5a20.085,20.085,0,0,1-2.977.851,6.316,6.316,0,0,0-1.251.332,12.054,12.054,0,0,1-3.427.665c-.648.048-1.3.051-1.942.128a44.363,44.363,0,0,1-10.612-.271,14.439,14.439,0,0,1-2-.5c-.543-.145-1.08-.306-1.62-.46a5.727,5.727,0,0,1-1.238-.364c-1.172-.654-2.465-1.01-3.665-1.621a26,26,0,0,1-5.918-4.138,24.418,24.418,0,0,1-6.927-10.895c-.088-.287-.252-.55-.358-.833a7.84,7.84,0,0,1-.363-1.1c-.3-1.437-.6-2.874-.852-4.32A14.249,14.249,0,0,1,83.5,128.4c-.035-2.072-.035-4.146-.026-6.22a22.68,22.68,0,0,1,.541-5.017,23.5,23.5,0,0,0,.387-2.563,13.865,13.865,0,0,1,.728-3.413c.169-.44.206-.927.339-1.382.483-1.655.963-3.31,1.479-4.954.244-.779.545-1.545.859-2.3.264-.635.585-1.248.876-1.873.526-1.131,1.016-2.28,1.582-3.391.506-1,1.075-1.963,1.649-2.923.906-1.515,1.78-3.055,2.781-4.505,1.2-1.738,2.5-3.409,3.791-5.082a69.911,69.911,0,0,1,5.113-5.85,75.1,75.1,0,0,1,6.724-6.073,84.3,84.3,0,0,1,7.778-5.578c.654-.418,1.319-.821,2-1.194.981-.539,1.981-1.049,2.974-1.568a25.885,25.885,0,0,1,3.976-1.866,8.885,8.885,0,0,0,.928-.454c.352-.162.709-.313,1.068-.458.6-.244,1.2-.485,1.8-.716.362-.139.727-.278,1.1-.383a33.924,33.924,0,0,1,4.834-1.425.472.472,0,0,0,.122-.043c2.122-.921,4.469-.945,6.648-1.663a9.423,9.423,0,0,1,1.929-.224c.731-.078,1.471-.109,2.191-.245a42.118,42.118,0,0,1,6.312-.718,49.761,49.761,0,0,1,8.167.167c1.924.25,3.826.68,5.726,1.088.626.135,1.2.5,1.819.676a17.148,17.148,0,0,1,6.543,3.561,8.223,8.223,0,0,1,2.579,3.661,20.818,20.818,0,0,1,.608,2.253,7.1,7.1,0,0,1-.456,5.05,1.485,1.485,0,0,1-1.277.941,1.366,1.366,0,0,1-1.311-.866A6.651,6.651,0,0,1,175.5,69.5a7.473,7.473,0,0,0-1.525-4.067,9.054,9.054,0,0,0-4.88-3.657c-.328-.1-.636-.278-.967-.371a16.742,16.742,0,0,0-2.247-.573,35.706,35.706,0,0,0-10.093.084,49.823,49.823,0,0,0-5.522,1.385c-.749.2-1.479.467-2.216.709-.327.108-.653.224-.976.345q-1.028.383-2.055.775c-.322.123-.645.245-.959.388-1.137.516-2.269,1.047-3.408,1.563-1.1.5-2.211.966-3.3,1.481-.818.385-1.62.808-2.413,1.241-.945.515-1.876,1.056-2.81,1.59-1.571.9-3.173,1.742-4.7,2.708-1.893,1.2-3.735,2.473-5.573,3.752-1.771,1.231-3.561,2.443-5.248,3.78A117.546,117.546,0,0,0,106.9,89.01q-3.228,3.19-6.171,6.646c-1.76,2.079-3.361,4.276-4.926,6.5-.819,1.162-1.571,2.377-2.28,3.61-.728,1.267-1.416,2.564-2.029,3.89-.576,1.249-1.032,2.553-1.542,3.833-.144.361-.308.715-.44,1.079-.177.486-.35.974-.491,1.471-.269.956-.515,1.917-.763,2.878A7.122,7.122,0,0,0,88,120.048a53.481,53.481,0,0,0-.264,8.673c.134,1.8.134,3.64,1.026,5.3a1.026,1.026,0,0,1,.1.374,8.542,8.542,0,0,0,1.529,3.54,16.593,16.593,0,0,0,8.947,7.28c.286.095.547.265.832.362.57.195,1.14.394,1.724.534.8.192,1.606.354,2.416.488a30.523,30.523,0,0,0,3.588.515c1.769.079,3.547.03,5.318-.026a30.243,30.243,0,0,0,3.227-.288c1.712-.239,3.418-.533,5.122-.82.509-.086,1.011-.214,1.514-.338.879-.218,1.759-.429,2.63-.676,1.656-.468,3.322-.91,4.952-1.455,1.428-.477,2.818-1.071,4.216-1.634.837-.337,1.664-.7,2.485-1.075,1.1-.5,2.2-.983,3.266-1.548.987-.525,1.9-1.181,2.879-1.723a42.7,42.7,0,0,0,5.634-3.9,88.772,88.772,0,0,0,8.646-7.822c1.449-1.486,2.873-2.994,4.3-4.5,1.813-1.912,3.632-3.819,5.421-5.754a5.862,5.862,0,0,0,1.2-1.666c.323-.8.715-1.565,1.05-2.355a17.409,17.409,0,0,1,3.484-5.1,12,12,0,0,1,5.542-3.45,15.886,15.886,0,0,1,7.2-.431c.509.095,1.029.136,1.546.182a.876.876,0,0,0,.888-.421c.33-.555.665-1.11.954-1.687.54-1.076,1.035-2.176,1.576-3.252.522-1.039,1.077-2.061,1.624-3.086.384-.72.781-1.433,1.167-2.153.528-.986,1.02-1.992,1.582-2.957.868-1.489,1.776-2.954,2.682-4.42.884-1.429,1.706-2.9,2.7-4.256a65.955,65.955,0,0,1,6.044-7.428,24.916,24.916,0,0,1,4.967-4.112c.833-.494,1.736-.753,2.569-1.192a6.338,6.338,0,0,1,3-.69c.736,0,1.471.026,2.207.008a5.584,5.584,0,0,1,4.206,1.978,2.455,2.455,0,0,1,.518.735,7.042,7.042,0,0,1,.48,4.055A13.54,13.54,0,0,1,222.73,78.6c-.857,1.4-1.734,2.78-2.657,4.133-1.24,1.816-2.492,3.625-3.814,5.381-1.219,1.62-2.5,3.2-3.819,4.736-1.685,1.97-3.369,3.949-5.173,5.807-2.439,2.511-4.933,4.973-7.514,7.337q-4.823,4.42-9.845,8.621a6.754,6.754,0,0,0-2.272,3.8,16.279,16.279,0,0,0-.252,6.817,4.258,4.258,0,0,0,1.371,2.552,3.026,3.026,0,0,0,3.375.562,22.132,22.132,0,0,0,5.646-3.378c1.685-1.345,3.256-2.831,4.907-4.219a32.016,32.016,0,0,0,4.79-5.084c.735-.958,1.473-1.918,2.272-2.822a36.081,36.081,0,0,1,4.729-4.425c1.118-.881,2.269-1.721,3.441-2.528,1.207-.83,2.444-1.62,3.693-2.386,1.027-.63,2.074-1.231,3.141-1.788,1.029-.538,2.089-1.022,3.149-1.5.587-.263,1.2-.472,1.807-.682.366-.127.752-.2,1.123-.313a14.179,14.179,0,0,1,10.245.246,6.248,6.248,0,0,1,2.343,1.984,1.713,1.713,0,0,1,.3.964c.027.8-.475,1.085-1.162.69a4.109,4.109,0,0,1-.753-.506,2.79,2.79,0,0,0-1.9-.709c-2.546-.08-5.056-.21-7.527.842-1.662.707-3.328,1.38-4.941,2.206a38.206,38.206,0,0,0-5.966,3.855,36.3,36.3,0,0,0-7.876,8.35c-.362.534-.792,1.031-1.1,1.593-.565,1.014-1.019,2.09-1.6,3.094a7.293,7.293,0,0,0-.6,4.544c.087.931.608,1.346,1.553,1.442.257.026.518-.005.778,0,1.49.026,2.607-.891,3.754-1.609a43.18,43.18,0,0,0,4.833-3.686,119.391,119.391,0,0,0,9.5-8.807c2.03-2.127,4.066-4.25,6.141-6.331a27.9,27.9,0,0,1,2.3-1.892,1.675,1.675,0,0,1,1.59-.328c.781.239,1.553.523,2.307.838a1.338,1.338,0,0,1,.97,1.62,5.959,5.959,0,0,1-.583,1.552,7.758,7.758,0,0,1-.537.726,65.512,65.512,0,0,0-3.16,6.212,5.75,5.75,0,0,0-.191.617c-.214.609-.441,1.214-.653,1.825a10.641,10.641,0,0,0-.388,1.231c-.228,1.056-.408,2.122-.635,3.177a6.384,6.384,0,0,0,.541,4.165,2.248,2.248,0,0,0,2.374,1.2,9.876,9.876,0,0,0,2.739-1.123,55.235,55.235,0,0,0,4.873-3.634,70.483,70.483,0,0,0,9.378-9.473,13.766,13.766,0,0,0,2-4.018c.553-1.446.955-2.949,1.432-4.425.079-.245.213-.473.309-.713a3.838,3.838,0,0,0,.357-.969c.2-1.985,1.192-3.784,1.285-5.806.055-1.192.623-1.686,1.834-1.79a17.878,17.878,0,0,1,3.106,0,2.53,2.53,0,0,1,2.2,3.277,13.015,13.015,0,0,1-1.847,4.115c-1.442,2.16-2.49,4.523-3.714,6.8a2.293,2.293,0,0,0-.195.871,1.34,1.34,0,0,0,.148.473,1.864,1.864,0,0,0,.489-.3c.391-.459.759-.938,1.12-1.421a38.781,38.781,0,0,1,4.144-4.624,25.439,25.439,0,0,1,4.759-3.557,11.489,11.489,0,0,1,2.705-1.225,15.23,15.23,0,0,1,7.7-.052,4.953,4.953,0,0,1,.963.373c.467.222.918.481,1.382.708.251.122.517.494.783.182a1.4,1.4,0,0,0,.162-.851,3.367,3.367,0,0,0-.171-.755c-.238-.962-.471-1.926-.718-2.885-.118-.459-.252-.914-.393-1.367q-.83-2.649-1.669-5.3-.683-2.155-1.379-4.307c-.026-.082-.074-.156-.108-.236-.563-1.351-1.119-2.7-1.689-4.053-.552-1.309-1.1-2.621-1.684-3.913-.5-1.1-1.046-2.17-1.586-3.246-.6-1.192-1.184-2.39-1.824-3.558-.787-1.437-1.6-2.863-2.446-4.265-1.249-2.066-2.468-4.155-3.833-6.143-1.514-2.2-3.21-4.278-4.768-6.452a70.131,70.131,0,0,0-6.4-7.483c-2.595-2.718-5.338-5.3-8.063-7.891a83.436,83.436,0,0,0-8.438-6.859c-1.638-1.193-3.317-2.336-5.006-3.456-1.545-1.024-3.119-2-4.7-2.975-.806-.5-1.651-.931-2.473-1.4-.9-.515-1.764-1.088-2.685-1.554-1.807-.916-3.639-1.786-5.469-2.653-.818-.388-1.675-.7-2.489-1.092a32.272,32.272,0,0,0-4.893-2.028c-.287-.086-.55-.25-.832-.359-.523-.2-1.049-.394-1.576-.585-.447-.162-.894-.316-1.342-.472-1.467-.51-2.931-1.023-4.4-1.522-.243-.083-.513-.086-.763-.149-.543-.14-1.083-.292-1.621-.445-.706-.2-1.407-.416-2.116-.6-.544-.143-1.1-.245-1.645-.37l-7.328-1.665c-.084-.019-.171-.023-.257-.036-1.881-.285-3.762-.574-5.644-.856-.556-.083-1.113-.174-1.672-.213q-2.718-.187-5.439-.332c-2.762-.145-5.529-.42-8.289-.368-3.845.073-7.685.4-11.529.61a32.815,32.815,0,0,0-5.135.724,14.458,14.458,0,0,1-1.8.274,19.606,19.606,0,0,0-4.58.856c-.527.176-1.107.187-1.654.314-2.017.468-4.032.953-6.047,1.434-.083.019-.158.069-.241.095q-2.716.838-5.434,1.673c-.413.127-.837.22-1.24.373-1.41.538-2.794,1.154-4.223,1.633-2.172.726-4.248,1.678-6.336,2.592-2.25.986-4.455,2.083-6.618,3.249-2.235,1.2-4.4,2.542-6.585,3.833-.631.372-1.233.791-1.847,1.192-1.337.871-2.705,1.7-4,2.63-1.751,1.261-3.452,2.591-5.158,3.911-2.805,2.17-5.482,4.492-8.058,6.926a96.739,96.739,0,0,0-8.624,9.149c-1.936,2.376-3.881,4.749-5.686,7.223q-2.549,3.5-4.833,7.187c-1.315,2.127-2.465,4.346-3.793,6.463a23.862,23.862,0,0,0-1.19,2.3c-.527,1.087-1.028,2.185-1.542,3.277-.552,1.171-1.118,2.334-1.654,3.512-.393.864-.775,1.734-1.113,2.62-.521,1.368-.965,2.765-1.5,4.125-.791,2.006-1.45,4.053-2.051,6.124a32.4,32.4,0,0,0-1.153,4.246,5.241,5.241,0,0,1-.2.615,76.866,76.866,0,0,0-1.711,7.56c-.2,1.1-.412,2.2-.6,3.309-.149.849-.313,1.7-.409,2.553-.169,1.5-.283,3.011-.434,4.516-.19,1.891-.514,3.778-.562,5.672-.093,3.758-.051,7.52-.035,11.281a28.193,28.193,0,0,0,.191,2.844c.205,1.934.493,3.858.658,5.794a25.165,25.165,0,0,0,.885,5.749,1.294,1.294,0,0,1,.049.254,39.251,39.251,0,0,0,1.1,5.841,30.175,30.175,0,0,0,1.11,4.51,5.236,5.236,0,0,1,.2,1.014,5.048,5.048,0,0,0,.27,1.131c.783,1.65.81,3.545,1.7,5.155a18.654,18.654,0,0,0,1.292,3.649.975.975,0,0,0,.954.739c.735.027,1.471.048,2.206.048Q119.857,170.085,173.606,170.083ZM43.423,9.069V9.03H13.571c-.432,0-.866.009-1.3.006C11.4,9.03,11,9.344,11.165,10.472a5.024,5.024,0,0,0,.243.735q.347,1.109.683,2.22c.125.412.225.834.358,1.244.535,1.638,1.142,3.256,1.6,4.916a16.861,16.861,0,0,0,.987,3.073,4.636,4.636,0,0,1,.2.75q.756,2.6,1.52,5.2c.012.042.038.078.051.119q.343,1.111.683,2.223c.139.454.264.913.41,1.364q.8,2.459,1.614,4.914c.04.123.049.255.086.379q.72,2.482,1.447,4.963c.025.083.07.158.1.24q.833,2.583,1.663,5.168c.039.123.044.255.08.38q.7,2.42,1.412,4.836c.025.082.074.157.1.239q.816,2.517,1.629,5.037c.013.041.016.086.029.127q.757,2.6,1.516,5.209c.036.123.106.237.147.361q.777,2.395,1.549,4.792c.026.082.025.171.049.254.5,1.694.937,3.407,1.514,5.072a17.893,17.893,0,0,1,.794,2.592,10.42,10.42,0,0,0,.406,1.225q.808,2.521,1.608,5.045c.026.082.022.172.045.255.5,1.692.993,3.385,1.5,5.074.235.782.492,1.557.736,2.337.129.411.253.825.379,1.237.228.742.458,1.482.684,2.224.139.454.262.912.409,1.363q.816,2.521,1.64,5.037c.026.082.031.171.056.253q.343,1.111.689,2.219c.127.412.252.825.379,1.237.228.74.456,1.481.689,2.219.091.288.212.568.293.857.469,1.659.868,3.338,1.412,4.971a25.609,25.609,0,0,1,1.113,3.714,5.676,5.676,0,0,0,.28.722c.213.654.4,1.318.622,1.967.434,1.26.885,2.516,1.338,3.77a.24.24,0,0,0,.2.117c.069-.006.18-.086.188-.145.073-.511.147-1.022.18-1.537a64.9,64.9,0,0,1,.713-8.387c.277-1.394.349-2.827.54-4.239a20.024,20.024,0,0,1,.405-2.293c.641-2.511.77-5.129,1.614-7.6.027-.08.021-.172.042-.255.48-1.924.959-3.85,1.45-5.772.064-.249.2-.477.286-.722.139-.408.257-.823.391-1.235.63-1.926,1.244-3.855,1.9-5.772.363-1.06.8-2.093,1.2-3.14.492-1.288.953-2.587,1.473-3.863.423-1.036.9-2.052,1.377-3.064.515-1.091,1.061-2.167,1.59-3.251.51-1.045,1.006-2.1,1.528-3.137q.549-1.1,1.154-2.166c.534-.934,1.1-1.848,1.645-2.774.876-1.484,1.708-3,2.635-4.448.88-1.379,1.845-2.705,2.8-4.037C70.788,52.682,72.3,50.416,74,48.3c2.08-2.594,4.262-5.111,6.5-7.566A124.851,124.851,0,0,1,92.439,29.4a130.765,130.765,0,0,1,11.655-8.607c.61-.406,1.216-.821,1.846-1.194q2.165-1.286,4.353-2.535,2.409-1.379,4.837-2.727c.753-.418,1.52-.813,2.3-1.179,1.093-.512,2.2-.986,3.306-1.48q1.061-.475,2.116-.961a1.721,1.721,0,0,0,.338-.189.624.624,0,0,0-.1-1.069,2.64,2.64,0,0,0-.884-.16c-.994-.034-1.99-.051-2.984-.057-15.7-.112-31.4.122-47.108-.149C62.547,8.934,52.984,9.069,43.423,9.069Zm241.341,96.693c0-.345.026-.694-.005-1.036a1.976,1.976,0,0,0-1.928-2.061,8.406,8.406,0,0,0-1.8.061,10.523,10.523,0,0,0-4.292,1.717,37.453,37.453,0,0,0-5.382,3.789,39.9,39.9,0,0,0-7.9,9.517c-1.071,1.714-1.976,3.533-2.968,5.3a4.575,4.575,0,0,0-.578,2.618,2.2,2.2,0,0,0,2.1,2.085,4.084,4.084,0,0,0,2.261-.429c1.1-.578,2.234-1.107,3.332-1.7a26.709,26.709,0,0,0,2.791-1.62,49.287,49.287,0,0,0,7.28-5.993,29.372,29.372,0,0,0,6.391-9A7.529,7.529,0,0,0,284.764,105.762ZM220.94,72.648c0-.415.005-.632,0-.847a2.4,2.4,0,0,0-.04-.386c-.116-.594-.343-.848-.927-.906a3.6,3.6,0,0,0-2.5.463c-.992.685-2,1.353-2.926,2.122a55.258,55.258,0,0,0-9.669,10.747c-.845,1.194-1.619,2.439-2.409,3.671-.906,1.411-1.811,2.823-2.683,4.255-.47.77-.884,1.576-1.3,2.378-.532,1.03-1.018,2.085-1.564,3.108-.893,1.669-1.823,3.317-2.729,4.978-.37.68-.753,1.354-1.071,2.058-.706,1.568-1.376,3.153-2.056,4.733a1.45,1.45,0,0,0-.145.494.642.642,0,0,0,.129.466c.091.074.315.023.465-.023.116-.036.2-.154.305-.236,1.042-.838,2.1-1.655,3.122-2.517a65.8,65.8,0,0,0,7.258-7.2c2.453-2.835,4.981-5.614,7.2-8.646,1.58-2.154,3.244-4.247,4.8-6.419,1.1-1.539,2.091-3.158,3.113-4.753.463-.725.9-1.468,1.319-2.22.541-.976.985-2.014,1.6-2.944A4.679,4.679,0,0,0,220.94,72.648Z" transform="translate(0)"/>
    <path id="パス_2" data-name="パス 2" d="M1600.312,1471.418q0,2.076,0,4.15a2.042,2.042,0,0,1-.737,1.721,1.043,1.043,0,0,1-1.676-.157,2.914,2.914,0,0,1-.683-2.035c.02-2.247.008-4.495.005-6.742,0-.389,0-.778-.027-1.166a1.02,1.02,0,0,0-.618-1.046,1.265,1.265,0,0,0-1.432.324,3.313,3.313,0,0,0-1.047,2.168c-.009.691-.02,1.382-.021,2.074,0,1.556.017,3.113-.01,4.667a7.561,7.561,0,0,1-.21,1.664,1.007,1.007,0,0,1-1.141.843,1.081,1.081,0,0,1-1.266-.861,5.536,5.536,0,0,1-.191-1.4q-.021-3.566.008-7.131a10.06,10.06,0,0,1,.118-1.42,4.357,4.357,0,0,1,2.973-3.592,8.313,8.313,0,0,1,3.292-.584c.779.02,1.56.047,2.335-.009a7.637,7.637,0,0,1,3.765.818,4.049,4.049,0,0,1,2.022,2.095,9.856,9.856,0,0,1,.7,4.058c0,1.858-.032,3.715-.084,5.573a5.272,5.272,0,0,1-.242,1.521,1.229,1.229,0,0,1-1.394.909,1.328,1.328,0,0,1-1.242-1.135,6.783,6.783,0,0,1-.1-1.289c-.009-1.858,0-3.717-.007-5.575,0-.6-.057-1.208-.08-1.812a2.184,2.184,0,0,0-1.173-1.76,1.928,1.928,0,0,0-.984-.218.716.716,0,0,0-.8.689,6.869,6.869,0,0,0-.057,1.033c-.007,1.21,0,2.42,0,3.631C1600.314,1471.418,1600.313,1471.418,1600.312,1471.418Z" transform="translate(-1384.689 -1273.159)"/>
    <path id="パス_3" data-name="パス 3" d="M.819,1471.586c0-.778-.027-1.557.005-2.333a5.279,5.279,0,0,1,1.747-3.785,4.194,4.194,0,0,1,4.541-.98c2.2.814,3.045,2.527,3.383,4.64a5.6,5.6,0,0,1,.012,1.294,2.207,2.207,0,0,1-2.174,2.144c-.776.048-1.556.023-2.335.034-.347,0-.695-.011-1.037.026-.736.076-.958.331-.989,1.1-.009.215.017.431.029.647a1.487,1.487,0,0,0,1.159,1.524,1.824,1.824,0,0,0,1.882-.565c.358-.371.685-.774,1.053-1.135.35-.344.745-.621,1.267-.3a1.514,1.514,0,0,1,.791,1.631,6.293,6.293,0,0,1-.923,1.845,4.487,4.487,0,0,1-7.518-.635,6.163,6.163,0,0,1-.915-3.583c.039-.516.006-1.037.006-1.555A.028.028,0,0,1,.819,1471.586Zm5.059-1.567a5.235,5.235,0,0,0,.639-.056.805.805,0,0,0,.7-.66,1.869,1.869,0,0,0-.51-1.769,1.758,1.758,0,0,0-1.819-.17,1.757,1.757,0,0,0-.8,1.869c.123.564.419.746,1.281.785C5.452,1470.022,5.538,1470.019,5.878,1470.019Z" transform="translate(-0.686 -1274.313)"/>
    <path id="パス_4" data-name="パス 4" d="M1818.059,1471.745a23.868,23.868,0,0,1,.022-2.973,4.994,4.994,0,0,1,3.019-4.029,4.519,4.519,0,0,1,5.4,1.524,7.138,7.138,0,0,1,1.2,4.032,3.43,3.43,0,0,1-.9,1.97,1.4,1.4,0,0,1-1.171.45c-.82.017-1.641.02-2.461.03-.345,0-.693-.013-1.036.02-1.1.1-1.408.586-1.088,1.672.012.042.029.082.042.123.231.728.553,1.4,1.4,1.528a2.022,2.022,0,0,0,2-.935,4.257,4.257,0,0,1,.662-.786c.365-.3.8-.62,1.291-.35a1.593,1.593,0,0,1,.788,1.4,1.889,1.889,0,0,1-.1.5,4.471,4.471,0,0,1-6.055,2.984,4.849,4.849,0,0,1-3.035-4.192c-.086-.984-.015-1.983-.015-2.975Zm4.786-1.562v-.015a6.329,6.329,0,0,0,.648,0c.7-.071.979-.392.971-1.1a1.675,1.675,0,0,0-.04-.385,1.655,1.655,0,0,0-1.209-1.235,1.4,1.4,0,0,0-1.459.25,2,2,0,0,0-.508,1.908c.311.621.909.565,1.468.585C1822.758,1470.185,1822.8,1470.184,1822.845,1470.184Z" transform="translate(-1582.006 -1274.469)"/>
    <path id="パス_5" data-name="パス 5" d="M1084.413,1471.958c0,.647.045,1.3-.012,1.94a12.784,12.784,0,0,1-.354,2.291,2.512,2.512,0,0,1-2.633,2.045c-.517.023-1.036-.008-1.554.013-2.3.092-3.7-1.263-4.7-3.071-.907-1.643-.174-4.561,1.28-5.808a4.025,4.025,0,0,1,2.9-1.215,1.152,1.152,0,0,0,.258-.02c.37-.061.837.005.965-.468a1.245,1.245,0,0,0-.9-1.254,9.014,9.014,0,0,0-1.157-.109c-.473-.04-.949-.053-1.416-.126a1.364,1.364,0,0,1-.505-2.464,2.7,2.7,0,0,1,1.06-.445,6.251,6.251,0,0,1,5.229,1.67,3.6,3.6,0,0,1,1.02,1.766,13.69,13.69,0,0,1,.53,3.7c-.005.517,0,1.035,0,1.552Zm-3.048,1.117c-.039-.511-.039-.988-.122-1.453a.868.868,0,0,0-1.018-.769,2.541,2.541,0,0,0-2.379,2.308c.074,1.272.789,1.925,2.173,2.152a.969.969,0,0,0,1.218-.865A10.591,10.591,0,0,0,1081.366,1473.075Z" transform="translate(-935.248 -1273.46)"/>
    <path id="パス_6" data-name="パス 6" d="M549.752,1471.634c0-.992-.043-1.987.009-2.978a4.818,4.818,0,0,1,4.516-4.536c1.6-.138,4.027,1.083,4.469,3.068.113.5.292.995.406,1.5a4.181,4.181,0,0,1-.339,2.894,1.431,1.431,0,0,1-1.307.9c-.95.026-1.9.025-2.851.048a8.2,8.2,0,0,0-1.289.086.863.863,0,0,0-.792,1.005,2.775,2.775,0,0,0,.706,1.769,1.533,1.533,0,0,0,1.776.393,2.524,2.524,0,0,0,1.264-1.062,2.1,2.1,0,0,1,1.194-.945.773.773,0,0,1,1,.354,2.4,2.4,0,0,1-.183,2.788,4.743,4.743,0,0,1-4.856,2.027,4.589,4.589,0,0,1-2.473-1.56,4.48,4.48,0,0,1-1.284-3.413c.036-.776.006-1.554.006-2.33A.059.059,0,0,1,549.752,1471.634Zm4.8-1.7v.012c.214,0,.431.015.644,0,.767-.068,1.058-.423.987-1.187a1.971,1.971,0,0,0-1.61-1.615c-.8-.087-1.3.264-1.629,1.148-.349.939-.008,1.526.965,1.642A5.929,5.929,0,0,0,554.55,1469.932Z" transform="translate(-478.362 -1274.241)"/>
    <path id="パス_7" data-name="パス 7" d="M194.719,1472.689c0,1.167.036,2.334-.016,3.5a4.82,4.82,0,0,1-.362,1.62,1.263,1.263,0,0,1-1.354.8,1.35,1.35,0,0,1-1.242-.987,5.244,5.244,0,0,1-.187-1.4c-.019-1.771.006-3.543-.01-5.314a18.8,18.8,0,0,0-.128-2.2,2.075,2.075,0,0,0-2.108-1.882,2.016,2.016,0,0,0-2.1,1.878,10.239,10.239,0,0,0-.048,1.294q-.008,3.046,0,6.092a3.2,3.2,0,0,1-.395,1.745,1.407,1.407,0,0,1-1.25.794,1.381,1.381,0,0,1-1.319-.891,3.882,3.882,0,0,1-.282-1.381c-.025-2.419-.038-4.84.005-7.258a5.179,5.179,0,0,1,1.865-3.989,4.812,4.812,0,0,1,4.817-1.1,5.165,5.165,0,0,1,2.2,1.033,6.348,6.348,0,0,1,1.887,4.277c.064,1.119.012,2.246.012,3.37Z" transform="translate(-160.029 -1273.934)"/>
    <path id="パス_8" data-name="パス 8" d="M2001.537,1472.808c0-1.34-.035-2.681.008-4.019a5.29,5.29,0,0,1,8.08-4.05,3.755,3.755,0,0,1,1.9,2.206,11.147,11.147,0,0,1,.614,3.687c-.039,1.814-.017,3.63,0,5.445a3.991,3.991,0,0,1-.464,2,1.1,1.1,0,0,1-1.263.682,1.161,1.161,0,0,1-1.145-.887,7.536,7.536,0,0,1-.171-1.538c-.018-2.031,0-4.063-.007-6.094a10.989,10.989,0,0,0-.046-1.294,2.356,2.356,0,0,0-2.352-1.975,1.84,1.84,0,0,0-1.741,1.126,4.243,4.243,0,0,0-.358,1.892q-.006,2.787,0,5.575a5.47,5.47,0,0,1-.422,2.407,1.228,1.228,0,0,1-1.6.731,1.12,1.12,0,0,1-.891-.848,6.325,6.325,0,0,1-.149-1.281c-.02-1.253-.007-2.507-.007-3.759A.045.045,0,0,1,2001.537,1472.808Z" transform="translate(-1741.698 -1274.073)"/>
    <path id="パス_9" data-name="パス 9" d="M1408.042,1472.4c0,1.381.005,2.764,0,4.145a4.75,4.75,0,0,1-.086.9,1.144,1.144,0,0,1-1.116,1.065,1.114,1.114,0,0,1-1.388-.864,9.253,9.253,0,0,1-.317-2.164c-.044-1.9-.022-3.8-.017-5.7a3.729,3.729,0,0,0-.535-2.1,2.089,2.089,0,0,0-2.693-.815,2.431,2.431,0,0,0-1.384,1.918c-.034.474-.044.95-.044,1.424,0,1.944.008,3.888.005,5.832a8.783,8.783,0,0,1-.068,1.292,1.178,1.178,0,0,1-1.163,1.171,1.126,1.126,0,0,1-1.368-.9,5.143,5.143,0,0,1-.278-1.517c-.026-2.246-.041-4.493.015-6.738a9.124,9.124,0,0,1,.4-2.42,4.04,4.04,0,0,1,2.439-2.675,13.4,13.4,0,0,1,1.349-.463,2.731,2.731,0,0,1,1.015-.167,5.622,5.622,0,0,1,4.084,1.937,4.738,4.738,0,0,1,1.133,3.21c-.043,1.207-.009,2.419-.009,3.629A.12.12,0,0,0,1408.042,1472.4Z" transform="translate(-1216.147 -1273.805)"/>
    <path id="パス_10" data-name="パス 10" d="M903.959,1416.538c0-1.08-.012-2.162,0-3.242a2.069,2.069,0,0,0-1.237-2.21,1.055,1.055,0,0,1-.733-1.106,1.179,1.179,0,0,1,.87-1.167c.98-.237,1.124-.907,1.111-1.76-.026-1.686-.006-3.372,0-5.058a9.582,9.582,0,0,1,.038-1.036,1.236,1.236,0,0,1,1.106-1.242,1.188,1.188,0,0,1,1.472.76,4.209,4.209,0,0,1,.3,1.5c.04,1.555.013,3.113.023,4.669.012,1.771.1,1.863,1.915,1.987.216.014.434.021.646.054a1.228,1.228,0,0,1,1.206,1.271,1.17,1.17,0,0,1-.946,1.351,9.651,9.651,0,0,1-1.392.28,1.445,1.445,0,0,0-1.414,1.556c-.039,1.728-.013,3.457-.005,5.186a1.875,1.875,0,0,0,1.328,1.874c.162.061.332.1.489.174a1.275,1.275,0,0,1-.218,2.446,9.757,9.757,0,0,1-2.571-.049A2.744,2.744,0,0,1,904,1420.3c-.049-1.251-.012-2.507-.012-3.759Z" transform="translate(-784.904 -1218.163)"/>
    <path id="パス_11" data-name="パス 11" d="M377.275,1416.626c0-1.08-.017-2.161.005-3.24a1.967,1.967,0,0,0-.9-1.757c-.142-.1-.3-.18-.431-.289a1.381,1.381,0,0,1,.18-2.356,1.8,1.8,0,0,1,.361-.145,1.069,1.069,0,0,0,.783-1.189c-.005-.389.008-.777.008-1.166,0-1.3-.017-2.592.013-3.888a8.951,8.951,0,0,1,.208-1.795,1.156,1.156,0,0,1,1.271-.882,1.133,1.133,0,0,1,1.166.848,5.739,5.739,0,0,1,.166,1.407c.021,1.512.008,3.023.01,4.535,0,.345-.008.692.025,1.036.065.691.245.892.948,1.017.38.068.776.053,1.161.1a4.488,4.488,0,0,1,1.011.2,1.286,1.286,0,0,1,.827,1.211.991.991,0,0,1-.669,1.01,10.834,10.834,0,0,1-1.332.479c-.245.074-.518.055-.767.119a1.356,1.356,0,0,0-1.185,1.471c-.027,1.77-.005,3.541,0,5.313a1.615,1.615,0,0,0,1,1.534c.349.173.7.343,1.057.5a1.181,1.181,0,0,1,.052,2.158c-1.716.749-4.532.359-4.83-2.216-.153-1.325-.123-2.672-.175-4.007C377.246,1416.627,377.261,1416.627,377.275,1416.626Z" transform="translate(-326.646 -1218.374)"/>
    <path id="パス_12" data-name="パス 12" d="M2194.236,1416.641c0-.993-.034-1.988.01-2.98a2.326,2.326,0,0,0-.919-2.033,6.4,6.4,0,0,1-.488-.425,1.364,1.364,0,0,1,.313-2.343,1.721,1.721,0,0,0,1.1-1.946c-.031-1.6-.018-3.2-.005-4.794a5.279,5.279,0,0,1,.126-1.283,1.3,1.3,0,0,1,1.329-1.013,1.368,1.368,0,0,1,1.327,1.2,7.89,7.89,0,0,1,.06,1.164c.006,1.468,0,2.937,0,4.405,0,.3-.006.605.005.906.043,1.006.139,1.113,1.1,1.2.344.032.692.034,1.035.071a2.84,2.84,0,0,1,.759.145,1.477,1.477,0,0,1,.954,1.284c.055.5-.335.761-.676,1.03a2.37,2.37,0,0,1-1.585.467c-1.25-.034-1.6.309-1.6,1.609.011,1.728,0,3.456,0,5.183a5.416,5.416,0,0,0,.035.646,1.151,1.151,0,0,0,.848,1.034,6.09,6.09,0,0,1,.965.367c.432.227.818.537.772,1.094a1.329,1.329,0,0,1-.822,1.23,3.984,3.984,0,0,1-3.034-.085,2.475,2.475,0,0,1-1.484-2,20.3,20.3,0,0,1-.129-2.193c-.019-.647,0-1.3,0-1.944C2194.237,1416.641,2194.236,1416.641,2194.236,1416.641Z" transform="translate(-1907.729 -1218.288)"/>
    <path id="パス_13" data-name="パス 13" d="M736.249,1473.278c0,1.3.022,2.594-.01,3.889a5.712,5.712,0,0,1-.241,1.524,1.322,1.322,0,0,1-2.568-.189,6.094,6.094,0,0,1-.072-1.032q-.008-4.861,0-9.723c0-.173,0-.346.013-.519.095-1.343.261-1.84,1.781-2.167a5.533,5.533,0,0,1,5.39,1.415,3.417,3.417,0,0,1,.909,2.486,1.334,1.334,0,0,1-.845,1.333,1.5,1.5,0,0,1-1.5-.57c-.169-.187-.226-.471-.384-.671a4.891,4.891,0,0,0-.871-.933.974.974,0,0,0-1.6.88c.023.734,0,1.469-.006,2.2C736.248,1471.895,736.249,1472.587,736.249,1473.278Z" transform="translate(-638.162 -1274.917)"/>
    <path id="パス_14" data-name="パス 14" d="M1259.564,1473.528c0-1.726-.006-3.453,0-5.18a1.655,1.655,0,0,1,.513-1.406,1.61,1.61,0,0,1,2.606.738,3.8,3.8,0,0,1,.157,1.148c.013,3.281.027,6.561-.008,9.842a4.243,4.243,0,0,1-.4,1.6,1.265,1.265,0,0,1-1.367.781,1.425,1.425,0,0,1-1.28-.953,4.646,4.646,0,0,1-.226-1.393c-.026-1.726-.01-3.453-.01-5.179Z" transform="translate(-1096.044 -1276.36)"/>
    <path id="パス_15" data-name="パス 15" d="M1255.772,1422.935a5.022,5.022,0,0,1-1.132-.6,6.674,6.674,0,0,1-1.06-1.289,1.016,1.016,0,0,1,.029-1.109,4.877,4.877,0,0,1,1.807-1.8.958.958,0,0,1,1.1.051,7.9,7.9,0,0,1,.978.835c.521.525,1.133,1.134.8,1.9a3.3,3.3,0,0,1-2.246,1.978C1256,1422.916,1255.956,1422.916,1255.772,1422.935Z" transform="translate(-1090.721 -1234.104)"/>
  </g>
</svg>
