<?xml version="1.0" encoding="utf-8"?>
<!-- Generator: Adobe Illustrator 26.3.1, SVG Export Plug-In . SVG Version: 6.00 Build 0)  -->
<svg version="1.1" id="_イヤー_1" xmlns="http://www.w3.org/2000/svg" xmlns:xlink="http://www.w3.org/1999/xlink" x="0px"
	 y="0px" viewBox="0 0 2418.6 265.2" style="enable-background:new 0 0 2418.6 265.2;" xml:space="preserve">
<style type="text/css">
	.st0{fill:#22231F;}
	.st1{fill:#E1901A;}
	.st2{fill:#E3C02A;}
	.st3{fill:#E0BE2A;}
	.st4{display:none;}
	.st5{display:inline;}
</style>
<g id="GLAPentertainment">
	<path class="st0" d="M1259.8,134.9h47v1.2c0,6.9-0.9,28.4-15.1,42.4c-10.6,10.6-23.6,13.5-36.4,13.5s-25.9-2.6-37.1-13.8
		c-3.5-3.5-15.2-16.4-15.2-39.4c0-19.8,8.9-31.9,15.1-38.1c7.7-7.8,20.6-15.7,40.4-15.7c7.7,0,15.8,1.2,23.6,5.4
		c6.6,3.4,13.8,9.5,19.2,18.7l-17.4,9.4c-3.5-6.9-8.8-10.4-12-12.1c-4.3-2.1-9.7-3.2-14.4-3.2c-8.1,0-17.4,2.9-23.6,9.1
		c-5.8,5.7-10.3,15.5-10.3,27c0,13.7,5.8,21.8,10.1,25.9c4.6,4.5,11.8,8.8,22.7,8.8c6.8,0,14.4-1.8,20.1-6.1c4-3.1,8-8.3,9.7-15.7
		h-26.4L1259.8,134.9L1259.8,134.9L1259.8,134.9z"/>
	<path class="st0" d="M1355.9,85.4l-0.2,89.4l46.4-0.2v17.2l-66.4,0.2l0.2-106.6H1355.9z"/>
	<path class="st0" d="M1496.2,169.4h-43l-9.4,22.4h-22.6l45.9-106.7h16.3l44.6,106.7h-22.4L1496.2,169.4L1496.2,169.4L1496.2,169.4z
		 M1490.1,152.5l-15.2-38.4l-15.2,38.4H1490.1L1490.1,152.5z"/>
	<path class="st0" d="M1580.5,84.9c11.5,0,19.5,1.2,27,7.8c8.3,7.4,10.4,17.4,10.4,24.7c0,4-0.6,15.1-8.4,22.9
		c-5.7,5.7-14.1,9.1-25.9,9.1h-12.9v42.4h-20V84.9H1580.5L1580.5,84.9z M1570.7,132.2h8.1c3.8,0,8.8,0,13.1-3.2
		c3.7-2.9,5.5-7.5,5.5-12c0-5.7-2.8-9.5-5.7-11.7c-4.1-2.9-9.4-3.2-14.1-3.2h-6.9L1570.7,132.2L1570.7,132.2L1570.7,132.2z"/>
	<path class="st0" d="M1682.8,178.5c-1.3,3.3-6.4,13.9-21.9,13.9c-7.2,0-12.6-2.1-17.1-6.3c-4.9-4.6-7-10.4-7-17.4
		c0-8.8,3.6-14.3,6.8-17.5c5.2-5.1,11.4-6.3,16.8-6.3c9.1,0,14.3,3.6,17.4,7.3c4.7,5.7,5.3,12.6,5.3,17.5v1h-33.3
		c0,2.7,0.7,5.5,2.2,7.5c1.3,1.9,4.1,4.2,8.9,4.2s8.3-2.3,10.4-5.9L1682.8,178.5L1682.8,178.5L1682.8,178.5z M1671.3,162.8
		c-1-6.1-6-9-10.6-9s-9.5,3-10.5,9H1671.3z"/>
	<path class="st0" d="M1704.4,147.9h12.5v5.8c2.4-3.3,6.6-7.2,13.8-7.2c3.9,0,9.7,1.1,13.2,5.4c3.1,3.8,3.5,8.2,3.5,12.5v28h-12.5
		v-24.3c0-2.5-0.1-6.4-2.4-8.7c-2-2.1-4.6-2.3-5.9-2.3c-3.3,0-5.9,1.1-7.7,3.9c-1.9,2.9-2,6.1-2,8.6v22.7h-12.5L1704.4,147.9
		L1704.4,147.9z"/>
	<path class="st0" d="M1789.3,158.6v33.8h-12.5v-33.8h-8.5v-10.7h8.5v-15.2h12.5v15.2h8.6v10.7L1789.3,158.6L1789.3,158.6z"/>
	<path class="st0" d="M1859.6,178.5c-1.3,3.3-6.4,13.9-21.9,13.9c-7.2,0-12.6-2.1-17.1-6.3c-4.9-4.6-7-10.4-7-17.4
		c0-8.8,3.6-14.3,6.8-17.5c5.2-5.1,11.4-6.3,16.8-6.3c9.1,0,14.3,3.6,17.4,7.3c4.7,5.7,5.3,12.6,5.3,17.5v1h-33.3
		c0,2.7,0.7,5.5,2.2,7.5c1.3,1.9,4.1,4.2,8.9,4.2s8.3-2.3,10.4-5.9L1859.6,178.5L1859.6,178.5L1859.6,178.5z M1848.1,162.8
		c-1-6.1-6-9-10.6-9s-9.5,3-10.5,9H1848.1z"/>
	<path class="st0" d="M1880,147.9h12.5v6.7c2-3.8,4.6-5.6,5.6-6.2c2-1.2,4.4-2,7.4-2c2.2,0,3.9,0.5,5.3,1l-1.6,11.7
		c-1.6-1.1-3.3-1.6-5.9-1.6c-2.4,0-5.9,0.5-8.3,3.6c-2.4,3-2.5,6.8-2.5,9.9v21.4H1880L1880,147.9L1880,147.9L1880,147.9z"/>
	<path class="st0" d="M2013.2,146.4h12.5v44.5h-12.5v-5.8c-4.5,6.5-10.5,7.2-13.7,7.2c-13.7,0-22.7-10.7-22.7-23.8
		s8.9-23.6,22.1-23.6c3.4,0,10.1,0.6,14.3,7.2L2013.2,146.4L2013.2,146.4z M1989.7,168.6c0,7.1,5.1,12.6,12.3,12.6
		s12.3-5.6,12.3-12.6s-5.1-12.5-12.3-12.5S1989.7,161.5,1989.7,168.6z"/>
	<path class="st0" d="M2058.4,132.5c4.1,0,7.5,3.4,7.5,7.5s-3.4,7.5-7.5,7.5s-7.5-3.4-7.5-7.5S2054.3,132.5,2058.4,132.5z
		 M2064.6,156.3v36.1h-12.5v-36.1H2064.6z"/>
	<path class="st0" d="M2091.4,147.9h12.5v5.8c2.4-3.3,6.6-7.2,13.8-7.2c3.9,0,9.7,1.1,13.2,5.4c3.1,3.8,3.5,8.2,3.5,12.5v28h-12.5
		v-24.3c0-2.5-0.1-6.4-2.4-8.7c-2-2.1-4.6-2.3-5.9-2.3c-3.3,0-5.9,1.1-7.7,3.9c-1.9,2.9-2,6.1-2,8.6v22.7h-12.5L2091.4,147.9
		L2091.4,147.9z"/>
	<path class="st0" d="M2155.9,147.9h12.5v5c4.7-6,10.6-6.5,13.3-6.5c9.4,0,12.9,5.9,14.1,8.1c2.2-3.5,6.6-8.1,14.3-8.1
		c6.9,0,10.3,3.2,12,5.4c2.9,3.8,3.1,7.6,3.1,12.5v28h-12.5v-24.3c0-5.2-1.1-7.6-2.1-8.7c-1.6-2.1-3.9-2.3-5.1-2.3
		c-3.4,0-5.6,1.5-6.9,3.9c-1.6,2.7-1.8,6.3-1.8,8.6v22.7h-12.5v-24.3c0-5.2-1.1-7.6-2.1-8.7c-1.6-2.1-3.9-2.3-5.1-2.3
		c-3.4,0-5.6,1.5-6.9,3.9c-1.6,2.7-1.8,6.3-1.8,8.6v22.7h-12.5L2155.9,147.9L2155.9,147.9z"/>
	<path class="st0" d="M2292.3,178.5c-1.3,3.3-6.4,13.9-21.9,13.9c-7.2,0-12.6-2.1-17.1-6.3c-4.9-4.6-7-10.4-7-17.4
		c0-8.8,3.6-14.3,6.8-17.5c5.2-5.1,11.4-6.3,16.8-6.3c9.1,0,14.3,3.6,17.4,7.3c4.7,5.7,5.3,12.6,5.3,17.5v1h-33.3
		c0,2.7,0.7,5.5,2.2,7.5c1.3,1.9,4.1,4.2,8.9,4.2s8.3-2.3,10.4-5.9L2292.3,178.5L2292.3,178.5L2292.3,178.5z M2280.8,162.8
		c-1-6.1-6-9-10.6-9s-9.5,3-10.5,9H2280.8z"/>
	<path class="st0" d="M2313.2,147.9h12.5v5.8c2.4-3.3,6.6-7.2,13.8-7.2c3.9,0,9.7,1.1,13.2,5.4c3.1,3.8,3.5,8.2,3.5,12.5v28h-12.5
		v-24.3c0-2.5-0.1-6.4-2.4-8.7c-2-2.1-4.6-2.3-5.9-2.3c-3.3,0-5.9,1.1-7.7,3.9c-1.9,2.9-2,6.1-2,8.6v22.7h-12.5L2313.2,147.9
		L2313.2,147.9z"/>
	<path class="st0" d="M1952.4,158.6v33.8h-12.5v-33.8h-8.5v-10.7h8.5v-15.2h12.5v15.2h8.6v10.7L1952.4,158.6L1952.4,158.6z"/>
	<path class="st0" d="M2398.1,158.6v33.8h-12.5v-33.8h-8.5v-10.7h8.5v-15.2h12.5v15.2h8.6v10.7L2398.1,158.6L2398.1,158.6z"/>
</g>
<g id="GLAP">
	<g id="P">
		<ellipse class="st1" cx="956.5" cy="105.2" rx="99.9" ry="98.2"/>
		<path class="st2" d="M847.8,105.2c0-48.5,33.1-89.3,78-100.9V0H794.3v262.9h131.5v-56.8C880.9,194.5,847.8,153.7,847.8,105.2
			L847.8,105.2L847.8,105.2z"/>
	</g>
	<polygon id="A" class="st1" points="644.8,0 513.3,262.9 776.2,262.9 	"/>
	<polygon id="L" class="st3" points="495.2,262.9 284.8,262.9 284.8,0 	"/>
	<g id="G">
		<path class="st1" d="M266.7,136.7v4c0,67.4-54.8,122.2-122.2,122.2h-4V136.7L266.7,136.7L266.7,136.7z"/>
		<path class="st3" d="M127.7,0h4v262.9h-4c-67.4,0-122.2-54.7-122.2-122.2v-18.6C5.5,54.8,60.3,0,127.7,0L127.7,0z"/>
	</g>
</g>
<g id="logo_A" class="st4">
	<g id="GLAPentertainment-2" class="st5">
		<path class="st0" d="M49.7,376.6h41.1v1.1c0,6-0.8,24.8-13.2,37c-9.3,9.3-20.7,11.8-31.8,11.8s-22.7-2.3-32.5-12.1
			C10.2,411.4,0,400.1,0,380c0-17.3,7.8-27.9,13.1-33.3c6.7-6.8,18-13.7,35.3-13.7c6.7,0,13.8,1.1,20.7,4.7
			c5.8,3,12.1,8.3,16.8,16.4l-15.2,8.2c-3.1-6-7.7-9.1-10.5-10.6c-3.8-1.9-8.5-2.8-12.6-2.8c-7.1,0-15.2,2.5-20.7,7.9
			c-5.1,5-9,13.5-9,23.6c0,11.9,5.1,19,8.9,22.7c4,3.9,10.3,7.6,19.9,7.6c5.9,0,12.6-1.6,17.6-5.4c3.5-2.7,7-7.2,8.4-13.7H49.6
			L49.7,376.6C49.6,376.6,49.6,376.6,49.7,376.6z"/>
		<path class="st0" d="M133.6,333.4l-0.2,78.2l40.6-0.2v15l-58,0.2l0.2-93.2H133.6z"/>
		<path class="st0" d="M256.2,406.8h-37.6l-8.2,19.6h-19.7l40.1-93.2H245l39,93.2h-19.6L256.2,406.8L256.2,406.8L256.2,406.8z
			 M250.9,392l-13.3-33.5L224.4,392H250.9z"/>
		<path class="st0" d="M329.9,333c10.1,0,17,1.1,23.6,6.8c7.2,6.4,9.1,15.2,9.1,21.6c0,3.5-0.5,13.1-7.4,20c-5,5-12.4,7.9-22.7,7.9
			h-11.3v37h-17.4V333H329.9z M321.3,374.3h7.1c3.4,0,7.6,0,11.4-2.8c3.2-2.5,4.8-6.6,4.8-10.5c0-5-2.4-8.3-5-10.2
			c-3.6-2.5-8.2-2.8-12.4-2.8h-6L321.3,374.3L321.3,374.3L321.3,374.3z"/>
		<path class="st0" d="M419.3,414.8c-1.2,2.9-5.6,12.1-19.1,12.1c-6.3,0-11-1.8-14.9-5.5c-4.3-4-6.1-9.1-6.1-15.2
			c0-7.7,3.1-12.5,5.9-15.3c4.6-4.5,10-5.5,14.6-5.5c7.9,0,12.5,3.1,15.2,6.4c4.1,4.9,4.7,11,4.7,15.3v0.9h-29.1
			c0,2.3,0.6,4.9,1.9,6.6c1.2,1.6,3.6,3.7,7.8,3.7s7.3-2,9.1-5.1L419.3,414.8L419.3,414.8L419.3,414.8z M409.2,401
			c-0.9-5.3-5.2-7.8-9.3-7.8s-8.3,2.6-9.2,7.8H409.2L409.2,401z"/>
		<path class="st0" d="M438.1,388h11v5c2.1-2.9,5.8-6.3,12-6.3c3.4,0,8.5,1,11.5,4.8c2.7,3.3,3.1,7.2,3.1,11v24.4h-11v-21.2
			c0-2.2-0.1-5.6-2.1-7.6c-1.7-1.8-4-2-5.1-2c-2.9,0-5.1,1-6.7,3.4c-1.6,2.5-1.7,5.3-1.7,7.5v19.9h-11L438.1,388L438.1,388z"/>
		<path class="st0" d="M512.4,397.3v29.6h-11v-29.6H494V388h7.5v-13.3h11V388h7.5v9.4H512.4z"/>
		<path class="st0" d="M573.8,414.8c-1.2,2.9-5.6,12.1-19.1,12.1c-6.3,0-11-1.8-14.9-5.5c-4.3-4-6.1-9.1-6.1-15.2
			c0-7.7,3.2-12.5,5.9-15.3c4.6-4.5,10-5.5,14.7-5.5c7.9,0,12.5,3.1,15.2,6.4c4.1,4.9,4.7,11,4.7,15.3v0.9H545
			c0,2.3,0.6,4.9,1.9,6.6c1.2,1.6,3.6,3.7,7.8,3.7s7.3-2,9.1-5.1L573.8,414.8L573.8,414.8L573.8,414.8z M563.7,401
			c-0.9-5.3-5.2-7.8-9.3-7.8s-8.3,2.6-9.2,7.8H563.7z"/>
		<path class="st0" d="M591.7,388h11v5.8c1.7-3.3,4-4.9,4.8-5.4c1.7-1.1,3.9-1.7,6.5-1.7c1.9,0,3.4,0.5,4.7,0.9l-1.4,10.2
			c-1.4-1-2.9-1.4-5.1-1.4c-2.1,0-5.1,0.5-7.3,3.1c-2.1,2.6-2.2,5.9-2.2,8.6v18.7h-11L591.7,388L591.7,388L591.7,388z"/>
		<path class="st0" d="M708,386.7h11v38.9h-11v-5c-4,5.7-9.2,6.3-12,6.3c-12,0-19.9-9.4-19.9-20.8s7.8-20.7,19.3-20.7
			c3,0,8.8,0.5,12.5,6.3V386.7z M687.5,406.1c0,6.2,4.5,11,10.8,11s10.8-4.9,10.8-11s-4.5-11-10.8-11S687.5,399.9,687.5,406.1z"/>
		<path class="st0" d="M747.5,374.6c3.6,0,6.6,3,6.6,6.6s-3,6.6-6.6,6.6s-6.6-3-6.6-6.6S743.9,374.6,747.5,374.6z M753,395.3v31.6
			h-11v-31.6H753z"/>
		<path class="st0" d="M776.4,388h11v5c2.1-2.9,5.8-6.3,12-6.3c3.4,0,8.5,1,11.5,4.8c2.7,3.3,3.1,7.2,3.1,11v24.4h-11v-21.2
			c0-2.2-0.1-5.6-2.1-7.6c-1.7-1.8-4-2-5.1-2c-2.9,0-5.1,1-6.7,3.4c-1.6,2.5-1.7,5.3-1.7,7.5v19.9h-11L776.4,388L776.4,388z"/>
		<path class="st0" d="M832.8,388h11v4.4c4.1-5.2,9.3-5.7,11.6-5.7c8.2,0,11.3,5.1,12.3,7.1c1.9-3.1,5.8-7.1,12.5-7.1
			c6,0,9,2.8,10.5,4.8c2.5,3.3,2.7,6.6,2.7,11v24.4h-11v-21.2c0-4.6-1-6.6-1.8-7.6c-1.4-1.8-3.4-2-4.5-2c-3,0-4.8,1.4-6,3.4
			c-1.4,2.3-1.5,5.5-1.5,7.5v19.9h-11v-21.2c0-4.6-1-6.6-1.8-7.6c-1.4-1.8-3.4-2-4.5-2c-3,0-4.8,1.4-6,3.4c-1.4,2.3-1.5,5.5-1.5,7.5
			v19.9h-11L832.8,388L832.8,388z"/>
		<path class="st0" d="M952,414.8c-1.2,2.9-5.6,12.1-19.1,12.1c-6.3,0-11-1.8-14.9-5.5c-4.3-4-6.1-9.1-6.1-15.2
			c0-7.7,3.2-12.5,5.9-15.3c4.6-4.5,10-5.5,14.7-5.5c7.9,0,12.5,3.1,15.2,6.4c4.1,4.9,4.7,11,4.7,15.3v0.9h-29.1
			c0,2.3,0.6,4.9,1.9,6.6c1.2,1.6,3.6,3.7,7.8,3.7s7.3-2,9.1-5.1L952,414.8L952,414.8L952,414.8z M941.9,401
			c-0.9-5.3-5.2-7.8-9.3-7.8s-8.3,2.6-9.2,7.8H941.9z"/>
		<path class="st0" d="M970.2,388h11v5c2.1-2.9,5.8-6.3,12-6.3c3.4,0,8.5,1,11.5,4.8c2.7,3.3,3.1,7.2,3.1,11v24.4h-11v-21.2
			c0-2.2-0.1-5.6-2.1-7.6c-1.7-1.8-4-2-5.1-2c-2.9,0-5.1,1-6.7,3.4c-1.6,2.5-1.7,5.3-1.7,7.5v19.9h-11L970.2,388L970.2,388z"/>
		<path class="st0" d="M654.9,397.3v29.6h-11v-29.6h-7.5V388h7.5v-13.3h11V388h7.5v9.4H654.9z"/>
		<path class="st0" d="M1044.5,397.3v29.6h-11v-29.6h-7.5V388h7.5v-13.3h11V388h7.6v9.4H1044.5z"/>
	</g>
	<g id="GLAP-2" class="st5">
		<g id="P-2">
			<ellipse class="st1" cx="951.5" cy="105.2" rx="99.9" ry="98.2"/>
			<path class="st2" d="M842.8,105.2c0-48.5,33.1-89.3,78-100.9V0H789.4v262.9h131.5v-56.8C876,194.5,842.8,153.7,842.8,105.2
				L842.8,105.2L842.8,105.2z"/>
		</g>
		<polygon id="A-2" class="st1" points="639.8,0 508.3,262.9 771.3,262.9 		"/>
		<polygon id="L-2" class="st3" points="490.2,262.9 279.9,262.9 279.9,0 		"/>
		<g id="G-2">
			<path class="st1" d="M261.8,136.7v4c0,67.4-54.8,122.2-122.2,122.2h-4V136.7L261.8,136.7L261.8,136.7z"/>
			<path class="st3" d="M122.8,0h4v262.9h-4c-67.4,0-122.2-54.8-122.2-122.2v-18.6C0.6,54.8,55.3,0,122.8,0z"/>
		</g>
	</g>
</g>
<g id="logo_A-2" class="st4">
	<g id="GLAPentertainment-3" class="st5">
		<path class="st0" d="M49.7,376.6h41.1v1.1c0,6-0.8,24.8-13.2,37c-9.3,9.3-20.7,11.8-31.8,11.8s-22.7-2.3-32.5-12.1
			C10.2,411.4,0,400.1,0,380c0-17.3,7.8-27.9,13.1-33.3c6.7-6.8,18-13.7,35.3-13.7c6.7,0,13.8,1.1,20.7,4.7
			c5.8,3,12.1,8.3,16.8,16.4l-15.2,8.2c-3.1-6-7.7-9.1-10.5-10.6c-3.8-1.9-8.5-2.8-12.6-2.8c-7.1,0-15.2,2.5-20.7,7.9
			c-5.1,5-9,13.5-9,23.6c0,11.9,5.1,19,8.9,22.7c4,3.9,10.3,7.6,19.9,7.6c5.9,0,12.6-1.6,17.6-5.4c3.5-2.7,7-7.2,8.4-13.7H49.6
			L49.7,376.6C49.6,376.6,49.6,376.6,49.7,376.6z"/>
		<path class="st0" d="M133.6,333.4l-0.2,78.2l40.6-0.2v15l-58,0.2l0.2-93.2H133.6z"/>
		<path class="st0" d="M256.2,406.8h-37.6l-8.2,19.6h-19.7l40.1-93.2H245l39,93.2h-19.6L256.2,406.8L256.2,406.8L256.2,406.8z
			 M250.9,392l-13.3-33.5L224.4,392H250.9z"/>
		<path class="st0" d="M329.9,333c10.1,0,17,1.1,23.6,6.8c7.2,6.4,9.1,15.2,9.1,21.6c0,3.5-0.5,13.1-7.4,20c-5,5-12.4,7.9-22.7,7.9
			h-11.3v37h-17.4V333H329.9z M321.3,374.3h7.1c3.4,0,7.6,0,11.4-2.8c3.2-2.5,4.8-6.6,4.8-10.5c0-5-2.4-8.3-5-10.2
			c-3.6-2.5-8.2-2.8-12.4-2.8h-6L321.3,374.3L321.3,374.3L321.3,374.3z"/>
		<path class="st0" d="M419.3,414.8c-1.2,2.9-5.6,12.1-19.1,12.1c-6.3,0-11-1.8-14.9-5.5c-4.3-4-6.1-9.1-6.1-15.2
			c0-7.7,3.1-12.5,5.9-15.3c4.6-4.5,10-5.5,14.6-5.5c7.9,0,12.5,3.1,15.2,6.4c4.1,4.9,4.7,11,4.7,15.3v0.9h-29.1
			c0,2.3,0.6,4.9,1.9,6.6c1.2,1.6,3.6,3.7,7.8,3.7s7.3-2,9.1-5.1L419.3,414.8L419.3,414.8L419.3,414.8z M409.2,401
			c-0.9-5.3-5.2-7.8-9.3-7.8s-8.3,2.6-9.2,7.8H409.2L409.2,401z"/>
		<path class="st0" d="M438.1,388h11v5c2.1-2.9,5.8-6.3,12-6.3c3.4,0,8.5,1,11.5,4.8c2.7,3.3,3.1,7.2,3.1,11v24.4h-11v-21.2
			c0-2.2-0.1-5.6-2.1-7.6c-1.7-1.8-4-2-5.1-2c-2.9,0-5.1,1-6.7,3.4c-1.6,2.5-1.7,5.3-1.7,7.5v19.9h-11L438.1,388L438.1,388z"/>
		<path class="st0" d="M512.4,397.3v29.6h-11v-29.6H494V388h7.5v-13.3h11V388h7.5v9.4H512.4z"/>
		<path class="st0" d="M573.8,414.8c-1.2,2.9-5.6,12.1-19.1,12.1c-6.3,0-11-1.8-14.9-5.5c-4.3-4-6.1-9.1-6.1-15.2
			c0-7.7,3.2-12.5,5.9-15.3c4.6-4.5,10-5.5,14.7-5.5c7.9,0,12.5,3.1,15.2,6.4c4.1,4.9,4.7,11,4.7,15.3v0.9H545
			c0,2.3,0.6,4.9,1.9,6.6c1.2,1.6,3.6,3.7,7.8,3.7s7.3-2,9.1-5.1L573.8,414.8L573.8,414.8L573.8,414.8z M563.7,401
			c-0.9-5.3-5.2-7.8-9.3-7.8s-8.3,2.6-9.2,7.8H563.7z"/>
		<path class="st0" d="M591.7,388h11v5.8c1.7-3.3,4-4.9,4.8-5.4c1.7-1.1,3.9-1.7,6.5-1.7c1.9,0,3.4,0.5,4.7,0.9l-1.4,10.2
			c-1.4-1-2.9-1.4-5.1-1.4c-2.1,0-5.1,0.5-7.3,3.1c-2.1,2.6-2.2,5.9-2.2,8.6v18.7h-11L591.7,388L591.7,388L591.7,388z"/>
		<path class="st0" d="M708,386.7h11v38.9h-11v-5c-4,5.7-9.2,6.3-12,6.3c-12,0-19.9-9.4-19.9-20.8s7.8-20.7,19.3-20.7
			c3,0,8.8,0.5,12.5,6.3V386.7z M687.5,406.1c0,6.2,4.5,11,10.8,11s10.8-4.9,10.8-11s-4.5-11-10.8-11S687.5,399.9,687.5,406.1z"/>
		<path class="st0" d="M747.5,374.6c3.6,0,6.6,3,6.6,6.6s-3,6.6-6.6,6.6s-6.6-3-6.6-6.6S743.9,374.6,747.5,374.6z M753,395.3v31.6
			h-11v-31.6H753z"/>
		<path class="st0" d="M776.4,388h11v5c2.1-2.9,5.8-6.3,12-6.3c3.4,0,8.5,1,11.5,4.8c2.7,3.3,3.1,7.2,3.1,11v24.4h-11v-21.2
			c0-2.2-0.1-5.6-2.1-7.6c-1.7-1.8-4-2-5.1-2c-2.9,0-5.1,1-6.7,3.4c-1.6,2.5-1.7,5.3-1.7,7.5v19.9h-11L776.4,388L776.4,388z"/>
		<path class="st0" d="M832.8,388h11v4.4c4.1-5.2,9.3-5.7,11.6-5.7c8.2,0,11.3,5.1,12.3,7.1c1.9-3.1,5.8-7.1,12.5-7.1
			c6,0,9,2.8,10.5,4.8c2.5,3.3,2.7,6.6,2.7,11v24.4h-11v-21.2c0-4.6-1-6.6-1.8-7.6c-1.4-1.8-3.4-2-4.5-2c-3,0-4.8,1.4-6,3.4
			c-1.4,2.3-1.5,5.5-1.5,7.5v19.9h-11v-21.2c0-4.6-1-6.6-1.8-7.6c-1.4-1.8-3.4-2-4.5-2c-3,0-4.8,1.4-6,3.4c-1.4,2.3-1.5,5.5-1.5,7.5
			v19.9h-11L832.8,388L832.8,388z"/>
		<path class="st0" d="M952,414.8c-1.2,2.9-5.6,12.1-19.1,12.1c-6.3,0-11-1.8-14.9-5.5c-4.3-4-6.1-9.1-6.1-15.2
			c0-7.7,3.2-12.5,5.9-15.3c4.6-4.5,10-5.5,14.7-5.5c7.9,0,12.5,3.1,15.2,6.4c4.1,4.9,4.7,11,4.7,15.3v0.9h-29.1
			c0,2.3,0.6,4.9,1.9,6.6c1.2,1.6,3.6,3.7,7.8,3.7s7.3-2,9.1-5.1L952,414.8L952,414.8L952,414.8z M941.9,401
			c-0.9-5.3-5.2-7.8-9.3-7.8s-8.3,2.6-9.2,7.8H941.9z"/>
		<path class="st0" d="M970.2,388h11v5c2.1-2.9,5.8-6.3,12-6.3c3.4,0,8.5,1,11.5,4.8c2.7,3.3,3.1,7.2,3.1,11v24.4h-11v-21.2
			c0-2.2-0.1-5.6-2.1-7.6c-1.7-1.8-4-2-5.1-2c-2.9,0-5.1,1-6.7,3.4c-1.6,2.5-1.7,5.3-1.7,7.5v19.9h-11L970.2,388L970.2,388z"/>
		<path class="st0" d="M654.9,397.3v29.6h-11v-29.6h-7.5V388h7.5v-13.3h11V388h7.5v9.4H654.9z"/>
		<path class="st0" d="M1044.5,397.3v29.6h-11v-29.6h-7.5V388h7.5v-13.3h11V388h7.6v9.4H1044.5z"/>
	</g>
	<g id="GLAP-3" class="st5">
		<g id="P-3">
			<ellipse class="st1" cx="951.5" cy="105.2" rx="99.9" ry="98.2"/>
			<path class="st2" d="M842.8,105.2c0-48.5,33.1-89.3,78-100.9V0H789.4v262.9h131.5v-56.8C876,194.5,842.8,153.7,842.8,105.2
				L842.8,105.2L842.8,105.2z"/>
		</g>
		<polygon id="A-3" class="st1" points="639.8,0 508.3,262.9 771.3,262.9 		"/>
		<polygon id="L-3" class="st3" points="490.2,262.9 279.9,262.9 279.9,0 		"/>
		<g id="G-3">
			<path class="st1" d="M261.8,136.7v4c0,67.4-54.8,122.2-122.2,122.2h-4V136.7L261.8,136.7L261.8,136.7z"/>
			<path class="st3" d="M122.8,0h4v262.9h-4c-67.4,0-122.2-54.8-122.2-122.2v-18.6C0.6,54.8,55.3,0,122.8,0z"/>
		</g>
	</g>
</g>
</svg>
