<?xml version="1.0" encoding="utf-8"?>
<!-- Generator: Adobe Illustrator 26.3.1, SVG Export Plug-In . SVG Version: 6.00 Build 0)  -->
<svg version="1.1" id="_イヤー_1" xmlns="http://www.w3.org/2000/svg" xmlns:xlink="http://www.w3.org/1999/xlink" x="0px"
	 y="0px" viewBox="0 0 1052 426.9" style="enable-background:new 0 0 1052 426.9;" xml:space="preserve">
<style type="text/css">
	.st0{display:none;}
	.st1{display:inline;fill:#22231F;}
	.st2{display:inline;}
	.st3{fill:#E1901A;}
	.st4{fill:#E3C02A;}
	.st5{fill:#E0BE2A;}
	.st6{fill:#22231F;}
</style>
<g id="logo_x5F_A_00000057119945944305946810000012065355804770356905_" class="st0">
	<g id="GLAPentertainment_00000101076493989870349380000014013373946475336856_">
		<path class="st1" d="M72.3,462.7h41.1v1.1c0,6-0.8,24.8-13.1,37c-9.3,9.3-20.7,11.8-31.8,11.8c-11.1,0-22.7-2.3-32.5-12.1
			c-3.1-3.1-13.3-14.4-13.3-34.5c0-17.3,7.8-27.9,13.2-33.3c6.7-6.8,18-13.7,35.3-13.7c6.7,0,13.8,1.1,20.7,4.7
			c5.8,3,12.1,8.3,16.8,16.4l-15.2,8.2c-3.1-6-7.6-9.1-10.5-10.6c-3.8-1.9-8.5-2.8-12.6-2.8c-7.1,0-15.2,2.5-20.7,7.9
			c-5.1,5-9,13.6-9,23.6c0,11.9,5.1,19.1,8.9,22.7c4,3.9,10.3,7.6,19.9,7.6c5.9,0,12.6-1.6,17.6-5.4c3.5-2.7,7-7.2,8.5-13.7H72.3
			V462.7z"/>
		<path class="st1" d="M156.3,419.5l-0.2,78.2l40.6-0.2v15l-58,0.2l0.2-93.2H156.3z"/>
		<path class="st1" d="M278.9,492.9h-37.6l-8.2,19.6h-19.7l40.1-93.2h14.3l39,93.2h-19.6L278.9,492.9z M273.5,478.1l-13.3-33.6
			L247,478.1H273.5z"/>
		<path class="st1" d="M352.5,419.1c10.1,0,17,1.1,23.6,6.8c7.2,6.4,9.1,15.2,9.1,21.6c0,3.5-0.5,13.1-7.4,20
			c-5,5-12.3,7.9-22.7,7.9h-11.3v37h-17.4v-93.4H352.5z M343.9,460.4h7.1c3.4,0,7.6,0,11.4-2.8c3.2-2.5,4.8-6.6,4.8-10.5
			c0-5-2.4-8.3-5-10.2c-3.6-2.6-8.2-2.8-12.3-2.8h-6V460.4z"/>
		<path class="st1" d="M441.9,500.9c-1.2,2.9-5.6,12.1-19.1,12.1c-6.3,0-11.1-1.8-14.9-5.5c-4.3-4-6.1-9.1-6.1-15.2
			c0-7.7,3.1-12.5,5.9-15.3c4.6-4.5,10-5.5,14.6-5.5c7.9,0,12.5,3.1,15.2,6.4c4.1,4.9,4.7,11.1,4.7,15.3v0.9H413
			c0,2.3,0.6,4.9,1.9,6.6c1.2,1.6,3.6,3.7,7.8,3.7c4.1,0,7.3-2,9.1-5.1L441.9,500.9z M431.8,487.1c-0.9-5.3-5.2-7.8-9.3-7.8
			s-8.3,2.6-9.2,7.8H431.8z"/>
		<path class="st1" d="M460.8,474.1h11v5c2.1-2.9,5.8-6.3,12-6.3c3.4,0,8.4,1,11.5,4.8c2.7,3.3,3.1,7.2,3.1,11V513h-11v-21.2
			c0-2.2-0.1-5.6-2.1-7.6c-1.7-1.8-4-2-5.1-2c-2.9,0-5.1,1-6.7,3.4c-1.6,2.5-1.7,5.3-1.7,7.5V513h-11V474.1z"/>
		<path class="st1" d="M535,483.4V513h-11v-29.6h-7.5v-9.3h7.5v-13.3h11v13.3h7.5v9.3H535z"/>
		<path class="st1" d="M596.4,500.9c-1.2,2.9-5.6,12.1-19.1,12.1c-6.3,0-11.1-1.8-14.9-5.5c-4.3-4-6.1-9.1-6.1-15.2
			c0-7.7,3.1-12.5,5.9-15.3c4.6-4.5,10-5.5,14.6-5.5c7.9,0,12.5,3.1,15.2,6.4c4.1,4.9,4.7,11.1,4.7,15.3v0.9h-29.1
			c0,2.3,0.6,4.9,1.9,6.6c1.2,1.6,3.6,3.7,7.8,3.7c4.1,0,7.3-2,9.1-5.1L596.4,500.9z M586.4,487.1c-0.9-5.3-5.2-7.8-9.3-7.8
			c-4,0-8.3,2.6-9.2,7.8H586.4z"/>
		<path class="st1" d="M614.3,474.1h11v5.8c1.7-3.3,4-4.9,4.9-5.4c1.7-1.1,3.9-1.7,6.5-1.7c1.9,0,3.4,0.4,4.7,0.9l-1.4,10.2
			c-1.4-1-2.9-1.4-5.1-1.4c-2.1,0-5.1,0.4-7.3,3.1c-2.1,2.6-2.2,5.9-2.2,8.6V513h-11V474.1z"/>
		<path class="st1" d="M730.7,472.8h11v38.9h-11v-5c-4,5.7-9.2,6.3-12,6.3c-12,0-19.9-9.3-19.9-20.8c0-11.5,7.8-20.7,19.3-20.7
			c3,0,8.8,0.5,12.5,6.3V472.8z M710.2,492.2c0,6.2,4.5,11.1,10.8,11.1c6.3,0,10.8-4.9,10.8-11.1c0-6.2-4.5-11-10.8-11
			C714.7,481.3,710.2,486,710.2,492.2z"/>
		<path class="st1" d="M770.2,460.7c3.6,0,6.6,3,6.6,6.6s-3,6.6-6.6,6.6s-6.6-3-6.6-6.6S766.6,460.7,770.2,460.7z M775.6,481.4V513
			h-11v-31.6H775.6z"/>
		<path class="st1" d="M799,474.1h11v5c2.1-2.9,5.8-6.3,12-6.3c3.4,0,8.4,1,11.5,4.8c2.7,3.3,3.1,7.2,3.1,11V513h-11v-21.2
			c0-2.2-0.1-5.6-2.1-7.6c-1.7-1.8-4-2-5.1-2c-2.9,0-5.1,1-6.7,3.4c-1.6,2.5-1.7,5.3-1.7,7.5V513h-11V474.1z"/>
		<path class="st1" d="M855.4,474.1h11v4.4c4.1-5.2,9.3-5.7,11.6-5.7c8.2,0,11.3,5.1,12.3,7.1c1.9-3.1,5.8-7.1,12.5-7.1
			c6,0,9,2.8,10.5,4.8c2.5,3.3,2.7,6.6,2.7,11V513h-11v-21.2c0-4.6-1-6.7-1.8-7.6c-1.4-1.8-3.4-2-4.5-2c-3,0-4.9,1.3-6,3.4
			c-1.4,2.3-1.5,5.5-1.5,7.5V513h-11v-21.2c0-4.6-1-6.7-1.8-7.6c-1.4-1.8-3.4-2-4.5-2c-3,0-4.9,1.3-6,3.4c-1.4,2.3-1.5,5.5-1.5,7.5
			V513h-11V474.1z"/>
		<path class="st1" d="M974.6,500.9c-1.2,2.9-5.6,12.1-19.1,12.1c-6.3,0-11.1-1.8-14.9-5.5c-4.3-4-6.1-9.1-6.1-15.2
			c0-7.7,3.1-12.5,5.9-15.3c4.6-4.5,10-5.5,14.6-5.5c7.9,0,12.5,3.1,15.2,6.4c4.1,4.9,4.7,11.1,4.7,15.3v0.9h-29.1
			c0,2.3,0.6,4.9,1.9,6.6c1.2,1.6,3.6,3.7,7.8,3.7c4.1,0,7.3-2,9.1-5.1L974.6,500.9z M964.5,487.1c-0.9-5.3-5.2-7.8-9.3-7.8
			s-8.3,2.6-9.2,7.8H964.5z"/>
		<path class="st1" d="M992.9,474.1h11v5c2.1-2.9,5.8-6.3,12-6.3c3.4,0,8.4,1,11.5,4.8c2.7,3.3,3.1,7.2,3.1,11V513h-11v-21.2
			c0-2.2-0.1-5.6-2.1-7.6c-1.7-1.8-4-2-5.1-2c-2.9,0-5.1,1-6.7,3.4c-1.6,2.5-1.7,5.3-1.7,7.5V513h-11V474.1z"/>
		<path class="st1" d="M677.5,483.4V513h-11v-29.6h-7.5v-9.3h7.5v-13.3h11v13.3h7.5v9.3H677.5z"/>
		<path class="st1" d="M1067.1,483.4V513h-11v-29.6h-7.5v-9.3h7.5v-13.3h11v13.3h7.5v9.3H1067.1z"/>
	</g>
	<g id="GLAP_00000049188092528150567010000011883044781911990960_" class="st2">
		<g id="P_00000148635096145336982210000005880191177156351873_">
			<ellipse class="st3" cx="951.5" cy="191.3" rx="99.9" ry="98.2"/>
			<g>
				<path class="st4" d="M842.8,191.3c0-48.5,33.1-89.3,78-100.9v-4.2H789.4V349h131.5v-56.8C876,280.6,842.8,239.8,842.8,191.3z"/>
			</g>
		</g>
		<polygon id="A_00000000204401770481440070000010439770188296487301_" class="st3" points="639.8,86.1 508.3,349 771.3,349 		"/>
		<polygon id="L_00000065056745939097908480000005679901178324791954_" class="st5" points="490.2,349 279.9,349 279.9,86.1 		"/>
		<g id="G_00000156579471709185027480000013742691594791157432_">
			<path class="st3" d="M135.5,349V222.8h126.2v4c0,67.5-54.7,122.2-122.2,122.2H135.5z"/>
			<path class="st5" d="M126.8,349h-4C55.3,349,0.6,294.3,0.6,226.8v-18.5c0-67.5,54.7-122.2,122.2-122.2h4V349z"/>
		</g>
	</g>
</g>
<g id="logo_A_00000098193993808665842240000011299963441090338210_">
	<g id="GLAPentertainment_00000044897961918615446720000002460162585174539665_">
		<path class="st6" d="M49.7,376.6h41.1v1.1c0,6-0.8,24.8-13.2,37c-9.3,9.3-20.7,11.8-31.8,11.8s-22.7-2.3-32.5-12.1
			C10.2,411.4,0,400.1,0,380c0-17.3,7.8-27.9,13.1-33.3c6.7-6.8,18-13.7,35.3-13.7c6.7,0,13.8,1.1,20.7,4.7
			c5.8,3,12.1,8.3,16.8,16.4l-15.2,8.2c-3.1-6-7.7-9.1-10.5-10.6c-3.8-1.9-8.5-2.8-12.6-2.8c-7.1,0-15.2,2.5-20.7,7.9
			c-5.1,5-9,13.5-9,23.6c0,11.9,5.1,19,8.9,22.7c4,3.9,10.3,7.6,19.9,7.6c5.9,0,12.6-1.6,17.6-5.4c3.5-2.7,7-7.2,8.4-13.7H49.6
			L49.7,376.6L49.7,376.6z"/>
		<path class="st6" d="M133.6,333.4l-0.2,78.2l40.6-0.2v15l-58,0.2l0.2-93.2H133.6z"/>
		<path class="st6" d="M256.2,406.8h-37.6l-8.2,19.6h-19.7l40.1-93.2H245l39,93.2h-19.6L256.2,406.8L256.2,406.8z M250.9,392
			l-13.3-33.5L224.4,392H250.9z"/>
		<path class="st6" d="M329.9,333c10.1,0,17,1.1,23.6,6.8c7.2,6.4,9.1,15.2,9.1,21.6c0,3.5-0.5,13.1-7.4,20c-5,5-12.4,7.9-22.7,7.9
			h-11.3v37h-17.4V333H329.9z M321.3,374.3h7.1c3.4,0,7.6,0,11.4-2.8c3.2-2.5,4.8-6.6,4.8-10.5c0-5-2.4-8.3-5-10.2
			c-3.6-2.5-8.2-2.8-12.4-2.8h-6L321.3,374.3L321.3,374.3z"/>
		<path class="st6" d="M419.3,414.8c-1.2,2.9-5.6,12.1-19.1,12.1c-6.3,0-11-1.8-14.9-5.5c-4.3-4-6.1-9.1-6.1-15.2
			c0-7.7,3.1-12.5,5.9-15.3c4.6-4.5,10-5.5,14.6-5.5c7.9,0,12.5,3.1,15.2,6.4c4.1,4.9,4.7,11,4.7,15.3v0.9h-29.1
			c0,2.3,0.6,4.9,1.9,6.6c1.2,1.6,3.6,3.7,7.8,3.7s7.3-2,9.1-5.1L419.3,414.8L419.3,414.8z M409.2,401c-0.9-5.3-5.2-7.8-9.3-7.8
			s-8.3,2.6-9.2,7.8H409.2L409.2,401z"/>
		<path class="st6" d="M438.1,388h11v5c2.1-2.9,5.8-6.3,12-6.3c3.4,0,8.5,1,11.5,4.8c2.7,3.3,3.1,7.2,3.1,11v24.4h-11v-21.2
			c0-2.2-0.1-5.6-2.1-7.6c-1.7-1.8-4-2-5.1-2c-2.9,0-5.1,1-6.7,3.4c-1.6,2.5-1.7,5.3-1.7,7.5v19.9h-11L438.1,388L438.1,388z"/>
		<path class="st6" d="M512.4,397.3v29.6h-11v-29.6H494V388h7.5v-13.3h11V388h7.5v9.4H512.4z"/>
		<path class="st6" d="M573.8,414.8c-1.2,2.9-5.6,12.1-19.1,12.1c-6.3,0-11-1.8-14.9-5.5c-4.3-4-6.1-9.1-6.1-15.2
			c0-7.7,3.2-12.5,5.9-15.3c4.6-4.5,10-5.5,14.7-5.5c7.9,0,12.5,3.1,15.2,6.4c4.1,4.9,4.7,11,4.7,15.3v0.9H545
			c0,2.3,0.6,4.9,1.9,6.6c1.2,1.6,3.6,3.7,7.8,3.7s7.3-2,9.1-5.1L573.8,414.8L573.8,414.8z M563.7,401c-0.9-5.3-5.2-7.8-9.3-7.8
			s-8.3,2.6-9.2,7.8H563.7L563.7,401z"/>
		<path class="st6" d="M591.7,388h11v5.8c1.7-3.3,4-4.9,4.8-5.4c1.7-1.1,3.9-1.7,6.5-1.7c1.9,0,3.4,0.5,4.7,0.9l-1.4,10.2
			c-1.4-1-2.9-1.4-5.1-1.4c-2.1,0-5.1,0.5-7.3,3.1c-2.1,2.6-2.2,5.9-2.2,8.6v18.7h-11L591.7,388L591.7,388z"/>
		<path class="st6" d="M708,386.7h11v38.9h-11v-5c-4,5.7-9.2,6.3-12,6.3c-12,0-19.9-9.4-19.9-20.8s7.8-20.7,19.3-20.7
			c3,0,8.8,0.5,12.5,6.3V386.7z M687.5,406.1c0,6.2,4.5,11,10.8,11s10.8-4.9,10.8-11s-4.5-11-10.8-11S687.5,399.9,687.5,406.1z"/>
		<path class="st6" d="M747.5,374.6c3.6,0,6.6,3,6.6,6.6s-3,6.6-6.6,6.6s-6.6-3-6.6-6.6S743.9,374.6,747.5,374.6z M753,395.3v31.6
			h-11v-31.6H753z"/>
		<path class="st6" d="M776.4,388h11v5c2.1-2.9,5.8-6.3,12-6.3c3.4,0,8.5,1,11.5,4.8c2.7,3.3,3.1,7.2,3.1,11v24.4h-11v-21.2
			c0-2.2-0.1-5.6-2.1-7.6c-1.7-1.8-4-2-5.1-2c-2.9,0-5.1,1-6.7,3.4c-1.6,2.5-1.7,5.3-1.7,7.5v19.9h-11L776.4,388L776.4,388z"/>
		<path class="st6" d="M832.8,388h11v4.4c4.1-5.2,9.3-5.7,11.6-5.7c8.2,0,11.3,5.1,12.3,7.1c1.9-3.1,5.8-7.1,12.5-7.1
			c6,0,9,2.8,10.5,4.8c2.5,3.3,2.7,6.6,2.7,11v24.4h-11v-21.2c0-4.6-1-6.6-1.8-7.6c-1.4-1.8-3.4-2-4.5-2c-3,0-4.8,1.4-6,3.4
			c-1.4,2.3-1.5,5.5-1.5,7.5v19.9h-11v-21.2c0-4.6-1-6.6-1.8-7.6c-1.4-1.8-3.4-2-4.5-2c-3,0-4.8,1.4-6,3.4c-1.4,2.3-1.5,5.5-1.5,7.5
			v19.9h-11L832.8,388L832.8,388z"/>
		<path class="st6" d="M952,414.8c-1.2,2.9-5.6,12.1-19.1,12.1c-6.3,0-11-1.8-14.9-5.5c-4.3-4-6.1-9.1-6.1-15.2
			c0-7.7,3.2-12.5,5.9-15.3c4.6-4.5,10-5.5,14.7-5.5c7.9,0,12.5,3.1,15.2,6.4c4.1,4.9,4.7,11,4.7,15.3v0.9h-29.1
			c0,2.3,0.6,4.9,1.9,6.6c1.2,1.6,3.6,3.7,7.8,3.7s7.3-2,9.1-5.1L952,414.8L952,414.8z M941.9,401c-0.9-5.3-5.2-7.8-9.3-7.8
			s-8.3,2.6-9.2,7.8H941.9L941.9,401z"/>
		<path class="st6" d="M970.2,388h11v5c2.1-2.9,5.8-6.3,12-6.3c3.4,0,8.5,1,11.5,4.8c2.7,3.3,3.1,7.2,3.1,11v24.4h-11v-21.2
			c0-2.2-0.1-5.6-2.1-7.6c-1.7-1.8-4-2-5.1-2c-2.9,0-5.1,1-6.7,3.4c-1.6,2.5-1.7,5.3-1.7,7.5v19.9h-11L970.2,388L970.2,388z"/>
		<path class="st6" d="M654.9,397.3v29.6h-11v-29.6h-7.5V388h7.5v-13.3h11V388h7.5v9.4H654.9z"/>
		<path class="st6" d="M1044.5,397.3v29.6h-11v-29.6h-7.5V388h7.5v-13.3h11V388h7.6v9.4H1044.5z"/>
	</g>
	<g id="GLAP_00000116941463527481782830000011263685624941021580_">
		<g id="P_00000050642105648751167760000000392786470471065235_">
			<ellipse class="st3" cx="951.5" cy="105.2" rx="99.9" ry="98.2"/>
			<path class="st4" d="M842.8,105.2c0-48.5,33.1-89.3,78-100.9V0H789.4v262.9h131.5v-56.8C876,194.5,842.8,153.7,842.8,105.2
				L842.8,105.2z"/>
		</g>
		<polygon id="A_00000129165179376354813040000006852039956752864433_" class="st3" points="639.8,0 508.3,262.9 771.3,262.9 		"/>
		<polygon id="L_00000004513331058275175570000013296013868981868930_" class="st5" points="490.2,262.9 279.9,262.9 279.9,0 		"/>
		<g id="G_00000039125247473247633080000009609656331203151515_">
			<path class="st3" d="M261.8,136.7v4c0,67.4-54.7,122.2-122.2,122.2h-4V136.7L261.8,136.7L261.8,136.7L261.8,136.7z"/>
			<path class="st5" d="M122.8,0h4v262.9h-4c-67.4,0-122.2-54.8-122.2-122.2v-18.6C0.6,54.8,55.3,0,122.8,0z"/>
		</g>
	</g>
</g>
<g id="logo_A_00000018955303927886033420000016890770111535165110_">
	<g id="GLAPentertainment_00000018958838238529196530000002010268805699994293_">
		<path class="st6" d="M49.7,376.6h41.1v1.1c0,6-0.8,24.8-13.2,37c-9.3,9.3-20.7,11.8-31.8,11.8s-22.7-2.3-32.5-12.1
			C10.2,411.4,0,400.1,0,380c0-17.3,7.8-27.9,13.1-33.3c6.7-6.8,18-13.7,35.3-13.7c6.7,0,13.8,1.1,20.7,4.7
			c5.8,3,12.1,8.3,16.8,16.4l-15.2,8.2c-3.1-6-7.7-9.1-10.5-10.6c-3.8-1.9-8.5-2.8-12.6-2.8c-7.1,0-15.2,2.5-20.7,7.9
			c-5.1,5-9,13.5-9,23.6c0,11.9,5.1,19,8.9,22.7c4,3.9,10.3,7.6,19.9,7.6c5.9,0,12.6-1.6,17.6-5.4c3.5-2.7,7-7.2,8.4-13.7H49.6
			L49.7,376.6L49.7,376.6z"/>
		<path class="st6" d="M133.6,333.4l-0.2,78.2l40.6-0.2v15l-58,0.2l0.2-93.2H133.6z"/>
		<path class="st6" d="M256.2,406.8h-37.6l-8.2,19.6h-19.7l40.1-93.2H245l39,93.2h-19.6L256.2,406.8L256.2,406.8z M250.9,392
			l-13.3-33.5L224.4,392H250.9z"/>
		<path class="st6" d="M329.9,333c10.1,0,17,1.1,23.6,6.8c7.2,6.4,9.1,15.2,9.1,21.6c0,3.5-0.5,13.1-7.4,20c-5,5-12.4,7.9-22.7,7.9
			h-11.3v37h-17.4V333H329.9z M321.3,374.3h7.1c3.4,0,7.6,0,11.4-2.8c3.2-2.5,4.8-6.6,4.8-10.5c0-5-2.4-8.3-5-10.2
			c-3.6-2.5-8.2-2.8-12.4-2.8h-6L321.3,374.3L321.3,374.3z"/>
		<path class="st6" d="M419.3,414.8c-1.2,2.9-5.6,12.1-19.1,12.1c-6.3,0-11-1.8-14.9-5.5c-4.3-4-6.1-9.1-6.1-15.2
			c0-7.7,3.1-12.5,5.9-15.3c4.6-4.5,10-5.5,14.6-5.5c7.9,0,12.5,3.1,15.2,6.4c4.1,4.9,4.7,11,4.7,15.3v0.9h-29.1
			c0,2.3,0.6,4.9,1.9,6.6c1.2,1.6,3.6,3.7,7.8,3.7s7.3-2,9.1-5.1L419.3,414.8L419.3,414.8z M409.2,401c-0.9-5.3-5.2-7.8-9.3-7.8
			s-8.3,2.6-9.2,7.8H409.2L409.2,401z"/>
		<path class="st6" d="M438.1,388h11v5c2.1-2.9,5.8-6.3,12-6.3c3.4,0,8.5,1,11.5,4.8c2.7,3.3,3.1,7.2,3.1,11v24.4h-11v-21.2
			c0-2.2-0.1-5.6-2.1-7.6c-1.7-1.8-4-2-5.1-2c-2.9,0-5.1,1-6.7,3.4c-1.6,2.5-1.7,5.3-1.7,7.5v19.9h-11L438.1,388L438.1,388z"/>
		<path class="st6" d="M512.4,397.3v29.6h-11v-29.6H494V388h7.5v-13.3h11V388h7.5v9.4H512.4z"/>
		<path class="st6" d="M573.8,414.8c-1.2,2.9-5.6,12.1-19.1,12.1c-6.3,0-11-1.8-14.9-5.5c-4.3-4-6.1-9.1-6.1-15.2
			c0-7.7,3.2-12.5,5.9-15.3c4.6-4.5,10-5.5,14.7-5.5c7.9,0,12.5,3.1,15.2,6.4c4.1,4.9,4.7,11,4.7,15.3v0.9H545
			c0,2.3,0.6,4.9,1.9,6.6c1.2,1.6,3.6,3.7,7.8,3.7s7.3-2,9.1-5.1L573.8,414.8L573.8,414.8z M563.7,401c-0.9-5.3-5.2-7.8-9.3-7.8
			s-8.3,2.6-9.2,7.8H563.7L563.7,401z"/>
		<path class="st6" d="M591.7,388h11v5.8c1.7-3.3,4-4.9,4.8-5.4c1.7-1.1,3.9-1.7,6.5-1.7c1.9,0,3.4,0.5,4.7,0.9l-1.4,10.2
			c-1.4-1-2.9-1.4-5.1-1.4c-2.1,0-5.1,0.5-7.3,3.1c-2.1,2.6-2.2,5.9-2.2,8.6v18.7h-11L591.7,388L591.7,388z"/>
		<path class="st6" d="M708,386.7h11v38.9h-11v-5c-4,5.7-9.2,6.3-12,6.3c-12,0-19.9-9.4-19.9-20.8s7.8-20.7,19.3-20.7
			c3,0,8.8,0.5,12.5,6.3V386.7z M687.5,406.1c0,6.2,4.5,11,10.8,11s10.8-4.9,10.8-11s-4.5-11-10.8-11S687.5,399.9,687.5,406.1z"/>
		<path class="st6" d="M747.5,374.6c3.6,0,6.6,3,6.6,6.6s-3,6.6-6.6,6.6s-6.6-3-6.6-6.6S743.9,374.6,747.5,374.6z M753,395.3v31.6
			h-11v-31.6H753z"/>
		<path class="st6" d="M776.4,388h11v5c2.1-2.9,5.8-6.3,12-6.3c3.4,0,8.5,1,11.5,4.8c2.7,3.3,3.1,7.2,3.1,11v24.4h-11v-21.2
			c0-2.2-0.1-5.6-2.1-7.6c-1.7-1.8-4-2-5.1-2c-2.9,0-5.1,1-6.7,3.4c-1.6,2.5-1.7,5.3-1.7,7.5v19.9h-11L776.4,388L776.4,388z"/>
		<path class="st6" d="M832.8,388h11v4.4c4.1-5.2,9.3-5.7,11.6-5.7c8.2,0,11.3,5.1,12.3,7.1c1.9-3.1,5.8-7.1,12.5-7.1
			c6,0,9,2.8,10.5,4.8c2.5,3.3,2.7,6.6,2.7,11v24.4h-11v-21.2c0-4.6-1-6.6-1.8-7.6c-1.4-1.8-3.4-2-4.5-2c-3,0-4.8,1.4-6,3.4
			c-1.4,2.3-1.5,5.5-1.5,7.5v19.9h-11v-21.2c0-4.6-1-6.6-1.8-7.6c-1.4-1.8-3.4-2-4.5-2c-3,0-4.8,1.4-6,3.4c-1.4,2.3-1.5,5.5-1.5,7.5
			v19.9h-11L832.8,388L832.8,388z"/>
		<path class="st6" d="M952,414.8c-1.2,2.9-5.6,12.1-19.1,12.1c-6.3,0-11-1.8-14.9-5.5c-4.3-4-6.1-9.1-6.1-15.2
			c0-7.7,3.2-12.5,5.9-15.3c4.6-4.5,10-5.5,14.7-5.5c7.9,0,12.5,3.1,15.2,6.4c4.1,4.9,4.7,11,4.7,15.3v0.9h-29.1
			c0,2.3,0.6,4.9,1.9,6.6c1.2,1.6,3.6,3.7,7.8,3.7s7.3-2,9.1-5.1L952,414.8L952,414.8z M941.9,401c-0.9-5.3-5.2-7.8-9.3-7.8
			s-8.3,2.6-9.2,7.8H941.9L941.9,401z"/>
		<path class="st6" d="M970.2,388h11v5c2.1-2.9,5.8-6.3,12-6.3c3.4,0,8.5,1,11.5,4.8c2.7,3.3,3.1,7.2,3.1,11v24.4h-11v-21.2
			c0-2.2-0.1-5.6-2.1-7.6c-1.7-1.8-4-2-5.1-2c-2.9,0-5.1,1-6.7,3.4c-1.6,2.5-1.7,5.3-1.7,7.5v19.9h-11L970.2,388L970.2,388z"/>
		<path class="st6" d="M654.9,397.3v29.6h-11v-29.6h-7.5V388h7.5v-13.3h11V388h7.5v9.4H654.9z"/>
		<path class="st6" d="M1044.5,397.3v29.6h-11v-29.6h-7.5V388h7.5v-13.3h11V388h7.6v9.4H1044.5z"/>
	</g>
	<g id="GLAP_00000044166337905800404070000014514775441632425366_">
		<g id="P_00000141438167618878736780000012068447455624421292_">
			<ellipse class="st3" cx="951.5" cy="105.2" rx="99.9" ry="98.2"/>
			<path class="st4" d="M842.8,105.2c0-48.5,33.1-89.3,78-100.9V0H789.4v262.9h131.5v-56.8C876,194.5,842.8,153.7,842.8,105.2
				L842.8,105.2z"/>
		</g>
		<polygon id="A_00000080910301252834203020000018379920747189059507_" class="st3" points="639.8,0 508.3,262.9 771.3,262.9 		"/>
		<polygon id="L_00000088112956744788494250000007462219633743242665_" class="st5" points="490.2,262.9 279.9,262.9 279.9,0 		"/>
		<g id="G_00000088111374486548018370000011053880124781277341_">
			<path class="st3" d="M261.8,136.7v4c0,67.4-54.7,122.2-122.2,122.2h-4V136.7L261.8,136.7L261.8,136.7L261.8,136.7z"/>
			<path class="st5" d="M122.8,0h4v262.9h-4c-67.4,0-122.2-54.8-122.2-122.2v-18.6C0.6,54.8,55.3,0,122.8,0z"/>
		</g>
	</g>
</g>
</svg>
