<svg xmlns="http://www.w3.org/2000/svg" width="1138.787" height="468.13" viewBox="0 0 1138.787 468.13">
  <g id="glap_copy" transform="translate(969.857 101.611)">
    <path id="パス_16" data-name="パス 16" d="M-227.65,547.878c2.456.246,4.648.622,6.841.653,8.42.13,16.844.125,25.264.224a38.456,38.456,0,0,1,6.013.389c3.445.586,4.966,2.635,3.839,5.9a28.955,28.955,0,0,1-4.268,7.758c-5.006,6.675-10.545,12.965-15.341,19.784-6.957,9.9-13.064,20.356-17.287,31.738-1.4,3.776-1.9,7.923-2.483,11.95a9.556,9.556,0,0,0,.935,4.528,5.092,5.092,0,0,0,6.089,3.391,18.54,18.54,0,0,0,6.335-2.59c16.545-11.467,31.161-24.991,42.869-41.446,3.834-5.391,6.769-11.431,10.706-16.737,7.449-10.031,16.16-18.781,27.922-23.806,4.255-1.816,8.621-3.369,13.39-3.078a17.182,17.182,0,0,1,9.7,3.61,12.528,12.528,0,0,1,4.188,13.3,5.354,5.354,0,0,1-1.816,2.425c-1.186.908-2.523.291-2.917-1.168a3.092,3.092,0,0,1-.081-1.11c.644-5.736-2.828-8.657-9.037-6.639a32.487,32.487,0,0,0-10.277,5.686c-15.788,12.93-27.291,28.87-32.709,48.77-1.288,4.729-2.138,9.592-1.029,14.589,2.085,9.391,8.872,13.381,18.075,10.438a33.635,33.635,0,0,0,13.422-8.25c4.009-3.968,7.592-8.371,11.337-12.6a3.434,3.434,0,0,0,.582-3.709c-1.776-5.44.658-9.221,6.205-10.1a2.88,2.88,0,0,0,1.875-1.266c2.564-5.006,4.716-10.214,4.993-15.887a25.375,25.375,0,0,0-1.092-8.107c-1.324-4.6-.358-7.677,3.3-8.836,4.21-1.333,7.847.747,9.091,5.212,1.4,4.993.7,9.932-.591,14.8-2.206,8.317-6.407,15.721-11.028,22.875a6.248,6.248,0,0,0-.4,6.908,6.653,6.653,0,0,0,6.174,3.709c4.85.085,8.787-2.161,12.433-4.948,7.1-5.418,12.822-12.2,18.688-18.871,5.145-5.856,8.1-13.015,12.366-19.372,3.731-5.565,7.655-11.01,11.556-16.459a8.018,8.018,0,0,1,6.648-3.579,98.928,98.928,0,0,1,10.688.255,5.548,5.548,0,0,1,3.754,2.237c.93,1.544-.568,2.886-1.722,3.964A124.709,124.709,0,0,0-48.7,594.939c-4.223,7.583-7.659,15.52-8.715,24.262a20.91,20.91,0,0,0-.1,4.232c.626,7.646,5.306,11.153,12.558,8.6a54.009,54.009,0,0,0,13.109-7.029c10.035-7.136,17.234-17.023,24.7-26.615C4.117,583.929,13.382,568.2,22.218,552.2c.613-1.109,1.4-2.138,1.9-3.293.984-2.277,2.666-2.886,4.885-2.224a91.689,91.689,0,0,1,9.547,3.087c3.458,1.467,3.789,3.351,1.951,6.59-6.371,11.212-12.818,22.378-18.965,33.711-4.926,9.082-7.453,19.01-8.715,29.206a25.312,25.312,0,0,0,.743,9.037c1.235,4.962,5.27,7.127,10.16,5.749a17.5,17.5,0,0,0,5.234-2.42C49.406,617.313,67.168,600.41,78.9,578a95.076,95.076,0,0,0,5.324-13.677A38.792,38.792,0,0,1,91.3,551.73c6.129-7.328,13.766-12.742,22.1-17.216,9.6-5.154,19.69-8.939,30.646-9.905,5.615-.5,11.176-.246,16.513,1.883,7.351,2.93,10.035,8.8,7.342,16.187a23.972,23.972,0,0,1-9.538,12.071c-1.092.725-2.241,1.481-3.409.291-1.271-1.293-.371-2.474.452-3.566a21.514,21.514,0,0,0,1.821-2.259,33.529,33.529,0,0,0,3.284-6.541c1.722-5.91-.711-8.688-6.881-8.254-7.771.55-14.97,3.266-22.137,6.022-13.583,5.221-25.193,13.091-33.832,25.054-6.89,9.543-5.682,15.735,4.474,21.542,6.988,4,14.017,7.919,20.92,12.053a28.516,28.516,0,0,1,5.673,4.68c4.886,5.06,5.812,10.7,2.751,17.059-4.1,8.518-10.711,14.777-18.5,19.9-8.38,5.512-17.632,8.934-27.246,11.61-5.364,1.494-10.724,2.711-16.285,2.116a17.513,17.513,0,0,1-6.518-1.928c-3.351-1.861-4.1-4.908-2.626-8.456a17.834,17.834,0,0,1,6.809-8.662c3.467-2.17,7.073-4.12,10.711-6,.644-.336,1.718.156,2.595.268a7.556,7.556,0,0,1-1.266,2.268c-1.356,1.154-2.993,1.973-4.344,3.132a22.184,22.184,0,0,0-3.678,3.879c-1.472,2.076-2.9,4.371-1.409,7.02,1.427,2.528,4.062,2.944,6.478,2.447a47,47,0,0,0,10.827-3.257c10.25-4.881,19.175-11.6,25.421-21.238a52.362,52.362,0,0,0,5.212-11.529c1.414-4.138.447-8.16-3.118-10.885a111.082,111.082,0,0,0-12.388-8.317c-6.259-3.57-12.482-7.055-16.464-13.377-.148-.233-.443-.367-.922-.743-.479.725-.94,1.346-1.315,2.018a176.63,176.63,0,0,1-42,49.813c-6.774,5.606-14.209,9.856-22.983,11.368-5.015.864-9.874.362-14.12-2.689-4.868-3.5-6.733-8.581-6.876-14.375-.228-9.257,1.543-18.24,3.9-27.134.286-1.083.483-2.192.725-3.288-.228-.107-.456-.215-.689-.322-.747,1.136-1.49,2.277-2.25,3.409-5.243,7.789-10.156,15.824-15.855,23.264a62.909,62.909,0,0,1-12.42,12.124c-10.961,8.107-21.153,7.6-33.375-1.06-4.264-3.02-5.686-7.8-5.95-12.764a92.536,92.536,0,0,1,.515-10.236c.049-.854.125-1.7.188-2.559-.179-.1-.358-.2-.532-.3-.72.756-1.476,1.481-2.147,2.277-4.836,5.709-9.946,11.118-16.316,15.171a24.982,24.982,0,0,1-10.7,4.268c-5.378.6-9.9-.966-13.27-5.266-1.159-1.476-1.83-1.682-3.226-.2-4.639,4.935-9.109,10.089-14.983,13.677-8.067,4.926-16.607,7.771-26.186,5.807-11.145-2.286-18.442-10.693-19.05-22.106-.192-3.561.067-7.149.112-10.728a5.664,5.664,0,0,0-.488-2.666c-.886.926-1.812,1.821-2.649,2.787a168.635,168.635,0,0,1-26.342,24.776c-6.684,5-14.039,8.331-22.522,9-11.722.926-16.2-6.308-17.019-15.372-.886-9.789,2.787-18.267,7.65-26.383,4.939-8.241,11.377-15.287,17.851-22.311,2.371-2.573,4.568-5.306,6.8-8.008a12.386,12.386,0,0,0,1.387-2.3c2.689-5.27,1.512-9.328-4.129-10.912-5.682-1.6-11.672-2.174-17.565-2.877-1-.121-2.532,1.15-3.257,2.17-7.373,10.4-14.585,20.911-21.927,31.335a220.722,220.722,0,0,1-21.77,26.924,48.418,48.418,0,0,1-15.059,11.046c-6.371,2.814-14.223,2.644-19.22-3.874-1.257-1.642-2.107-.926-3.163.215-5.217,5.646-10.455,11.292-17.377,14.952-8.684,4.595-17.685,6.689-27.336,3.257-8.25-2.93-13.037-8.845-14.862-17.292a35.144,35.144,0,0,1-.264-15.31,18.774,18.774,0,0,0,.139-2.407,28.125,28.125,0,0,0-2.2,2.009,177.388,177.388,0,0,1-26.629,25.452A44.524,44.524,0,0,1-424.5,642.34c-11.449,1.772-19.913-5.069-20.294-16.643-.394-12.129,2.474-23.667,7.028-34.816,1.691-4.138,3.615-8.178,5.418-12.272.25-.573.407-1.19.81-2.407-1.409.609-2.273.931-3.087,1.342-11.3,5.7-20.312,14.29-29.116,23.126-3.628,3.642-7.127,7.422-10.63,11.185a26.55,26.55,0,0,0-2.411,3.2,13.759,13.759,0,0,1-9.668,6.223c-3.964.577-6.2-1.526-5.355-5.413a36.037,36.037,0,0,1,2.908-7.708c5.127-10.769,10.37-21.479,15.542-32.23a26.531,26.531,0,0,0,2.089-5.159c.286-1.19.313-3.15-.38-3.691a4.378,4.378,0,0,0-3.874-.139,75.184,75.184,0,0,0-9.749,5.821c-9.427,6.778-16.818,15.6-23.832,24.705q-13.583,17.629-26.839,35.5c-4.631,6.223-11.4,8.344-18.37,10.093-2.595.649-3.172-.219-2.291-2.72q7.832-22.253,15.663-44.511c.555-1.584.98-3.217,1.468-4.827-.21-.134-.421-.264-.635-.4-.644.787-1.342,1.539-1.928,2.362a184.236,184.236,0,0,1-39.831,41.424,41.584,41.584,0,0,1-17.891,7.771c-12.67,2.246-21.52-4.957-21.537-17.851a89.752,89.752,0,0,1,3.713-24.016c.425-1.539.859-3.078,1.288-4.617l-.658-.416c-.7.644-1.459,1.239-2.107,1.937-7.731,8.277-15.225,16.795-23.238,24.79a66.938,66.938,0,0,1-23.456,15.632c-12.867,4.921-28.15-5.333-30.87-16.151-.533-2.112-.747-4.3-1.19-6.926-.935.864-1.508,1.4-2.089,1.933-6.223,5.668-12.344,11.462-18.705,16.974-8.348,7.234-17.972,10.456-29.036,8.134-5.472-1.15-10.035-3.767-12.8-8.881a2.68,2.68,0,0,0-3.279-1.548c-7.619,1.485-14.929,3.6-20.8,9.109a2.921,2.921,0,0,1-2.411.313c-4.067-1.213-8.08-2.591-12.133-3.857-1.069-.335-1.351-.738-1.038-1.928q6.8-25.83,13.484-51.7c.506-1.942.872-3.919,1.275-5.883.036-.166-.161-.376-.371-.823a16.614,16.614,0,0,0-1.5,1.311,385.3,385.3,0,0,1-39.021,38.413c-13.976,11.744-28.664,22.54-45.934,28.991-18.714,6.993-37.822,8.4-56.895,1.436-17.927-6.545-29.76-19.283-36.1-37.218-5.172-14.63-5.512-29.671-3.682-44.842a150.44,150.44,0,0,1,16.737-53.7,180.838,180.838,0,0,1,42.668-52.98,156.8,156.8,0,0,1,67.672-34.02c14.813-3.342,29.886-4.97,45.088-3.548,10.326.966,20.267,3.467,29.058,9.413,9.323,6.3,11.892,16.728,10.1,26.347a5.746,5.746,0,0,1-.863,2.04c-1.615,2.461-3.946,2.376-5.069-.367a21.293,21.293,0,0,1-1.132-5.655c-.774-6.8-3.324-12.661-8.85-16.961-4.035-3.141-8.738-4.747-13.663-5.825-8.2-1.79-16.294-1.011-24.378.832-14.6,3.324-28.141,9.315-41.245,16.361a266.451,266.451,0,0,0-72.312,56.38c-13.386,14.84-24.49,31.215-31.232,50.2-5.454,15.363-7.132,31.125-3.078,47.07,4.026,15.842,14.513,25.644,30.056,30.141,10.2,2.948,20.589,3.033,31.045,1.709a149.512,149.512,0,0,0,58.657-19.882,145.813,145.813,0,0,0,31.344-25.779c8.979-9.561,17.654-19.4,26.36-29.219a16.114,16.114,0,0,0,2.447-4.715c2.112-5.212,4.564-10.209,8.313-14.473,6.062-6.894,13.69-10.527,22.871-10.312a82.585,82.585,0,0,1,13.068,1.575c1.378.255,2.523,1.749,3.928,2.792.228-.4.595-1.02.93-1.655,7.628-14.361,15.386-28.66,25.112-41.742,7.029-9.453,14.169-18.871,23.873-25.868,6.765-4.881,14.263-7.9,22.7-7.624,6.308.206,11.959,2.233,15.041,8.353a16.818,16.818,0,0,1,.063,14.768,150.834,150.834,0,0,1-9.5,17.927c-18.146,29.237-40.994,54.523-66.169,77.788-7.825,7.23-15.963,14.129-23.927,21.215a7.733,7.733,0,0,0-2.224,2.725c-3.382,8.854-5.087,17.922-2.989,27.38a16.515,16.515,0,0,0,1.034,3.181c2.666,5.919,7.221,8.075,13.319,5.767a47.307,47.307,0,0,0,9.811-5.257,170.621,170.621,0,0,0,29.514-26.248c2.4-2.626,4.2-5.785,6.371-8.626,9.784-12.8,22.285-22.522,35.657-31.228,8.143-5.3,16.6-10.057,25.864-13.117,7.95-2.626,16.106-3.83,24.454-2.036,4.362.94,8.527,2.362,11.511,5.928,1.785,2.13,3.141,4.483,1.919,7.874a28.29,28.29,0,0,1-2.259-1.866,14.425,14.425,0,0,0-9.145-4.188c-8.9-1.024-17.211,1.1-25.188,4.725-23.094,10.514-41.308,26.5-53.624,48.806-2.228,4.036-3.507,8.675-4.675,13.18a14.2,14.2,0,0,0,.483,6.8c1.02,3.892,3.414,5.2,7.284,4.223a28.4,28.4,0,0,0,5.825-2.21c7.378-3.767,13.413-9.351,19.73-14.59,14.348-11.9,26.49-25.98,39.308-39.4,2.881-3.015,5.968-5.838,8.939-8.769a5.127,5.127,0,0,1,5.324-1.463,53.376,53.376,0,0,1,7.382,2.483c2.684,1.253,3.047,3.212,1.4,5.686a116.269,116.269,0,0,0-15.86,35.339,44.01,44.01,0,0,0-1.508,15.5c.779,7.762,6.662,11.288,13.306,7.261A124.325,124.325,0,0,0-574.02,619.59a186.708,186.708,0,0,0,20.477-20.567c8.4-10.232,16.5-20.822,22.329-32.847a45.449,45.449,0,0,0,2.174-7.015,10.847,10.847,0,0,1,16.8-5.771c1.839,1.3,1.714,3.056,1.015,4.8-1.772,4.429-3.749,8.778-5.462,13.229-5.145,13.355-10.21,26.745-15.3,40.122a1.373,1.373,0,0,0,.09,1.127c.814-.854,1.673-1.669,2.434-2.568a509.686,509.686,0,0,1,43.223-45.567c5.767-5.32,11.65-10.554,18.974-13.628a26.426,26.426,0,0,1,8.814-2.018c3.852-.179,6.174,1.942,6.277,5.785a25.224,25.224,0,0,1-1.36,9.838c-3.3,8.223-7.185,16.213-10.845,24.289-.814,1.8-1.669,3.575-2.5,5.364l.492.385c1.007-.814,2.031-1.6,3.011-2.443,9.565-8.25,19.35-16.2,30.512-22.244A47.241,47.241,0,0,1-414.2,564.06c1.781-.148,4.246.094,5.324,1.2,1.606,1.651,0,3.785-1.083,5.458a139.416,139.416,0,0,0-17.6,39.715c-1.145,4.2-1.369,8.644-2,12.979a4.982,4.982,0,0,0,.04,1.338c1.19,9.14,7.069,12.156,14.4,7.923a109.472,109.472,0,0,0,22.168-17.292c6.975-6.912,13.529-14.263,20.1-21.573a36.935,36.935,0,0,0,4.5-6.917c7.521-13.56,16.947-25.461,30.181-33.859,5.95-3.776,12.406-6.657,19.7-6.438a15.435,15.435,0,0,1,12.124,5.776,12.16,12.16,0,0,1,2.143,10.8,4.848,4.848,0,0,1-1.866,2.608c-1.584,1.1-2.886.3-3.024-1.629-.546-7.53-4.523-10-11.328-6.389a60.066,60.066,0,0,0-12.791,8.876c-13.44,12.54-23.39,27.4-28.226,45.347a34.248,34.248,0,0,0-.756,14.42c1.087,6.8,6.044,10.894,12.907,10.858,4.514-.027,8.416-1.825,12.111-4.147,7.449-4.68,13.265-11.037,18.236-18.2.429-.617.2-1.727.2-2.6.013-2.13-.38-4.34.067-6.371a5.016,5.016,0,0,1,5.279-4,2.882,2.882,0,0,0,3.051-2.085c1.548-4.425,3.23-8.814,4.5-13.314.975-3.463.2-6.948-1-10.312-1.5-4.2-.479-7.109,2.895-8.366a6.838,6.838,0,0,1,9.234,4.17,21.622,21.622,0,0,1,.465,12.567,69.917,69.917,0,0,1-11.977,26.043c-2.805,3.8.492,10.2,4.921,10.5a16.493,16.493,0,0,0,9.61-2.362c7.279-4.228,13.006-10.241,18.33-16.571a248.121,248.121,0,0,0,30.624-45.039c.828-1.593.7-2.259-1.007-2.971-4.264-1.781-5.27-4.536-3.36-8.818,2.38-5.333,6.152-9.646,10.205-13.753a50.863,50.863,0,0,1,19.323-12.585c1.414-.5,3.1-.215,4.666-.291-.143,1.485.139,3.2-.51,4.42-2.68,5.064-5.61,10-8.509,14.943-1.584,2.7-3.288,5.328-4.921,8C-227.108,546.522-227.265,547.005-227.65,547.878ZM-739.5,582.917a3.631,3.631,0,0,0,.993-.121,13.1,13.1,0,0,0,1.288-.881c10.661-7.888,19.878-17.323,28.781-27.072a359.469,359.469,0,0,0,32.745-41.33c7.243-10.737,13.789-21.945,20.522-33.022a22.743,22.743,0,0,0,3.624-10.7c.246-4.89-2.107-7.248-6.814-5.91a26.593,26.593,0,0,0-8.438,4.362c-10.348,7.749-18.8,17.386-26.521,27.671-11.775,15.681-21.193,32.776-29.917,50.273-5.615,11.265-11.82,22.267-15.632,34.355C-739.1,581.276-739.264,582.023-739.5,582.917Zm7.221-49.361c-1.731.479-2.868,1.074-3.991,1.051-6.711-.134-11.4,3.391-15.328,8.286-5.735,7.149-9.409,15.381-12.03,24.061-6.008,19.9-11.842,39.858-17.73,59.8a14.718,14.718,0,0,0-.286,2.308,20.294,20.294,0,0,0,2.036-.246c5.006-1.15,10.021-2.25,14.983-3.557a2.98,2.98,0,0,0,1.566-2.156c.228-1.758-.063-3.575.054-5.351.7-10.447,3.794-20.325,7.252-30.109a441.872,441.872,0,0,1,21.989-50.627C-733.273,536.049-732.9,535.024-732.28,533.557Z" transform="translate(0 -288.09)"/>
    <path id="パス_17" data-name="パス 17" d="M-531.513,51.026c-.895.944-1.812,1.87-2.68,2.841-8.429,9.413-17.417,18.258-27.9,25.363-7.118,4.823-14.988,7.7-23.841,6.523-6.76-.895-10.952-4.935-12.7-11.3a30.7,30.7,0,0,1-.931-9.5,98.186,98.186,0,0,1,4.277-23.484,18.185,18.185,0,0,0,.4-2.434l-.559-.277c-.7.693-1.449,1.356-2.107,2.089-8.823,9.905-17.3,20.15-27.51,28.723-6.084,5.109-12.558,9.48-20.262,11.986-11.923,3.874-26.714-5.257-29.72-16.634a33.249,33.249,0,0,1-.5-3.982c-.1-.761-.282-1.512-.523-2.787-1.02.89-1.655,1.441-2.286,2-7.306,6.465-14.41,13.176-21.967,19.332-7.158,5.83-15.7,7.243-24.727,5.906-9.158-1.356-15.279-7.4-16.026-16.88-.416-5.279.5-10.661.823-15.994.054-.9.174-1.794.264-2.693-.179-.081-.358-.166-.537-.246-.523.465-1.074.9-1.561,1.4a151.055,151.055,0,0,1-77.569,42.8,123.42,123.42,0,0,1-33.085,3.042c-11.127-.635-21.891-2.81-31.541-8.809-13.493-8.384-20-20.9-21.1-36.418-1.28-18.061,3.637-34.9,11.046-51.056a192.827,192.827,0,0,1,52.55-68.156c15.359-12.827,32.194-23.135,51.714-28.485,12.478-3.423,25.094-4.568,37.813-1.655,9.682,2.219,16.907,7.579,19.47,17.623,1.781,6.966.448,13.748-2.474,20.262-4.716,10.509-12.115,18.938-20.71,26.347A155.334,155.334,0,0,1-811.6-2.424C-815.982-1.06-820.617-.482-825.14.417a4.178,4.178,0,0,1-2.21.04c-1.378-.555-3.49-1.136-3.762-2.125-.367-1.351.215-3.767,1.257-4.523a15.621,15.621,0,0,1,7.019-2.939,102.6,102.6,0,0,0,32.047-8.594c20.58-9.632,36.028-24.4,44.94-45.553a29.642,29.642,0,0,0,2.264-15.542,13.972,13.972,0,0,0-11.878-12.254c-8.483-1.445-16.464.626-24.231,3.7-19.135,7.556-35.55,19.35-50.7,33.022-20.808,18.777-37.975,40.377-50.094,65.766-5.709,11.963-10.317,24.374-11.529,37.67-1.23,13.471,2.416,25.166,14.379,33.013a43.529,43.529,0,0,0,19.3,6.6,112.879,112.879,0,0,0,32.745-1.136,155.119,155.119,0,0,0,63.682-26.517c9.145-6.541,17.529-13.968,24.262-22.978,2.34-3.127,3.579-7.149,4.97-10.9A469.5,469.5,0,0,1-707.271-28.8c6.621-12.531,13.529-24.911,21.77-36.462,5.932-8.317,12.178-16.4,19.649-23.448,5.5-5.194,11.677-9.373,18.952-11.489,5.861-1.7,11.914-2.224,17.717.47,6.657,3.087,9.789,9.2,8.617,16.486a39.7,39.7,0,0,1-5.176,13.735C-639.75-45.481-656.782-23.774-676-3.722a611.223,611.223,0,0,1-45.289,42.234,8,8,0,0,0-2.407,2.859c-3.45,8.84-5.038,17.923-3.011,27.38.076.362.166.729.269,1.087,2.215,7.682,7.5,10.59,14.885,7.579a56.69,56.69,0,0,0,10.988-6.362,172.959,172.959,0,0,0,27.076-24.32c2.765-2.989,4.818-6.626,7.333-9.856,8.711-11.185,19.564-20.007,31.192-27.94,9.145-6.237,18.647-11.865,29.152-15.484,8.711-3,17.641-4.429,26.8-1.906,3.727,1.025,7.36,2.362,9.726,5.543a17.614,17.614,0,0,1,2.429,5.825c.268.98-.582,2.2-1.732,1.074-7.838-7.668-17.13-5.941-26.083-3.53-14.742,3.977-27.255,12.294-38.744,22.1a104.864,104.864,0,0,0-25.17,31.953,35.567,35.567,0,0,0-3.44,10.1,21,21,0,0,0,.586,8.536c.814,3.168,3.19,4.228,6.452,3.682a27.075,27.075,0,0,0,12.169-5.9c7.378-5.794,14.871-11.534,21.591-18.048C-609.994,42-599.346,30.5-588.417,19.306c2.6-2.666,5.355-5.185,8.044-7.762a4.715,4.715,0,0,1,4.733-1.3,49.694,49.694,0,0,1,7.431,2.3c3.051,1.391,3.378,3.293,1.53,6.134-7.923,12.182-13.865,25.228-16.553,39.563A40.809,40.809,0,0,0-583.652,70c.778,7.185,6.68,10.442,12.782,6.653A168.438,168.438,0,0,0-551.1,62.121a142.749,142.749,0,0,0,25.94-27.962c2.018-2.944,3.226-6.51,4.442-9.923,3.785-10.608,7.261-21.314,9.216-32.449.13-.734.242-1.472.313-2.215.34-3.655,1.119-4.774,4.809-5.167a36.048,36.048,0,0,1,9.1.139c4.331.658,6.527,3.691,5.445,7.905A38.242,38.242,0,0,1-496.187,3.11c-6.393,10.241-11.127,21.251-15.86,32.279-.367.85-.586,1.763-.872,2.644.183.107.367.21.55.318.8-1.02,1.62-2.031,2.4-3.065,4.993-6.59,9.672-13.449,15.05-19.708,6.456-7.516,14.12-13.7,23.425-17.542A31.729,31.729,0,0,1-442.845-.3c5.44,2.989,8.2,7.646,8.4,14.021.4,12.527-5.149,22.647-12.7,31.877-17.319,21.171-39.863,33.76-66.424,39.227-4.787.984-9.954.6-14.889.192-2.434-.2-3.329.412-4.053,2.447-3.66,10.25-7.436,20.455-11.077,30.713-2.071,5.829-4.058,11.695-5.879,17.609a28.2,28.2,0,0,0-1.7,8.514c.152,8.617-3,16.357-5.794,24.2a56.328,56.328,0,0,1-3.848,8.791,11.32,11.32,0,0,1-4.264,4.63,104.647,104.647,0,0,1-12.621,4.908c-1.848.626-4.3.783-5.275-1.114-.667-1.293-.318-3.512.313-5.011,3.816-9.069,8.1-17.949,11.758-27.076,10.8-26.915,21.381-53.915,32.024-80.893,2.461-6.241,4.823-12.522,7.212-18.795.309-.81.523-1.651.778-2.479Q-531.2,51.247-531.513,51.026Zm3.485,28.136a21.749,21.749,0,0,0,2.461.143,47.354,47.354,0,0,0,16.393-4.134,121.672,121.672,0,0,0,52.967-45.218c4.277-6.518,7.069-13.623,6.487-21.672-.326-4.5-3.239-7.48-7.717-7.207a23.51,23.51,0,0,0-8.192,1.879c-17.417,7.95-30.977,20.361-41.482,36.292-7.865,11.927-13.811,24.866-20.177,37.585A17.8,17.8,0,0,0-528.028,79.162ZM-718.039,27.005a17.846,17.846,0,0,0,2-1.159c4.353-3.619,8.876-7.06,13-10.925,17.081-16.021,31.908-34.006,45.58-52.971,9.077-12.59,17.708-25.47,24.633-39.393a30.772,30.772,0,0,0,2.94-9.069c.7-4.76-2.394-7.507-6.935-5.991a32.468,32.468,0,0,0-9.471,5.23c-11.793,9.225-21.251,20.629-29.787,32.839-10.29,14.7-18.665,30.494-26.691,46.5-5.243,10.464-10.791,20.777-14.46,31.948C-717.5,24.818-717.677,25.65-718.039,27.005Z" transform="translate(-35.519 0)"/>
    <path id="パス_18" data-name="パス 18" d="M162.491,446.344c-3.865-.192-6.416-2.063-8.653-5.024q-15.683-20.783-31.648-41.357c-3.382-4.335-7.319-8.245-11.037-12.317-1.87-2.045-2.224-2.094-4.071-.1-11.659,12.563-23.452,25-34.838,37.8C64.821,433.7,58.02,442.595,50.929,451.23c-1.96,2.389-4.08,4.711-7.31,5.163-1.333.183-3.306-.009-4.031-.855a4.413,4.413,0,0,1-.183-4.076,100.6,100.6,0,0,1,7.588-11.556c10.921-14,23.045-26.96,35.313-39.773q9.2-9.61,18.611-19.019c1.485-1.49,1.566-2.456,0-3.991a525.9,525.9,0,0,0-47.687-41.531c-1.3-1-2.608-2-3.8-3.123-2.009-1.888-1.892-4.058.371-5.655a8.418,8.418,0,0,1,9.91-.165,122.3,122.3,0,0,1,15.431,11.382c11.332,10.348,22.3,21.095,33.335,31.765,1.445,1.4,2.241,1.552,3.763.076q22.549-21.864,45.272-43.554a112.5,112.5,0,0,1,9.914-7.99,8.118,8.118,0,0,1,8.854-.935c4.282,2,4.756,5.543,1.047,8.5-6.644,5.3-13.52,10.317-19.936,15.873-13.068,11.315-25.873,22.929-38.838,34.364-1.807,1.593-1.092,2.631.2,4.009,10.031,10.724,20.182,21.332,29.944,32.293,6.586,7.391,12.607,15.283,18.849,22.978a27.908,27.908,0,0,1,2.107,3.159c1.785,2.944,1.32,4.792-1.848,6.241A36.444,36.444,0,0,1,162.491,446.344Z" transform="translate(-557.501 -231.05)"/>
  </g>
</svg>
