<?xml version="1.0" encoding="utf-8"?>
<!-- Generator: Adobe Illustrator 23.0.4, SVG Export Plug-In . SVG Version: 6.00 Build 0)  -->
<svg version="1.1" id="レイヤー_1" xmlns="http://www.w3.org/2000/svg" xmlns:xlink="http://www.w3.org/1999/xlink" x="0px"
	 y="0px" viewBox="0 0 27.4 26.1" style="enable-background:new 0 0 27.4 26.1;" xml:space="preserve">
<style type="text/css">
	.st0{fill:#FFFFFF;}
</style>
<path id="パス_108" class="st0" d="M13.8,0C6.2,0,0,5,0,11.2c0,5.5,4.9,10.1,11.5,11c0.5,0.1,1,0.3,1.1,0.7
	c0.1,0.4,0.1,0.8,0.1,1.2c0,0.4-0.1,0.8-0.2,1.1c-0.1,0.4-0.3,1.4,1.1,0.8s7.9-4.7,10.8-8c1.8-1.8,2.9-4.2,2.9-6.8
	C27.6,5,21.4,0,13.8,0z M8.4,14.9H5.7c-0.4,0-0.8-0.3-0.8-0.7c0,0,0,0,0,0V8.6c0-0.4,0.4-0.7,0.8-0.8c0.4,0,0.8,0.3,0.8,0.7
	c0,0,0,0,0,0v4.7h2c0.4,0,0.8,0.3,0.8,0.8C9.2,14.5,8.8,14.9,8.4,14.9C8.4,14.9,8.4,14.9,8.4,14.9z M11.3,14.2
	c0,0.4-0.3,0.8-0.7,0.8c0,0,0,0,0,0c-0.4,0-0.7-0.3-0.8-0.6c0,0,0-0.1,0-0.1V8.7c0-0.4,0.4-0.7,0.8-0.8c0.4,0,0.8,0.3,0.8,0.7
	c0,0,0,0,0,0V14.2z M17.8,14.2c0,0.3-0.2,0.6-0.5,0.7c-0.1,0-0.1,0-0.2,0.1c-0.2,0-0.4-0.1-0.6-0.3l-2.7-3.9v3.4
	c0,0.4-0.3,0.8-0.7,0.8c0,0,0,0,0,0c-0.4,0-0.7-0.3-0.8-0.6c0,0,0-0.1,0-0.1V8.7c0-0.3,0.2-0.6,0.6-0.8h0.2c0.2,0,0.4,0.1,0.6,0.3
	l2.8,3.8V8.6c0-0.4,0.3-0.8,0.7-0.8c0,0,0,0,0,0c0.4,0,0.7,0.3,0.8,0.6c0,0,0,0.1,0,0.1v5.6H17.8z M22.2,10.7c0.4,0,0.8,0.3,0.8,0.7
	c0,0,0,0,0,0c0,0.4-0.3,0.7-0.6,0.8c0,0-0.1,0-0.1,0h-2v1.2h2c0.4,0,0.7,0.4,0.8,0.8c0,0.4-0.3,0.8-0.7,0.8c0,0,0,0,0,0h-2.7
	c-0.4,0-0.8-0.3-0.8-0.7c0,0,0,0,0,0V8.7c0-0.4,0.3-0.8,0.7-0.8c0,0,0,0,0,0h2.7c0.4,0,0.8,0.3,0.8,0.7c0,0,0,0,0,0
	c0,0.4-0.3,0.7-0.6,0.8c0,0-0.1,0-0.1,0h-2v1.3L22.2,10.7L22.2,10.7z"/>
</svg>
