<svg id="レイヤー_1" data-name="レイヤー 1" xmlns="http://www.w3.org/2000/svg" viewBox="0 0 412 334.82"><defs><style>.cls-1{fill:#fff;}</style></defs><title>icon-tw_w</title><path id="twitter-icon" class="cls-1" d="M412,39.63a168.67,168.67,0,0,1-48.55,13.31A84.77,84.77,0,0,0,400.62,6.18a169.18,169.18,0,0,1-53.68,20.51A84.41,84.41,0,0,0,285.24,0c-54.56,0-94.66,50.92-82.33,103.79A240,240,0,0,1,28.68,15.47,84.63,84.63,0,0,0,54.84,128.32a84.19,84.19,0,0,1-38.28-10.57c-.92,39.16,27.14,75.78,67.79,83.95a84.66,84.66,0,0,1-38.17,1.44,84.6,84.6,0,0,0,79,58.7A170,170,0,0,1,0,296.85a239.28,239.28,0,0,0,129.57,38c156.93,0,245.6-132.55,240.25-251.43A171.73,171.73,0,0,0,412,39.63Z"/></svg>