<svg id="レイヤー_1" data-name="レイヤー 1" xmlns="http://www.w3.org/2000/svg" viewBox="0 0 2499.79 1085.65"><defs><style>.cls-1{fill:#fff;}</style></defs><title>icon_sc_w</title><path class="cls-1" d="M28.42,819c-5.22,0-9.36,4-10,9.78L.11,967.62l18.28,136.46c.67,5.75,4.81,9.76,10,9.76,5,0,9.16-4,10-9.71v0L60.06,967.61,38.39,828.73c-.78-5.72-5-9.75-10-9.75Z" transform="translate(-0.11 -169.68)"/><path class="cls-1" d="M131.22,743.11c-.86-6-5.14-10.08-10.41-10.08s-9.68,4.25-10.4,10.08c0,0-24.57,224.51-24.57,224.51l24.57,219.53c.7,5.89,5.08,10.13,10.4,10.13s9.52-4.14,10.38-10.08l28-219.58L131.22,743.11Z" transform="translate(-0.11 -169.68)"/><path class="cls-1" d="M518.45,536c-10.08,0-18.41,8.26-18.9,18.74L480,967.8l19.57,266.93c.51,10.43,8.82,18.66,18.9,18.66s18.34-8.26,18.93-18.71v.08l22.12-267-22.12-413C536.79,544.28,528.48,536,518.45,536Z" transform="translate(-0.11 -169.68)"/><path class="cls-1" d="M318,679.58c-7.74,0-14.06,6.19-14.68,14.44l-22,273.67,22,264.78c.59,8.2,6.94,14.38,14.68,14.38s14-6.18,14.66-14.38l25.05-264.78L332.69,694C332,685.77,325.69,679.58,318,679.58Z" transform="translate(-0.11 -169.68)"/><path class="cls-1" d="M722.12,1253.36c12.51,0,22.67-10.08,23.18-23l19.19-262.43L745.33,418c-.52-12.91-10.68-23-23.18-23s-22.79,10.11-23.2,23l-17,549.85,17,262.54A23.34,23.34,0,0,0,722.12,1253.36Z" transform="translate(-0.11 -169.68)"/><path class="cls-1" d="M1139.09,1254.6c17.21,0,31.4-14.17,31.72-31.59v0L1184.2,968.1,1170.81,333c-.29-17.4-14.52-31.59-31.72-31.59s-31.45,14.17-31.72,31.61l-12,634.86c0,.41,12,255.29,12,255.29A32,32,0,0,0,1139.09,1254.6Z" transform="translate(-0.11 -169.68)"/><path class="cls-1" d="M929,1253.6c15,0,27.05-12,27.45-27.34v.19L972.76,968,956.44,414.11C956,398.78,944,386.79,929,386.79a27.5,27.5,0,0,0-27.47,27.32L887,968l14.52,258.41A27.49,27.49,0,0,0,929,1253.6Z" transform="translate(-0.11 -169.68)"/><path class="cls-1" d="M417.85,1251.19c8.9,0,16.11-7.13,16.78-16.51l23.6-267-23.6-254c-.64-9.38-7.85-16.45-16.78-16.45s-16.23,7.12-16.8,16.56L380.27,967.7l20.78,267C401.64,1244.06,408.82,1251.19,417.85,1251.19Z" transform="translate(-0.11 -169.68)"/><path class="cls-1" d="M219,1236.56c6.51,0,11.78-5.14,12.53-12.23l26.51-256.69L231.57,701.28c-.78-7.13-6-12.26-12.55-12.26s-11.86,5.16-12.53,12.26L183.16,967.64l23.33,256.63c.65,7.13,5.92,12.29,12.53,12.29Z" transform="translate(-0.11 -169.68)"/><path class="cls-1" d="M1033.65,404.88a29.66,29.66,0,0,0-29.62,29.5L990.8,968l13.23,256.8a29.59,29.59,0,0,0,29.62,29.28c16.24,0,29.2-12.91,29.57-29.47v.21l14.84-256.79-14.84-533.75c-.37-16.5-13.33-29.44-29.57-29.44Z" transform="translate(-0.11 -169.68)"/><path class="cls-1" d="M619.91,1253.9c11.24,0,20.51-9.17,21.05-20.86l20.65-265.16L641,460.37c-.56-11.72-9.81-20.86-21.05-20.86s-20.59,9.17-21.08,20.86L580.55,967.88l18.31,265.26A21.31,21.31,0,0,0,619.91,1253.9Z" transform="translate(-0.11 -169.68)"/><path class="cls-1" d="M850.47,1228.87v-.14L868.21,968,850.47,399.53c-.44-14.11-11.56-25.18-25.3-25.18s-24.95,11-25.33,25.18L784.09,967.94l15.78,260.9a25.43,25.43,0,0,0,25.3,25c13.76,0,24.84-11,25.3-25.11v.11Z" transform="translate(-0.11 -169.68)"/><path class="cls-1" d="M2192.45,640.3a307,307,0,0,0-118.94,23.88c-24.46-277.12-256.84-494.5-540.31-494.5a549.77,549.77,0,0,0-196.68,36.75c-23.2,9-29.38,18.22-29.59,36.16v975.87a37.2,37.2,0,0,0,33.2,36.35c.78.08,846.81.51,852.29.51,169.8,0,307.47-137.67,307.47-307.49S2362.25,640.3,2192.45,640.3Z" transform="translate(-0.11 -169.68)"/><path class="cls-1" d="M1244.07,241.73c-18.47,0-33.63,15.16-33.9,33.79L1196.3,968.18l13.9,251.39a34.09,34.09,0,0,0,33.87,33.5c18.41,0,33.58-15.14,33.85-33.77v.3L1293,968.18l-15.08-692.71c-.27-18.58-15.44-33.74-33.85-33.74Z" transform="translate(-0.11 -169.68)"/></svg>