<?xml version="1.0" encoding="utf-8"?>
<!-- Generator: Adobe Illustrator 23.0.3, SVG Export Plug-In . SVG Version: 6.00 Build 0)  -->
<svg version="1.1" id="レイヤー_1" xmlns="http://www.w3.org/2000/svg" xmlns:xlink="http://www.w3.org/1999/xlink" x="0px"
	 y="0px" viewBox="0 0 32 32" style="enable-background:new 0 0 32 32;" xml:space="preserve">
<style type="text/css">
	.st0{fill:#FFFFFF;}
</style>
<g>
	<path class="st0" d="M29.1,0C29,0,29,0,29.1,0C29,0,29,0,29,0H18.4c-0.3,0-1,0.5-1.1,0.6L4.6,13.3c-0.8,0.8-0.8,2,0,2.8l1.6,1.6
		l-1.6,1.6c-0.8,0.8-0.8,2,0,2.8l9.3,9.3c0.4,0.4,0.9,0.6,1.4,0.6s1-0.2,1.4-0.6l12.7-12.7c0.1-0.1,0.6-0.7,0.6-1.1v-6V7V1
		C30,0.4,29.6,0,29.1,0z M27,2c0.6,0,1,0.4,1,1s-0.4,1-1,1s-1-0.4-1-1S26.4,2,27,2z M28,17.3L15.3,30L6,20.7l1.6-1.6l6.3,6.3
		c0.4,0.4,0.9,0.6,1.4,0.6s1-0.2,1.4-0.6L28,14.1V17.3L28,17.3L28,17.3z"/>
</g>
</svg>
