<svg xmlns="http://www.w3.org/2000/svg" width="21.004" height="21" viewBox="0 0 21.004 21">
  <g id="グループ_69" data-name="グループ 69" transform="translate(-244.996 -3140)">
    <g id="グループ_65" data-name="グループ 65">
      <rect id="長方形_65" data-name="長方形 65" width="21" height="21" transform="translate(245 3140)" fill="none"/>
      <path id="_001-youtube" data-name="001-youtube" d="M16.559,67.393H4.341A4.341,4.341,0,0,0,0,71.734v6.108a4.341,4.341,0,0,0,4.341,4.341H16.559A4.341,4.341,0,0,0,20.9,77.842V71.734A4.341,4.341,0,0,0,16.559,67.393Zm-2.936,7.692L7.909,77.811A.229.229,0,0,1,7.58,77.6V71.982a.229.229,0,0,1,.333-.2l5.715,2.9A.229.229,0,0,1,13.624,75.085Z" transform="translate(244.996 3075.259)" fill="#fff"/>
    </g>
  </g>
</svg>
