<svg id="Capa_1" data-name="Capa 1" xmlns="http://www.w3.org/2000/svg" viewBox="0 0 510 510"><defs><style>.cls-1{fill:#fff;}</style></defs><title>icon_web_w</title><g id="public"><path class="cls-1" d="M255,0C114.75,0,0,114.75,0,255S114.75,510,255,510,510,395.25,510,255,395.25,0,255,0ZM229.5,456.45C130.05,443.7,51,357,51,255c0-15.3,2.55-30.6,5.1-45.9L178.5,331.5V357a51.15,51.15,0,0,0,51,51Zm176-63.75C397.8,372.3,380,357,357,357H331.5V280.5c0-15.3-10.2-25.5-25.5-25.5H153V204h51c15.3,0,25.5-10.2,25.5-25.5v-51h51a51.15,51.15,0,0,0,51-51V66.3C405.45,96.9,459,170.85,459,255,459,308.55,438.6,357,405.45,392.7Z"/></g></svg>