<svg id="レイヤー_1" data-name="レイヤー 1" xmlns="http://www.w3.org/2000/svg" viewBox="0 0 938.45 559.89"><defs><style>.cls-1{fill:#fff;}</style></defs><title>icon_mc_w</title><path class="cls-1" d="M385.27,505.41q-103.83,0-207.66,0C80.33,505.34,6.52,441.4.34,345.33-4.15,275.51,35.6,199.92,129.28,172.74c8.14-2.36,17.56-10,20.94-17.55,47.16-106,150.91-168.11,264.5-152.92A250.94,250.94,0,0,1,630.56,215.05c.87,5.94,8.14,13.86,14.05,15.71,66.29,20.77,108.49,85.52,97,157.49-11.11,69.42-72.11,117-146.19,117.14Q490.32,505.57,385.27,505.41Zm-174-336.7c26,16.94,51.09,31.26,73.76,48.68,14.77,11.35,15.76,27.81,1.82,42.31-12.8,13.31-26.42,14-40.69,1.6a176.5,176.5,0,0,0-21.48-16c-36.36-22.9-89.47-19.45-123.06,7.68-36.75,29.68-50.28,77-34.41,120.29,17,46.53,55.6,71.6,112.93,71.74q204.06.5,408.13,0a160.47,160.47,0,0,0,24.25-2.08c38.15-5.9,65.9-32.86,71.07-69.29,4.21-29.63-17.48-75-52.16-82.54-3.16,10.61-6,21.43-9.59,32-7.57,22.1-22.45,32.08-39.89,24.69C563.66,340,560.33,326.43,564.14,306c5.41-29.14,10-60.31,5.44-89.09-13.27-83-83.5-146.09-167.38-156.27C324.59,51.19,245.15,96.77,211.22,168.71Z"/><path class="cls-1" d="M938.25,364.83c1.56,64.14-16.76,121-48.93,174.16-10.85,17.94-24.67,26.2-44.26,17.28-17.19-7.84-19.31-27.3-7.13-48.23,55.75-95.79,56.75-191.47-.38-287.16-12.42-20.8-9.69-39.18,7.48-48.45,20.54-11.09,33.32-.27,43.74,16.73C922.13,243.54,940.61,302,938.25,364.83Z"/><path class="cls-1" d="M840.66,357.08c-.43,52.19-12.66,92.81-35.11,130.29-12.81,21.37-30.69,27.87-46.16,16.69-18.11-13.08-16-29.84-5.78-47.22,36-61.14,36.51-122.49.59-183.86-9.94-17-13.93-33.83,4.5-47.23,16-11.65,34-4.26,47.49,17.65C829.26,280.78,839.75,321.65,840.66,357.08Z"/></svg>