<svg xmlns="http://www.w3.org/2000/svg" width="21" height="21" viewBox="0 0 21 21">
  <g id="グループ_61" data-name="グループ 61" transform="translate(-105 -3140)">
    <rect id="長方形_63" data-name="長方形 63" width="21" height="21" transform="translate(105 3140)" fill="none"/>
    <g id="_029-instagram" data-name="029-instagram" transform="translate(106 3141)">
      <path id="パス_44" data-name="パス 44" d="M13.341,0H5.661A5.667,5.667,0,0,0,0,5.661v7.68A5.667,5.667,0,0,0,5.661,19h7.68A5.667,5.667,0,0,0,19,13.341V5.661A5.667,5.667,0,0,0,13.341,0ZM17.09,13.341a3.749,3.749,0,0,1-3.749,3.749H5.661a3.749,3.749,0,0,1-3.749-3.749V5.661A3.749,3.749,0,0,1,5.661,1.912h7.68A3.749,3.749,0,0,1,17.09,5.661v7.68Z" fill="#fff"/>
      <path id="パス_45" data-name="パス 45" d="M137.914,133a4.914,4.914,0,1,0,4.914,4.914A4.92,4.92,0,0,0,137.914,133Zm0,7.917a3,3,0,1,1,3-3A3,3,0,0,1,137.914,140.917Z" transform="translate(-128.414 -128.414)" fill="#fff"/>
      <ellipse id="楕円形_2" data-name="楕円形 2" cx="1.178" cy="1.178" rx="1.178" ry="1.178" transform="translate(13.247 3.446)" fill="#fff"/>
    </g>
  </g>
</svg>
