<svg xmlns="http://www.w3.org/2000/svg" width="21" height="21" viewBox="0 0 21 21">
  <g id="グループ_68" data-name="グループ 68" transform="translate(-175 -3140)">
    <g id="グループ_63" data-name="グループ 63">
      <rect id="長方形_61" data-name="長方形 61" width="21" height="21" transform="translate(175 3140)" fill="none"/>
      <path id="_008-twitter" data-name="008-twitter" d="M19.891,36.447a8,8,0,0,1-1.394.47,4.345,4.345,0,0,0,1.147-1.827h0a.228.228,0,0,0-.333-.265h0a8.042,8.042,0,0,1-2.131.88.543.543,0,0,1-.133.017.565.565,0,0,1-.373-.142,4.358,4.358,0,0,0-2.883-1.088,4.659,4.659,0,0,0-1.381.213,4.222,4.222,0,0,0-2.845,3.042,4.649,4.649,0,0,0-.1,1.6.156.156,0,0,1-.039.122.162.162,0,0,1-.12.055H9.287a11.426,11.426,0,0,1-7.853-4.2h0a.228.228,0,0,0-.373.029h0a4.363,4.363,0,0,0,.709,5.3,3.9,3.9,0,0,1-.994-.385h0a.228.228,0,0,0-.338.2h0a4.363,4.363,0,0,0,2.545,4.02H2.889a3.92,3.92,0,0,1-.734-.07h0a.228.228,0,0,0-.26.293h0a4.367,4.367,0,0,0,3.45,2.97,8.041,8.041,0,0,1-4.5,1.368h-.5a.334.334,0,0,0-.326.252.345.345,0,0,0,.165.381,11.96,11.96,0,0,0,6.01,1.62,12.124,12.124,0,0,0,5.136-1.09A11.341,11.341,0,0,0,15.08,47.4a12.345,12.345,0,0,0,2.3-3.854,12.174,12.174,0,0,0,.782-4.218v-.066a.741.741,0,0,1,.277-.577,8.613,8.613,0,0,0,1.733-1.9h0a.228.228,0,0,0-.282-.335Z" transform="translate(175.498 3107.324)" fill="#fff"/>
    </g>
  </g>
</svg>
