<?xml version="1.0" encoding="utf-8"?>
<!-- Generator: Adobe Illustrator 23.0.3, SVG Export Plug-In . SVG Version: 6.00 Build 0)  -->
<svg version="1.1" id="Layer_1" xmlns="http://www.w3.org/2000/svg" xmlns:xlink="http://www.w3.org/1999/xlink" x="0px" y="0px"
	 viewBox="0 0 32 32" style="enable-background:new 0 0 32 32;" xml:space="preserve">
<style type="text/css">
	.st0{fill:#FFFFFF;}
</style>
<g>
	<path class="st0" d="M30,6H2C0.9,6,0,6.9,0,8v18c0,1.1,0.9,2,2,2h28c1.1,0,2-0.9,2-2V8C32,6.9,31.1,6,30,6z M27.2,18H15
		c-0.6,0-1-0.4-1-1s0.4-1,1-1h12.2c0.6,0,1,0.4,1,1S27.7,18,27.2,18z M28.2,21c0,0.6-0.4,1-1,1H15c-0.6,0-1-0.4-1-1s0.4-1,1-1h12.2
		C27.7,20,28.2,20.4,28.2,21z M27.2,14H15c-0.6,0-1-0.4-1-1s0.4-1,1-1h12.2c0.6,0,1,0.4,1,1S27.7,14,27.2,14z M8,15.8
		c2.2,0,4,2.4,4,5.3s-7.9,2.9-7.9,0S5.9,15.8,8,15.8z M5.6,12.4C5.6,11.1,6.7,10,8,10s2.4,1.1,2.4,2.4S9.3,14.8,8,14.8
		S5.6,13.8,5.6,12.4z"/>
</g>
</svg>
