<?xml version="1.0" encoding="utf-8"?>
<!-- Generator: Adobe Illustrator 26.0.3, SVG Export Plug-In . SVG Version: 6.00 Build 0)  -->
<svg version="1.1" id="レイヤー_1" xmlns="http://www.w3.org/2000/svg" xmlns:xlink="http://www.w3.org/1999/xlink" x="0px"
	 y="0px" viewBox="0 0 21 21" style="enable-background:new 0 0 21 21;" xml:space="preserve">
<style type="text/css">
	.st0{opacity:0;}
	.st1{fill:#FFFFFF;}
</style>
<g>
	<rect class="st0" width="21" height="21"/>
	<g>
		<path class="st1" d="M19.2,5.6c-1.1,0-2.2-0.4-3-1c-1-0.7-1.7-1.8-1.9-3c-0.1-0.3-0.1-0.6-0.1-0.9h-3.2v8.8l0,4.8
			c0,1.3-0.8,2.4-2,2.8c-0.3,0.1-0.7,0.2-1.1,0.1c-0.5,0-0.9-0.2-1.3-0.4c-0.8-0.5-1.4-1.4-1.4-2.5c0-1.6,1.3-3,2.9-3
			c0.3,0,0.6,0.1,0.9,0.1V9.1V8.2C8.6,8.2,8.3,8.1,8,8.1c-1.8,0-3.5,0.7-4.7,2.1c-0.9,1-1.4,2.3-1.5,3.7c-0.1,1.8,0.5,3.5,1.8,4.7
			C3.8,18.8,4,19,4.2,19.1C5.3,20,6.6,20.4,8,20.4c0.3,0,0.6,0,0.9-0.1c1.3-0.2,2.5-0.8,3.5-1.7c1.2-1.2,1.8-2.7,1.8-4.3l0-7.2
			c0.6,0.4,1.2,0.8,1.8,1.1c1,0.4,2.1,0.6,3.2,0.6V6.4L19.2,5.6C19.2,5.6,19.2,5.6,19.2,5.6L19.2,5.6z"/>
	</g>
</g>
</svg>
