<?xml version="1.0" encoding="utf-8"?>
<!-- Generator: Adobe Illustrator 23.0.3, SVG Export Plug-In . SVG Version: 6.00 Build 0)  -->
<svg version="1.1" id="レイヤー_1" xmlns="http://www.w3.org/2000/svg" xmlns:xlink="http://www.w3.org/1999/xlink" x="0px"
	 y="0px" viewBox="0 0 32 32.8" style="enable-background:new 0 0 32 32.8;" xml:space="preserve">
<style type="text/css">
	.st0{fill:#FFFFFF;}
</style>
<g>
	<path class="st0" d="M0.8,30.5c1.5,1.9,4.6,2.1,6.9,0.3c0.9-0.7,1.6-1.7,2-2.6c0.2-0.4,0.3-1,0.3-1.7v-15l18-3.4V16
		c0,2.8-2.1,3.4-2.9,3.6c-0.1,0-0.1,0-0.2,0h-0.1l0,0c-0.9,0.2-1.8,0.5-2.6,1.2c-2.3,1.8-3,4.8-1.5,6.7s4.6,2.1,6.9,0.3
		c1.2-0.9,1.9-2.1,2.2-3.4c0.1-0.3,0.2-0.6,0.2-1V4c0-0.1,0-0.2,0-0.3s0-0.1,0-0.2v-2c0-1.1-0.9-1.7-2-1.4L10,3.5C8.9,3.8,8,5,8,6.1
		v2c0,0,0,0,0,0.1s0,0.1,0,0.2V19c0,2.8-2.1,3.4-2.9,3.6H5c-0.1,0-0.2,0-0.2,0l0,0c-0.9,0.2-1.8,0.5-2.6,1.1
		C0,25.5-0.7,28.5,0.8,30.5z"/>
</g>
</svg>
