<svg id="グループ化_24" data-name="グループ化 24" xmlns="http://www.w3.org/2000/svg" width="246.901" height="55.343" viewBox="0 0 246.901 55.343">
  <rect id="長方形_238" data-name="長方形 238" width="36.63" height="31.397" transform="translate(20.931 10.652)" fill="#fff"/>
  <path id="パス_17" data-name="パス 17" d="M38.605,0c9.216.4,17.7.75,26.169,1.146a31.041,31.041,0,0,1,4.035.507c4.85.882,7.716,3.88,8.576,9.061a110.387,110.387,0,0,1,.97,24.714,80.954,80.954,0,0,1-1.367,11.023,9.909,9.909,0,0,1-9.017,7.8,256.175,256.175,0,0,1-26.963,1.08c-7.518-.022-15.058-.243-22.576-.485a67.223,67.223,0,0,1-8.422-.816c-5.049-.816-7.937-3.792-8.841-8.907A97.8,97.8,0,0,1-.043,25.155C.134,20.724.464,16.27.994,11.883,1.809,5.049,5.05,1.852,11.951,1.389,21.078.75,30.205.419,38.605,0ZM31.44,40.037c6.967-4.035,13.8-7.981,20.79-12.015-7.033-4.079-13.845-8-20.79-12.015Z" transform="translate(0.111 0)" fill="#fc021b"/>
  <path id="パス_18" data-name="パス 18" d="M912.9,11.1h7.43V29.112c.4-.529.6-.816.816-1.08a7.708,7.708,0,0,1,4.938-3.064,6.045,6.045,0,0,1,7.275,4.211,27,27,0,0,1,1.213,8.576c.11,5.071.331,10.141-.551,15.168a16.873,16.873,0,0,1-1.014,3.461c-2.381,6.041-9.656,4.74-12.126,1.455-.22-.287-.419-.573-.794-1.08-.242.992-.375,1.808-.639,2.579-.11.287-.463.705-.728.705-1.9.066-3.814.022-5.776.022C912.9,43.751,912.9,27.481,912.9,11.1Zm7.452,32.188v9.127a2.11,2.11,0,0,0,.176,1.058A3.256,3.256,0,0,0,923.615,55a2.381,2.381,0,0,0,2.249-1.786,8.756,8.756,0,0,0,.573-2.557q.132-7.474.11-14.948a12.814,12.814,0,0,0-.463-3.153c-.639-2.337-2.844-2.844-4.541-1.1a3.977,3.977,0,0,0-1.235,2.954C920.374,37.358,920.352,40.334,920.352,43.288Z" transform="translate(-711.611 -8.653)" fill="#fff"/>
  <path id="パス_19" data-name="パス 19" d="M795.81,76.7H803.5c.022.463.066.882.066,1.323,0,7.871,0,15.719.022,23.59a15.829,15.829,0,0,0,.265,3.065,1.943,1.943,0,0,0,2.645,1.587,3.142,3.142,0,0,0,2.558-3.219v-26.3H816.8v34.415h-6c-.221-1.323-.463-2.646-.728-4.189-.331.485-.551.794-.749,1.124a8,8,0,0,1-8.708,3.505c-2.513-.573-4.123-2.6-4.564-5.842a23.9,23.9,0,0,1-.221-3.064q-.033-12.567-.022-25.133A3.7,3.7,0,0,1,795.81,76.7Z" transform="translate(-620.316 -59.79)" fill="#fff"/>
  <path id="パス_20" data-name="パス 20" d="M614.945,76.722h7.716v1.3c0,7.76-.022,15.5.022,23.259a16.66,16.66,0,0,0,.331,3.483,1.829,1.829,0,0,0,2.293,1.521A3.24,3.24,0,0,0,628.2,103V76.7h7.716v34.437h-6.041c-.22-1.3-.463-2.6-.728-4.189-.331.507-.529.816-.75,1.124a7.969,7.969,0,0,1-8.709,3.505,4.973,4.973,0,0,1-3.9-3.505,16.614,16.614,0,0,1-.838-4.74c-.088-8.708-.044-17.417-.066-26.125A1.47,1.47,0,0,1,614.945,76.722Z" transform="translate(-479.289 -59.79)" fill="#fff"/>
  <path id="パス_21" data-name="パス 21" d="M497.8,91.457c.287-3.175.331-6.349.86-9.436,1.08-6.349,4.939-9.171,11.4-8.642,5.313.441,8.113,3.042,8.973,8.973a61.535,61.535,0,0,1-.132,18.762,13.729,13.729,0,0,1-1.1,3.329,7.36,7.36,0,0,1-5.269,4.277,15.409,15.409,0,0,1-7.628-.044c-3.924-1.014-5.666-3.924-6.217-7.606C498.219,97.917,498.087,94.676,497.8,91.457Zm14.066-.11h-.132c0-1.984.088-3.968-.022-5.953a32.707,32.707,0,0,0-.617-4.872,2.287,2.287,0,0,0-4.453,0,18,18,0,0,0-.617,3.9c-.066,4.586-.044,9.171-.022,13.757a17.335,17.335,0,0,0,.242,2.624c.309,2.05,1.169,3.065,2.557,3.087,1.433.022,2.469-.992,2.645-3.087C511.689,97.652,511.733,94.477,511.866,91.347Z" transform="translate(-388.027 -57.152)" fill="#fff"/>
  <path id="パス_22" data-name="パス 22" d="M392.7,18.722c2.469,0,4.784-.022,7.077.044.265,0,.706.485.772.794,1.543,7.32,3.042,14.661,4.542,21.981a1.123,1.123,0,0,0,.331.639c.375-1.984.728-3.946,1.169-5.931,1.19-5.556,2.447-11.112,3.638-16.667.154-.683.419-.882,1.1-.882,2.227.044,4.453.022,6.834.022-.816,2.954-1.609,5.732-2.381,8.51q-3.142,11.178-6.261,22.377a7.968,7.968,0,0,0-.287,2.161c-.022,4.3-.022,8.6-.022,12.9v1.279h-7.694V64.822c0-4.3.022-8.6-.022-12.9a8.742,8.742,0,0,0-.331-2.381q-4.068-14.782-8.179-29.587C392.876,19.6,392.81,19.229,392.7,18.722Z" transform="translate(-306.098 -14.577)" fill="#fff"/>
  <path id="パス_23" data-name="パス 23" d="M1046.891,94.168h-12.985c.176,2.668.243,5.225.551,7.76a2.265,2.265,0,0,0,2.491,2.161,2.484,2.484,0,0,0,2.646-2.161c.265-1.168.375-2.381.551-3.7,2.028.132,4.079.22,6.107.4.2.022.529.485.529.75.154,5.115-1.874,9.392-8.466,9.9a19.51,19.51,0,0,1-4.387-.176,7.472,7.472,0,0,1-6.217-5.269,16.553,16.553,0,0,1-.948-3.836,76.63,76.63,0,0,1,0-16.822,17.559,17.559,0,0,1,.992-3.946,7.759,7.759,0,0,1,6.239-5.291,15.763,15.763,0,0,1,6.658.11,7.17,7.17,0,0,1,5.49,5.71,23.96,23.96,0,0,1,.706,4.674C1046.958,87.6,1046.891,90.8,1046.891,94.168Zm-7.055-4.7c-.2-2.932-.309-5.732-.639-8.532a2.108,2.108,0,0,0-2.4-2.05,2.076,2.076,0,0,0-2.315,2.028c-.309,2.822-.4,5.666-.6,8.554Z" transform="translate(-800.01 -57.394)" fill="#fff"/>
  <path id="パス_24" data-name="パス 24" d="M724.973,19.2v6.129h-7.65V66.336h-7.628V25.417H702V19.2Z" transform="translate(-547.208 -14.967)" fill="#fff"/>
</svg>
