<svg xmlns="http://www.w3.org/2000/svg" viewBox="5302.001 7532.365 41.635 41.635">
  <defs>
    <style>
      .cls-1 {
        fill: #65d365;
      }

      .cls-2 {
        fill: #fff;
      }
    </style>
  </defs>
  <g id="グループ化_19" data-name="グループ化 19" transform="translate(4046.001 -15.635)">
    <rect id="長方形_39" data-name="長方形 39" class="cls-1" width="41.635" height="41.635" rx="11" transform="translate(1256 7548)"/>
    <path id="パス_108" data-name="パス 108" class="cls-2" d="M21.215,8.4C13.645,8.4,7.4,13.415,7.4,19.566c0,5.488,4.921,10.125,11.544,10.977.473.095,1.041.284,1.136.662a5.4,5.4,0,0,1,.095,1.23,6.988,6.988,0,0,1-.189,1.136c-.095.379-.284,1.419,1.136.757s7.949-4.731,10.787-8.043a9.805,9.805,0,0,0,2.933-6.813C35.031,13.415,28.785,8.4,21.215,8.4ZM15.822,23.256H13.078a.746.746,0,0,1-.757-.757V17.011a.814.814,0,0,1,.757-.757.746.746,0,0,1,.757.757v4.731h1.987a.757.757,0,1,1,0,1.514Zm2.839-.662a.746.746,0,0,1-.757.757.7.7,0,0,1-.757-.757V17.106a.814.814,0,0,1,.757-.757.746.746,0,0,1,.757.757Zm6.529,0a.712.712,0,0,1-.473.662.33.33,0,0,0-.189.095.674.674,0,0,1-.568-.284l-2.744-3.88v3.407a.746.746,0,0,1-.757.757.7.7,0,0,1-.757-.757V17.106a.887.887,0,0,1,.568-.757h.189a.818.818,0,0,1,.568.284l2.839,3.785V17.011a.746.746,0,0,1,.757-.757.7.7,0,0,1,.757.757v5.583Zm4.447-3.5a.746.746,0,0,1,.757.757.7.7,0,0,1-.757.757H27.65v1.23h1.987a.814.814,0,0,1,.757.757.746.746,0,0,1-.757.757H26.893a.746.746,0,0,1-.757-.757V17.106a.746.746,0,0,1,.757-.757h2.744a.746.746,0,0,1,.757.757.7.7,0,0,1-.757.757H27.65v1.325h1.987Z" transform="translate(1255.611 7547.549)"/>
  </g>
</svg>
