<svg xmlns="http://www.w3.org/2000/svg" width="1089.257" height="586.063" viewBox="0 0 1089.257 586.063">
  <g id="グループ_56" data-name="グループ 56" transform="translate(5478.289 -785.88)">
    <path id="パス_38" data-name="パス 38" d="M5.148,0H9.672l1.4-11.284h6.5L16.224,0H20.8l1.352-11.284h5.512v-4.94h-4.94l.884-7.124H28.86V-28.34H24.232l1.144-9.984h-4.42l-1.3,9.984H13.1l1.2-9.984H9.88L8.58-28.34H3.224v4.992H7.956l-.884,7.124H2.028v4.94H6.5ZM11.6-16.224l.884-7.124h6.552l-.884,7.124ZM51.064.728A15.573,15.573,0,0,0,63.336-4.94L59.28-9.724a10.7,10.7,0,0,1-7.956,3.8c-6.084,0-10.036-5.044-10.036-13.416,0-8.268,4.368-13.26,10.192-13.26a9.924,9.924,0,0,1,7.072,3.224l4.056-4.888a15.7,15.7,0,0,0-11.284-4.94c-9.724,0-17.888,7.436-17.888,20.124C33.436-6.24,41.34.728,51.064.728Zm25.012,0c3.328,0,6.24-1.664,8.788-3.848h.156L85.592,0h6.24V-17c0-8.424-3.8-12.844-11.18-12.844A23.263,23.263,0,0,0,68.484-26l2.756,5.044c2.7-1.56,5.3-2.756,8.008-2.756,3.588,0,4.836,2.184,4.94,5.044C72.488-17.42,67.444-14.144,67.444-7.9A8.272,8.272,0,0,0,76.076.728Zm2.5-5.98c-2.236,0-3.848-.988-3.848-3.276,0-2.6,2.392-4.524,9.464-5.46v5.876C82.368-6.292,80.756-5.252,78.572-5.252Zm29.38,5.98c7.592,0,11.6-4.108,11.6-9.2,0-5.408-4.264-7.332-8.112-8.788-3.068-1.144-5.928-1.924-5.928-4.056,0-1.664,1.248-2.808,3.848-2.808,2.184,0,4.212,1.04,6.292,2.5l3.432-4.628a16.3,16.3,0,0,0-9.932-3.588c-6.552,0-10.816,3.692-10.816,8.944,0,4.836,4.264,7.072,7.956,8.476,3.068,1.2,6.084,2.184,6.084,4.368,0,1.82-1.3,3.068-4.212,3.068-2.7,0-5.2-1.144-7.8-3.172L96.876-3.38A18.348,18.348,0,0,0,107.952.728Zm26.884,0a18.818,18.818,0,0,0,6.136-1.092l-1.248-5.564a8.508,8.508,0,0,1-2.86.624c-2.6,0-3.952-1.56-3.952-4.888v-12.9h7.176V-29.12h-7.176v-7.8h-6.4l-.884,7.8-4.472.364v5.668h4.108v12.9C125.268-3.64,127.92.728,134.836.728ZM146.016,0h7.592V-29.12h-7.592Zm3.848-33.8a4.233,4.233,0,0,0,4.524-4.16c0-2.5-1.924-4.16-4.524-4.16-2.652,0-4.576,1.664-4.576,4.16C145.288-35.568,147.212-33.8,149.864-33.8ZM161.824,0h7.592V-20.02c2.184-2.132,3.692-3.276,6.084-3.276,2.86,0,4.108,1.612,4.108,6.084V0h7.644V-18.148c0-7.332-2.7-11.7-9-11.7-3.952,0-6.916,2.08-9.464,4.576h-.208l-.52-3.848h-6.24ZM205.4,12.636c9.724,0,15.808-4.472,15.808-10.348,0-5.1-3.8-7.28-10.816-7.28h-4.94c-3.432,0-4.576-.832-4.576-2.392a2.9,2.9,0,0,1,1.248-2.5,12.4,12.4,0,0,0,3.744.676c6.24,0,11.232-3.328,11.232-9.88a7.326,7.326,0,0,0-1.352-4.42h4.992V-29.12h-10.5a13.7,13.7,0,0,0-4.368-.728c-6.188,0-11.752,3.692-11.752,10.556a9.624,9.624,0,0,0,3.848,7.592v.208a7.226,7.226,0,0,0-3.224,5.46,5.52,5.52,0,0,0,2.652,4.888v.26c-2.652,1.508-4.16,3.588-4.16,6.032C193.232,10.3,198.536,12.636,205.4,12.636Zm.468-26.572c-2.548,0-4.576-1.924-4.576-5.356s1.976-5.356,4.576-5.356,4.524,1.924,4.524,5.356S208.416-13.936,205.868-13.936ZM206.544,7.8c-4.264,0-6.968-1.4-6.968-3.848A4.368,4.368,0,0,1,201.5.572a16.435,16.435,0,0,0,4.056.416h3.536c3.12,0,4.836.52,4.836,2.6C213.928,5.876,210.912,7.8,206.544,7.8Z" transform="translate(-5225 904)"/>
    <path id="パス_39" data-name="パス 39" d="M5.148,0H9.672l1.4-11.284h6.5L16.224,0H20.8l1.352-11.284h5.512v-4.94h-4.94l.884-7.124H28.86V-28.34H24.232l1.144-9.984h-4.42l-1.3,9.984H13.1l1.2-9.984H9.88L8.58-28.34H3.224v4.992H7.956l-.884,7.124H2.028v4.94H6.5ZM11.6-16.224l.884-7.124h6.552l-.884,7.124ZM51.064.728A15.573,15.573,0,0,0,63.336-4.94L59.28-9.724a10.7,10.7,0,0,1-7.956,3.8c-6.084,0-10.036-5.044-10.036-13.416,0-8.268,4.368-13.26,10.192-13.26a9.924,9.924,0,0,1,7.072,3.224l4.056-4.888a15.7,15.7,0,0,0-11.284-4.94c-9.724,0-17.888,7.436-17.888,20.124C33.436-6.24,41.34.728,51.064.728Zm25.012,0c3.328,0,6.24-1.664,8.788-3.848h.156L85.592,0h6.24V-17c0-8.424-3.8-12.844-11.18-12.844A23.263,23.263,0,0,0,68.484-26l2.756,5.044c2.7-1.56,5.3-2.756,8.008-2.756,3.588,0,4.836,2.184,4.94,5.044C72.488-17.42,67.444-14.144,67.444-7.9A8.272,8.272,0,0,0,76.076.728Zm2.5-5.98c-2.236,0-3.848-.988-3.848-3.276,0-2.6,2.392-4.524,9.464-5.46v5.876C82.368-6.292,80.756-5.252,78.572-5.252ZM99.632,0h7.592V-20.02q3.12-3.276,5.616-3.276c2.756,0,4.056,1.612,4.056,6.084V0h7.644V-20.02q3.12-3.276,5.616-3.276c2.756,0,4.056,1.612,4.056,6.084V0h7.644V-18.148c0-7.332-2.86-11.7-9.048-11.7-3.8,0-6.6,2.288-9.256,5.1-1.4-3.224-3.848-5.1-8.008-5.1-3.8,0-6.5,2.08-8.944,4.628h-.208l-.52-3.9h-6.24ZM149.76,11.18h7.592V2.34l-.208-4.784A10.823,10.823,0,0,0,164.372.728c6.4,0,12.376-5.772,12.376-15.756,0-8.944-4.264-14.82-11.44-14.82-3.12,0-6.136,1.664-8.58,3.744h-.208L156-29.12h-6.24Zm12.9-16.744a8.148,8.148,0,0,1-5.3-2.184V-20.54c2.028-2.028,3.8-3.016,5.772-3.016,4,0,5.772,3.068,5.772,8.632C168.9-8.58,166.192-5.564,162.656-5.564ZM189.7.728c3.328,0,6.24-1.664,8.788-3.848h.156L199.212,0h6.24V-17c0-8.424-3.8-12.844-11.18-12.844A23.263,23.263,0,0,0,182.1-26l2.756,5.044c2.7-1.56,5.3-2.756,8.008-2.756,3.588,0,4.836,2.184,4.94,5.044-11.7,1.248-16.744,4.524-16.744,10.764A8.272,8.272,0,0,0,189.7.728Zm2.5-5.98c-2.236,0-3.848-.988-3.848-3.276,0-2.6,2.392-4.524,9.464-5.46v5.876C195.988-6.292,194.376-5.252,192.192-5.252ZM213.252,0h7.592V-29.12h-7.592ZM217.1-33.8a4.233,4.233,0,0,0,4.524-4.16c0-2.5-1.924-4.16-4.524-4.16-2.652,0-4.576,1.664-4.576,4.16C212.524-35.568,214.448-33.8,217.1-33.8Zm22.2,46.436c9.724,0,15.808-4.472,15.808-10.348,0-5.1-3.8-7.28-10.816-7.28h-4.94c-3.432,0-4.576-.832-4.576-2.392a2.9,2.9,0,0,1,1.248-2.5,12.4,12.4,0,0,0,3.744.676c6.24,0,11.232-3.328,11.232-9.88a7.326,7.326,0,0,0-1.352-4.42h4.992V-29.12h-10.5a13.7,13.7,0,0,0-4.368-.728c-6.188,0-11.752,3.692-11.752,10.556a9.624,9.624,0,0,0,3.848,7.592v.208a7.226,7.226,0,0,0-3.224,5.46A5.52,5.52,0,0,0,231.3-1.144v.26c-2.652,1.508-4.16,3.588-4.16,6.032C227.136,10.3,232.44,12.636,239.3,12.636Zm.468-26.572c-2.548,0-4.576-1.924-4.576-5.356s1.976-5.356,4.576-5.356,4.524,1.924,4.524,5.356S242.32-13.936,239.772-13.936ZM240.448,7.8c-4.264,0-6.968-1.4-6.968-3.848A4.368,4.368,0,0,1,235.4.572a16.435,16.435,0,0,0,4.056.416H243c3.12,0,4.836.52,4.836,2.6C247.832,5.876,244.816,7.8,240.448,7.8ZM260.1,0H267.7V-20.02c2.184-2.132,3.692-3.276,6.084-3.276,2.86,0,4.108,1.612,4.108,6.084V0h7.644V-18.148c0-7.332-2.7-11.7-9-11.7-3.952,0-6.916,2.08-9.464,4.576h-.208l-.52-3.848H260.1Z" transform="translate(-4988 1058)"/>
    <path id="パス_40" data-name="パス 40" d="M5.148,0H9.672l1.4-11.284h6.5L16.224,0H20.8l1.352-11.284h5.512v-4.94h-4.94l.884-7.124H28.86V-28.34H24.232l1.144-9.984h-4.42l-1.3,9.984H13.1l1.2-9.984H9.88L8.58-28.34H3.224v4.992H7.956l-.884,7.124H2.028v4.94H6.5ZM11.6-16.224l.884-7.124h6.552l-.884,7.124Zm30.992.364,1.144-4.212c1.144-4,2.288-8.372,3.276-12.584h.208c1.144,4.16,2.184,8.58,3.38,12.584L51.74-15.86ZM56.108,0h8.06L51.792-38.48H42.744L30.42,0h7.8l2.7-9.88H53.4ZM68.692,0H79.664C91,0,98.28-6.448,98.28-19.4c0-13-7.28-19.084-19.032-19.084H68.692Zm7.7-6.188V-32.344H78.78c7.176,0,11.648,3.536,11.648,12.948,0,9.36-4.472,13.208-11.648,13.208Z" transform="translate(-5148 1159)"/>
    <path id="パス_41" data-name="パス 41" d="M5.049,0H9.486l1.377-11.067h6.375L15.912,0H20.4l1.326-11.067h5.406v-4.845H22.287l.867-6.987h5.151v-4.9H23.766l1.122-9.792H20.553L19.278-27.8H12.852l1.173-9.792H9.69L8.415-27.8H3.162v4.9H7.8l-.867,6.987H1.989v4.845H6.375Zm6.324-15.912L12.24-22.9h6.426L17.8-15.912ZM34.68,0h7.548V-13.413h5.049c8.109,0,14.586-3.876,14.586-12.5,0-8.925-6.426-11.832-14.79-11.832H34.68Zm7.548-19.38V-31.773h4.284c5.2,0,7.956,1.479,7.956,5.865,0,4.335-2.5,6.528-7.7,6.528ZM76.245-31.773h4.9c4.845,0,7.5,1.377,7.5,5.457,0,4.029-2.652,6.069-7.5,6.069h-4.9ZM97.665,0,88.842-15.453c4.335-1.683,7.191-5.2,7.191-10.863,0-8.67-6.273-11.424-14.178-11.424H68.7V0h7.548V-14.28H81.5L89.25,0Z" transform="translate(-4714 1284)"/>
    <g id="shiki" transform="translate(-5478.289 1025.645)">
      <path id="パス_27" data-name="パス 27" d="M100.042,346.3H63.1c-7.426-1.339-14.975-.885-22.456-1.485-9.011-.716-18.061-1.077-27.273-1.6a113.63,113.63,0,0,1,2.439-15.937c1.316-5.787,2.9-12.151.623-17.407-2.378-5.479-1.439-9.558,1.124-14,5.325-9.227,6.941-19.585,9.235-29.743,3.009-13.329-2.278-24.326-9.92-34.537-4.279-5.71-7.634-11.774-9.011-18.792-1.708-8.673-3.294-17.361-4.84-26.049C1.939,180.691,1,174.6,0,168.532V144.676c.831-.469.677-1.316.708-2.039.154-3.986-.177-8.15,5.056-9.535.839-.223,1.485-1.354,2.124-2.147a77.1,77.1,0,0,1,18.369-16.107,20.493,20.493,0,0,0,4.5-4.079c4.587-5.395,6.21-12.22,9.042-18.462,2.655-5.872,2.647-5.872,8.642-5.187.192.023.423-.239.8-.477-.885-4.794-4.725-8.55-4.687-13.567-1.585.292-2.978,1.031-3.771.616-3.763-1.985-8.888-2.555-9.843-7.88-.723-4.04-3.309-5.695-6.918-6.557-2.078-.493-4.256-.746-6.264-1.985,4.14-12.736,8.8-25.264,13.829-37.639,2.516-6.187,7.48-10.451,12.621-14.36C47.935,2.432,52.722,1.816,56.947,0H69.26a7.941,7.941,0,0,0,1.716.693c14.668,2.193,23.833,10.635,26.98,24.864a7.391,7.391,0,0,0,.993,2.886c2.9,3.725,4.109,7.465,1.239,11.843-.516.793-.069,2.247.023,3.394.185,2.424.462,4.84.623,7.272.523,8.111,1.9,15.868,6.472,22.933,4.4,6.811,1.416,12.867-6.718,14.237-3.194.539-6.487.493-9.743.716,3.917,2.516,6.164,6.387,8.9,9.819.808,1.008,2.139,2.386,3.1,1.962,3.494-1.547,5.933.8,8.5,2.062a58.278,58.278,0,0,1,17.169,13.39,132.767,132.767,0,0,0,23.594,20.185c5.918,4.032,11.543,8.5,17.315,12.744.669.493,1.147,1.47,2.247,1.085,2.055-4.125,2.055-4.125,6.172-3.34.908-1.447.469-4.063,2.709-4.263,3.371-.3,4.663-2.586,5.479-5.141,4.44-13.937,14.806-24.395,21.178-37.123,1.5.554,2.678.985,3.771,1.393,1.224-.808.462-2.74,2.016-3.047,1.439-.139,2.1,1.67,3.555,1.216a4.49,4.49,0,0,0,1.37-2.232c1.608-4.448.069-8.588-1.331-12.659a10.259,10.259,0,0,1,.131-8.034c3.3-7.465,6.333-15.045,9.45-22.594.477-1.154.593-2.747,2.37-2.355a3.468,3.468,0,0,1,2.824,2.832,13.61,13.61,0,0,1-.339,4.948c-.416,2.278-1.631,4.525-.485,7.58,1.108-1.716,2.016-3.032,2.832-4.4,3.809-6.38,6.149-13.429,9.188-20.155,1.562-3.463,3.663-6.395,7.3-8.065,4.009,3.986-1.631,7.565-.346,11.613,3.409-3.425,3.332-9.088,7.757-11.52,3.024,1.085,4.286,2.817,2.755,5.879-.439.87-1.254,2.085-.215,2.809,3.163,2.186,1.678,4.887,1.154,7.549-.392,1.978-1.785,3.994-.8,5.964,2.024,4.04.816,7.98.092,11.951-1.478,8.142-6.464,14.652-10.166,21.778-2.932,5.641-6.156,10.789-12.49,13.105a3.486,3.486,0,0,0-2.27,3.648c0,1.785,1.37,2.193,2.724,2.755,4.271,1.778,3.232,7.418,6.887,9.712a2.063,2.063,0,0,1-.416,1.37c-1.916,2.055-2.37,4.787-3.3,7.257-9.327,24.849-21.917,48.1-34.684,71.276-3.84,6.964-10.25,10.374-18.054,9.112-8.958-1.447-16.822-5.749-24.987-9.35-8.473-3.732-17.2-6.887-26.019-10.374-.585,1.678-1.008,2.732-1.324,3.817-3.394,11.52-3.64,23.487-5.048,35.292-.177,1.462.316,2.209,1.616,2.524,1.347.323,2.847.308,4.056.893,3,1.439,8.634-.8,8.15,5.772-.077,1.093,1.524,1.093,2.54,1.139,2.786.123,4.286,1.354,3.948,4.356a2.862,2.862,0,0,0,.585,2.686A44.134,44.134,0,0,1,166.9,241.6c9.7-.677,19.1,1.008,28.389,3.532,2.632.716,5.094.793,7.3-.908,3.032-2.339,6.449-4.4,8.85-7.3,13.66-16.461,28.62-31.821,41.41-49.02,5.949-8,12.69-15.314,21.078-20.909v.77c-2.109.346-2.555,2.424-3.648,3.725q-29.066,34.538-57.986,69.19c-1.878,2.232-3.755,4.2-2.2,7.418a3.448,3.448,0,0,1-.354,2.978c-3.294,6.5-5.379,13.475-8.034,20.224a32,32,0,0,1-8.126,11.52,8.526,8.526,0,0,1-8.48,2.286,57.58,57.58,0,0,1-14.8-6.226c-4.294-2.532-8.434-5.325-12.7-7.919-3.063-1.862-7.965-1.124-8.227,1.331-.215,2.024-.793,3.063-2.778,3.34a1.6,1.6,0,0,0-1.431,1.554c-.631,5.11-3.548,6.941-8.542,6.21-2.2-.323-2.832,1.116-2.593,3.178,1.939,16.707,2.77,33.614,9.273,49.467a63.6,63.6,0,0,1-24.81,8C112.355,344.721,106.2,345.536,100.042,346.3Zm89.507-91.03c3.124,1.37,5.518,1.955,7.1-1.439C194.6,255.068,192.126,253.59,189.548,255.268Z" fill="#010101"/>
      <path id="パス_32" data-name="パス 32" d="M246.31,331.279c2.57-1.678,5.056-.2,7.1-1.439C251.828,333.234,249.434,332.649,246.31,331.279Z" transform="translate(-56.762 -76.011)" fill="#fdfdfd"/>
    </g>
    <path id="パス_42" data-name="パス 42" d="M5.148,0H9.672l1.4-11.284h6.5L16.224,0H20.8l1.352-11.284h5.512v-4.94h-4.94l.884-7.124H28.86V-28.34H24.232l1.144-9.984h-4.42l-1.3,9.984H13.1l1.2-9.984H9.88L8.58-28.34H3.224v4.992H7.956l-.884,7.124H2.028v4.94H6.5ZM11.6-16.224l.884-7.124h6.552l-.884,7.124ZM35.36,0h6.916V-16.068c0-3.64-.624-9-.988-12.636H41.5l3.068,9.048,5.98,16.172h4.42l5.928-16.172,3.12-9.048h.208c-.364,3.64-.936,9-.936,12.636V0H70.3V-38.48H61.776l-6.4,17.992c-.832,2.392-1.508,4.94-2.34,7.436h-.26c-.78-2.5-1.508-5.044-2.34-7.436L43.888-38.48H35.36ZM91.312.728c7.28,0,13.988-5.616,13.988-15.236,0-9.724-6.708-15.34-13.988-15.34s-13.988,5.616-13.988,15.34C77.324-4.888,84.032.728,91.312.728Zm0-6.24c-3.952,0-6.188-3.536-6.188-9,0-5.512,2.236-9.1,6.188-9.1s6.188,3.588,6.188,9.1C97.5-9.048,95.264-5.512,91.312-5.512ZM117.832,0h8.84L136.4-29.12h-7.332L124.8-14.612c-.78,2.86-1.612,5.876-2.34,8.84h-.26c-.78-2.964-1.612-5.98-2.34-8.84L115.6-29.12h-7.7Zm23.4,0h7.592V-29.12h-7.592Zm3.848-33.8a4.233,4.233,0,0,0,4.524-4.16c0-2.5-1.924-4.16-4.524-4.16-2.652,0-4.576,1.664-4.576,4.16C140.5-35.568,142.428-33.8,145.08-33.8ZM169.676.728A18.369,18.369,0,0,0,179.868-2.5l-2.6-4.68a12,12,0,0,1-6.552,2.028c-4.316,0-7.436-2.5-8.06-7.28H180.6a14.205,14.205,0,0,0,.364-3.484c0-8.06-4.16-13.936-12.168-13.936-6.968,0-13.572,5.876-13.572,15.34C155.22-4.94,161.564.728,169.676.728Zm-7.124-18.2c.572-4.264,3.276-6.448,6.344-6.448,3.744,0,5.512,2.5,5.512,6.448Z" transform="translate(-4900 828)"/>
    <path id="パス_43" data-name="パス 43" d="M5.148,0H9.672l1.4-11.284h6.5L16.224,0H20.8l1.352-11.284h5.512v-4.94h-4.94l.884-7.124H28.86V-28.34H24.232l1.144-9.984h-4.42l-1.3,9.984H13.1l1.2-9.984H9.88L8.58-28.34H3.224v4.992H7.956l-.884,7.124H2.028v4.94H6.5ZM11.6-16.224l.884-7.124h6.552l-.884,7.124ZM35.36,0H46.332C57.668,0,64.948-6.448,64.948-19.4c0-13-7.28-19.084-19.032-19.084H35.36Zm7.7-6.188V-32.344h2.392c7.176,0,11.648,3.536,11.648,12.948,0,9.36-4.472,13.208-11.648,13.208ZM84.5.728A18.369,18.369,0,0,0,94.692-2.5l-2.6-4.68A12,12,0,0,1,85.54-5.148c-4.316,0-7.436-2.5-8.06-7.28H95.42a14.206,14.206,0,0,0,.364-3.484c0-8.06-4.16-13.936-12.168-13.936-6.968,0-13.572,5.876-13.572,15.34C70.044-4.94,76.388.728,84.5.728Zm-7.124-18.2c.572-4.264,3.276-6.448,6.344-6.448,3.744,0,5.512,2.5,5.512,6.448ZM110.4.728c7.592,0,11.6-4.108,11.6-9.2,0-5.408-4.264-7.332-8.112-8.788-3.068-1.144-5.928-1.924-5.928-4.056,0-1.664,1.248-2.808,3.848-2.808,2.184,0,4.212,1.04,6.292,2.5l3.432-4.628a16.3,16.3,0,0,0-9.932-3.588c-6.552,0-10.816,3.692-10.816,8.944,0,4.836,4.264,7.072,7.956,8.476,3.068,1.2,6.084,2.184,6.084,4.368,0,1.82-1.3,3.068-4.212,3.068-2.7,0-5.2-1.144-7.8-3.172L99.32-3.38A18.348,18.348,0,0,0,110.4.728ZM127.816,0h7.592V-29.12h-7.592Zm3.848-33.8a4.233,4.233,0,0,0,4.524-4.16c0-2.5-1.924-4.16-4.524-4.16-2.652,0-4.576,1.664-4.576,4.16C127.088-35.568,129.012-33.8,131.664-33.8Zm22.2,46.436c9.724,0,15.808-4.472,15.808-10.348,0-5.1-3.8-7.28-10.816-7.28h-4.94c-3.432,0-4.576-.832-4.576-2.392a2.9,2.9,0,0,1,1.248-2.5,12.4,12.4,0,0,0,3.744.676c6.24,0,11.232-3.328,11.232-9.88a7.326,7.326,0,0,0-1.352-4.42h4.992V-29.12H158.7a13.7,13.7,0,0,0-4.368-.728c-6.188,0-11.752,3.692-11.752,10.556a9.624,9.624,0,0,0,3.848,7.592v.208a7.226,7.226,0,0,0-3.224,5.46,5.52,5.52,0,0,0,2.652,4.888v.26C143.208.624,141.7,2.7,141.7,5.148,141.7,10.3,147,12.636,153.868,12.636Zm.468-26.572c-2.548,0-4.576-1.924-4.576-5.356s1.976-5.356,4.576-5.356,4.524,1.924,4.524,5.356S156.884-13.936,154.336-13.936ZM155.012,7.8c-4.264,0-6.968-1.4-6.968-3.848a4.368,4.368,0,0,1,1.924-3.38,16.435,16.435,0,0,0,4.056.416h3.536c3.12,0,4.836.52,4.836,2.6C162.4,5.876,159.38,7.8,155.012,7.8ZM174.668,0h7.592V-20.02c2.184-2.132,3.692-3.276,6.084-3.276,2.86,0,4.108,1.612,4.108,6.084V0H200.1V-18.148c0-7.332-2.7-11.7-9-11.7-3.952,0-6.916,2.08-9.464,4.576h-.208l-.52-3.848h-6.24Z" transform="translate(-4707 948)"/>
    <path id="パス_44" data-name="パス 44" d="M5.148,0H9.672l1.4-11.284h6.5L16.224,0H20.8l1.352-11.284h5.512v-4.94h-4.94l.884-7.124H28.86V-28.34H24.232l1.144-9.984h-4.42l-1.3,9.984H13.1l1.2-9.984H9.88L8.58-28.34H3.224v4.992H7.956l-.884,7.124H2.028v4.94H6.5ZM11.6-16.224l.884-7.124h6.552l-.884,7.124ZM46.852.728C55.744.728,61-4.628,61-10.92c0-5.564-3.068-8.528-7.748-10.452L48.2-23.5c-3.276-1.3-6.032-2.288-6.032-5.044,0-2.548,2.184-4.056,5.564-4.056A12.275,12.275,0,0,1,55.9-29.432l3.9-4.836a17.077,17.077,0,0,0-12.064-4.94c-7.8,0-13.312,4.836-13.312,11.128,0,5.616,3.9,8.736,7.8,10.348l5.148,2.184c3.432,1.456,5.772,2.34,5.772,5.2,0,2.7-2.132,4.42-6.136,4.42a15.139,15.139,0,0,1-9.776-4.264l-4.42,5.3A20.505,20.505,0,0,0,46.852.728ZM67.808,0h7.28V-15.444c0-4.42-.572-9.256-.936-13.416h.26l3.9,8.268L89.44,0h7.8V-38.48H89.96v15.34c0,4.368.572,9.464.988,13.468h-.26l-3.848-8.32L75.66-38.48H67.808Zm50.44.728c8.892,0,14.144-5.356,14.144-11.648,0-5.564-3.068-8.528-7.748-10.452L119.6-23.5c-3.276-1.3-6.032-2.288-6.032-5.044,0-2.548,2.184-4.056,5.564-4.056a12.275,12.275,0,0,1,8.164,3.172l3.9-4.836a17.077,17.077,0,0,0-12.064-4.94c-7.8,0-13.312,4.836-13.312,11.128,0,5.616,3.9,8.736,7.8,10.348l5.148,2.184c3.432,1.456,5.772,2.34,5.772,5.2,0,2.7-2.132,4.42-6.136,4.42a15.139,15.139,0,0,1-9.776-4.264l-4.42,5.3A20.505,20.505,0,0,0,118.248.728Z" transform="translate(-5034 1277)"/>
    <path id="パス_45" data-name="パス 45" d="M5.148,0H9.672l1.4-11.284h6.5L16.224,0H20.8l1.352-11.284h5.512v-4.94h-4.94l.884-7.124H28.86V-28.34H24.232l1.144-9.984h-4.42l-1.3,9.984H13.1l1.2-9.984H9.88L8.58-28.34H3.224v4.992H7.956l-.884,7.124H2.028v4.94H6.5ZM11.6-16.224l.884-7.124h6.552l-.884,7.124ZM35.36,0H59.54V-6.448H43.056v-10.3h13.52v-6.448H43.056v-8.892H58.968v-6.4H35.36ZM72.644,0h8.84l9.724-29.12H83.876L79.612-14.612c-.78,2.86-1.612,5.876-2.34,8.84h-.26c-.78-2.964-1.612-5.98-2.34-8.84L70.408-29.12h-7.7Zm35.62.728A18.369,18.369,0,0,0,118.456-2.5l-2.6-4.68A12,12,0,0,1,109.3-5.148c-4.316,0-7.436-2.5-8.06-7.28h17.94a14.206,14.206,0,0,0,.364-3.484c0-8.06-4.16-13.936-12.168-13.936-6.968,0-13.572,5.876-13.572,15.34C93.808-4.94,100.152.728,108.264.728Zm-7.124-18.2c.572-4.264,3.276-6.448,6.344-6.448,3.744,0,5.512,2.5,5.512,6.448ZM125.84,0h7.592V-20.02c2.184-2.132,3.692-3.276,6.084-3.276,2.86,0,4.108,1.612,4.108,6.084V0h7.644V-18.148c0-7.332-2.7-11.7-9-11.7-3.952,0-6.916,2.08-9.464,4.576H132.6l-.52-3.848h-6.24Zm43.992.728a18.819,18.819,0,0,0,6.136-1.092L174.72-5.928a8.508,8.508,0,0,1-2.86.624c-2.6,0-3.952-1.56-3.952-4.888v-12.9h7.176V-29.12h-7.176v-7.8h-6.4l-.884,7.8-4.472.364v5.668h4.108v12.9C160.264-3.64,162.916.728,169.832.728Z" transform="translate(-4565 1182)"/>
  </g>
</svg>
