<svg xmlns="http://www.w3.org/2000/svg" width="334" height="334" viewBox="0 0 334 334">
  <g id="グループ_211" data-name="グループ 211" transform="translate(-1472 -5388)">
    <g id="パス_89" data-name="パス 89" transform="translate(1472 5388)" fill="none">
      <path d="M167,0A167,167,0,1,1,0,167,167,167,0,0,1,167,0Z" stroke="none"/>
      <path d="M 167 7 C 78.77569580078125 7 7 78.77569580078125 7 167 C 7 255.2243041992188 78.77569580078125 327 167 327 C 255.2243041992188 327 327 255.2243041992188 327 167 C 327 78.77569580078125 255.2243041992188 7 167 7 M 167 0 C 259.2315673828125 0 334 74.76846313476562 334 167 C 334 259.2315673828125 259.2315673828125 334 167 334 C 74.76846313476562 334 0 259.2315673828125 0 167 C 0 74.76846313476562 74.76846313476562 0 167 0 Z" stroke="none" fill="#000"/>
    </g>
    <path id="パス_90" data-name="パス 90" d="M-90.3.448A11.151,11.151,0,0,0-82.624-2.4V-13.088H-91.04v3.872h4.192v4.672a4.774,4.774,0,0,1-2.976.9c-4.64,0-7.008-3.1-7.008-8.256,0-5.088,2.752-8.16,6.688-8.16A6.218,6.218,0,0,1-85.5-18.08l2.528-3.008a9.964,9.964,0,0,0-7.328-3.04c-6.3,0-11.36,4.576-11.36,12.384C-101.664-3.84-96.768.448-90.3.448Zm19.872,0c4.48,0,8.608-3.456,8.608-9.376,0-5.984-4.128-9.44-8.608-9.44s-8.608,3.456-8.608,9.44C-79.04-3.008-74.912.448-70.432.448Zm0-3.84c-2.432,0-3.808-2.176-3.808-5.536,0-3.392,1.376-5.6,3.808-5.6s3.808,2.208,3.808,5.6C-66.624-5.568-68-3.392-70.432-3.392ZM-50.4.448c4.48,0,8.608-3.456,8.608-9.376,0-5.984-4.128-9.44-8.608-9.44s-8.608,3.456-8.608,9.44C-59.008-3.008-54.88.448-50.4.448Zm0-3.84c-2.432,0-3.808-2.176-3.808-5.536,0-3.392,1.376-5.6,3.808-5.6s3.808,2.208,3.808,5.6C-46.592-5.568-47.968-3.392-50.4-3.392ZM-31.552,7.776c5.984,0,9.728-2.752,9.728-6.368,0-3.136-2.336-4.48-6.656-4.48h-3.04c-2.112,0-2.816-.512-2.816-1.472a1.785,1.785,0,0,1,.768-1.536,7.632,7.632,0,0,0,2.3.416c3.84,0,6.912-2.048,6.912-6.08a4.509,4.509,0,0,0-.832-2.72h3.072V-17.92h-6.464a8.43,8.43,0,0,0-2.688-.448c-3.808,0-7.232,2.272-7.232,6.5A5.922,5.922,0,0,0-36.128-7.2v.128a4.447,4.447,0,0,0-1.984,3.36A3.4,3.4,0,0,0-36.48-.7v.16a4.351,4.351,0,0,0-2.56,3.712C-39.04,6.336-35.776,7.776-31.552,7.776Zm.288-16.352c-1.568,0-2.816-1.184-2.816-3.3s1.216-3.3,2.816-3.3,2.784,1.184,2.784,3.3S-29.7-8.576-31.264-8.576ZM-30.848,4.8c-2.624,0-4.288-.864-4.288-2.368A2.688,2.688,0,0,1-33.952.352a10.114,10.114,0,0,0,2.5.256h2.176c1.92,0,2.976.32,2.976,1.6C-26.3,3.616-28.16,4.8-30.848,4.8ZM-14.336.448A6.406,6.406,0,0,0-11.9.032l-.576-3.488a2.651,2.651,0,0,1-.64.064c-.448,0-.96-.352-.96-1.408V-25.536h-4.672V-5.024C-18.752-1.7-17.6.448-14.336.448ZM-.9.448A11.3,11.3,0,0,0,5.376-1.536l-1.6-2.88A7.386,7.386,0,0,1-.256-3.168a4.708,4.708,0,0,1-4.96-4.48H5.824a8.742,8.742,0,0,0,.224-2.144c0-4.96-2.56-8.576-7.488-8.576-4.288,0-8.352,3.616-8.352,9.44C-9.792-3.04-5.888.448-.9.448Zm-4.384-11.2c.352-2.624,2.016-3.968,3.9-3.968,2.3,0,3.392,1.536,3.392,3.968Zm32.1-12.16a48.393,48.393,0,0,0-4.224-3.648L19.68-24.512a45.787,45.787,0,0,1,4.128,3.776Zm-15.328.8a26.283,26.283,0,0,1,1.856,2.784c.48.832.928,1.728,1.408,2.688-.96.416-1.92.832-2.848,1.184a18.863,18.863,0,0,1-3.136,1.024l1.856,4.064c1.344-.608,3.36-1.7,5.632-2.816l.832,1.952A95.475,95.475,0,0,1,21.344,1.92L25.728.8c-1.088-3.552-3.52-10.336-4.992-13.792l-.9-1.952c3.392-1.568,6.848-2.88,9.312-2.88,2.4,0,3.776,1.312,3.776,2.944,0,2.272-1.7,3.552-4.128,3.552a11.705,11.705,0,0,1-4.352-1.056l-.1,3.968a15.326,15.326,0,0,0,4.864.9c4.864,0,7.9-2.784,7.9-7.232,0-3.68-2.944-6.656-7.872-6.656-3.232,0-7.072,1.5-10.912,3.2-.48-1.056-.992-2.08-1.472-3.008-.352-.576-.992-1.888-1.28-2.464ZM46.464-9.152A47.481,47.481,0,0,0,55.616-12.8a40.973,40.973,0,0,0,8.832,3.648ZM49.632-1.7v-4H61.216v4Zm10.88-19.072a23.9,23.9,0,0,1-4.9,3.776,26.067,26.067,0,0,1-4.9-3.776Zm3.552-3.456-.64.192H53.28c.512-.7.96-1.44,1.408-2.144l-3.616-1.248A25.79,25.79,0,0,1,40.9-17.92a23.645,23.645,0,0,1,2.816,2.848,33.012,33.012,0,0,0,4.48-3.392,32.083,32.083,0,0,0,3.84,3.36,52.32,52.32,0,0,1-11.776,3.648,15.41,15.41,0,0,1,1.856,3.424c1.216-.256,2.432-.576,3.648-.928V2.848h3.872V1.664H61.216V2.72h4.1V-8.928c.992.256,1.952.512,2.976.7a18.065,18.065,0,0,1,2.464-3.552A45.744,45.744,0,0,1,59.424-15.04a25.521,25.521,0,0,0,7.392-7.424Zm24.32,15.04v-1.632h2.848v1.632Zm0-5.44h2.848v1.568H88.384Zm9.44,0v1.568H94.88v-1.568Zm0,5.44H94.88v-1.632h2.944ZM94.88-.768v-1.44h6.368v-2.88H94.88V-6.56h6.368V-17.28H94.88v-1.312h6.88v-2.944H94.88v-1.6A62.623,62.623,0,0,0,101.7-24L99.52-26.848a109.406,109.406,0,0,1-15.168,1.312,10.023,10.023,0,0,1,.832,2.848c1.92-.032,3.968-.1,6.048-.192v1.344h-7.2v2.944h7.2v1.312H85.088v7.744c-.7-.832-3.2-3.424-4.032-4.128v-.928H84.48v-3.552H81.056v-4.512a33.366,33.366,0,0,0,3.808-1.216l-2.528-2.912a45.744,45.744,0,0,1-9.92,2.656,13.191,13.191,0,0,1,1.056,2.912c1.248-.16,2.56-.384,3.9-.64v3.712H72.8v3.552h4.064a31.271,31.271,0,0,1-4.736,8.576A18.89,18.89,0,0,1,73.888-2.4a28.437,28.437,0,0,0,3.488-6.336V2.752h3.68V-9.728A28.041,28.041,0,0,1,82.976-6.5l2.112-2.88V-6.56h6.144v1.472H84.864v2.88h6.368v1.44h-8.16V2.24h19.36V-.768ZM-117.968,47.448c5.472,0,8.7-3.3,8.7-7.168,0-3.424-1.888-5.248-4.768-6.432l-3.1-1.312c-2.016-.8-3.712-1.408-3.712-3.1,0-1.568,1.344-2.5,3.424-2.5a7.554,7.554,0,0,1,5.024,1.952l2.4-2.976a10.509,10.509,0,0,0-7.424-3.04c-4.8,0-8.192,2.976-8.192,6.848,0,3.456,2.4,5.376,4.8,6.368l3.168,1.344c2.112.9,3.552,1.44,3.552,3.2,0,1.664-1.312,2.72-3.776,2.72a9.317,9.317,0,0,1-6.016-2.624l-2.72,3.264A12.619,12.619,0,0,0-117.968,47.448Zm12.9-.448h4.48V37.5c0-2.72-.352-5.7-.576-8.256h.16l2.4,5.088L-91.76,47h4.8V23.32h-4.48v9.44c0,2.688.352,5.824.608,8.288h-.16l-2.368-5.12-6.88-12.608h-4.832Zm31.04.448c5.472,0,8.7-3.3,8.7-7.168,0-3.424-1.888-5.248-4.768-6.432l-3.1-1.312c-2.016-.8-3.712-1.408-3.712-3.1,0-1.568,1.344-2.5,3.424-2.5a7.554,7.554,0,0,1,5.024,1.952l2.4-2.976a10.509,10.509,0,0,0-7.424-3.04c-4.8,0-8.192,2.976-8.192,6.848,0,3.456,2.4,5.376,4.8,6.368l3.168,1.344c2.112.9,3.552,1.44,3.552,3.2,0,1.664-1.312,2.72-3.776,2.72a9.317,9.317,0,0,1-6.016-2.624l-2.72,3.264A12.619,12.619,0,0,0-74.032,47.448Zm18.72-6.208c-1.184,0-2.464-1.568-2.464-4.768a9.936,9.936,0,0,1,8.032-9.184,50.867,50.867,0,0,1-1.7,7.68C-52.72,39.256-54,41.24-55.312,41.24Zm8.7,7.072c8-1.216,12.1-5.952,12.1-12.608,0-6.912-4.96-12.384-12.8-12.384-8.224,0-14.592,6.272-14.592,13.568,0,5.344,2.976,9.216,6.464,9.216,3.456,0,6.208-3.9,8.1-10.3a68.869,68.869,0,0,0,1.888-8.608c4.256.736,6.624,4,6.624,8.384,0,4.608-3.136,7.52-7.2,8.48-.832.192-1.728.352-2.944.512Zm22.112-20.7H-1.52V23.96H-13.072V19.928H-17.04V23.96H-28.3v8.064c0,4.512-.224,11.072-2.976,15.584a14.622,14.622,0,0,1,3.264,2.112c3.008-4.832,3.52-12.64,3.52-17.7Zm23.68,20.48c-1.152-3.36-4.16-8.192-6.912-11.84l-3.552,1.536A60.153,60.153,0,0,1-7.536,43.7c-3.3.192-6.656.352-9.7.48a143.712,143.712,0,0,0,4.448-14.208l-4.352-.864a97.96,97.96,0,0,1-4.192,15.264c-1.376.032-2.624.1-3.744.128l.352,3.936c4.96-.288,12.128-.8,18.88-1.344a19.489,19.489,0,0,1,1.088,2.752ZM22.9,40.5v4.32H9.456V40.5ZM5.552,49.912h3.9V48.344H22.9v1.472h4.1V36.984H5.552Zm13.216-18.72v-3.68h9.344V24.024H18.768v-4.16H14.736v4.16H9.648a28.569,28.569,0,0,0,1.248-3.1l-3.808-.96a22.888,22.888,0,0,1-5.44,9.152,22.011,22.011,0,0,1,3.488,2.016A22.468,22.468,0,0,0,7.76,27.512h6.976v3.68H1.872v3.52H30.064v-3.52Zm26.56-7.616H58.576v1.7H62.1V20.888H42v4.384h3.328Zm1.408,13.056V35.384H50v1.248Zm0-4.7H50v1.248H46.736Zm10.368,0v1.248H53.712V31.928Zm0,4.7H53.712V35.384H57.1ZM50,44.984h3.712V42.872h8.7V40.12h-8.7V38.936H60.5V29.56H53.712V28.44H61.04V25.816H53.712V24.152H50v1.664H42.9V28.44H50v1.12H43.5v9.376H50V40.12H41.712v2.752H50Zm-8.672-19.2A27.808,27.808,0,0,0,36.3,20.7l-2.912,2.176a24.936,24.936,0,0,1,4.8,5.312Zm-.864,6.528h-7.2V35.8h3.584v6.976A38.35,38.35,0,0,1,32.88,45.72L34.672,49.5C36.3,48.12,37.616,46.9,38.9,45.656c1.92,2.464,4.48,3.392,8.288,3.552,3.9.16,10.688.1,14.656-.1A17.351,17.351,0,0,1,63.024,45.4c-4.416.352-11.968.448-15.808.288-3.264-.128-5.5-1.024-6.752-3.168Zm41.728,4.544V32.92h6.752v3.936Zm-9.952,0c.064-1.184.1-2.336.1-3.36V32.92h6.016v3.936Zm6.112-11.2v3.712H72.336V25.656Zm10.592,3.712H82.192V25.656h6.752ZM92.72,22.04H68.56V33.464c0,4.48-.288,10.176-3.776,14.016a14.056,14.056,0,0,1,3.008,2.464c2.3-2.5,3.456-6.016,4.032-9.5h6.528v8.928h3.84V40.44h6.752v4.8c0,.576-.224.768-.832.768-.576,0-2.688.032-4.48-.064a14.387,14.387,0,0,1,1.216,3.648c2.88.032,4.832-.032,6.144-.672,1.28-.576,1.728-1.6,1.728-3.648Zm17.568,2.624.032,4.1a87.707,87.707,0,0,0,13.6,0v-4.1A64.66,64.66,0,0,1,110.288,24.664ZM109.2,37.88a19.53,19.53,0,0,0-.544,4.128c0,3.232,2.592,5.216,8.064,5.216a44.048,44.048,0,0,0,8.192-.64l-.1-4.288a36.522,36.522,0,0,1-7.936.832c-3.2,0-4.416-.832-4.416-2.24a10.428,10.428,0,0,1,.384-2.656ZM100.976,22.2a23.679,23.679,0,0,1-.32,3.1,87.865,87.865,0,0,0-1.312,12.544,40.455,40.455,0,0,0,1.248,10.368l3.648-.256c-.032-.448-.032-.96-.064-1.312a9.309,9.309,0,0,1,.192-1.472A76.4,76.4,0,0,1,106.64,37.4l-1.984-1.536c-.448,1.024-.96,2.08-1.408,3.2a15.293,15.293,0,0,1-.128-2.048A78.35,78.35,0,0,1,104.656,25.4a26.631,26.631,0,0,1,.768-2.816ZM-118.912,81.36v-.32h3.04V77.52h-3.04V76.112l2.016.576c.768-1.856,1.632-4.832,2.4-7.328l-3.008-.64a53.66,53.66,0,0,1-1.408,6.5v-8.16H-122.3v8.7a28.626,28.626,0,0,0-1.568-6.88l-2.464.64a30.193,30.193,0,0,1,1.44,7.2l2.592-.608v1.376h-4V81.04h3.52a30.086,30.086,0,0,1-4.064,8.32,30.8,30.8,0,0,1,1.76,3.936,26.752,26.752,0,0,0,2.784-5.824v9.216h3.392V85.808a38.275,38.275,0,0,1,1.888,4.032l2.4-2.944c-.608-.928-3.392-4.7-4.224-5.6Zm9.088,8.128V87.92h7.712v1.568Zm7.712-5.6v1.568h-7.712V83.888ZM-98.56,81.2h-14.752V96.816h3.488V91.952h7.712V93.3c0,.352-.128.48-.544.48-.384.032-1.728.032-2.912-.032a11.845,11.845,0,0,1,.992,3.008,11.364,11.364,0,0,0,4.608-.512c1.088-.48,1.408-1.312,1.408-2.88Zm-5.76-4.032V75.76h6.112V73.232h-6.112v-1.28H-97.5v-2.72h-6.816V66.96H-107.9v2.272h-6.208v2.72h6.208v1.28h-5.44V75.76h5.44v1.408h-7.1V79.92h18.272V77.168Zm27.616.48v1.728h-3.68V77.648Zm7.168,1.728h-3.776V77.648h3.776Zm-3.776,4.448V82.032h3.776v1.792Zm-7.072,0V82.032h3.68v1.792Zm0,2.752h3.68v4.672h3.392V86.576h3.776v1.472c0,.32-.1.448-.48.48-.32,0-1.44,0-2.432-.032a10.405,10.405,0,0,1,.928,2.976c1.92,0,3.3,0,4.32-.544,1.024-.512,1.312-1.312,1.312-2.848V74.9H-69.76c-.544-.32-1.216-.64-1.92-.992a36.424,36.424,0,0,0,5.7-4.32l-2.272-1.824-.736.192H-83.68v2.88h11.392a29.567,29.567,0,0,1-2.56,1.7c-1.312-.576-2.656-1.088-3.776-1.5l-2.464,2.048c1.312.512,2.848,1.152,4.288,1.824h-7.168v16.48h3.584ZM-85.728,72.5A27.409,27.409,0,0,0-91.3,67.568L-93.92,70a25.976,25.976,0,0,1,5.344,5.216Zm-.96,6.816H-94.4V82.8h4.064v6.976a44.048,44.048,0,0,1-4.48,2.912l1.76,3.808c1.792-1.344,3.3-2.592,4.768-3.84,1.92,2.464,4.448,3.392,8.288,3.552,3.9.16,10.688.1,14.624-.1A15.725,15.725,0,0,1-64.192,92.4c-4.384.352-11.968.448-15.776.288-3.264-.128-5.472-1.024-6.72-3.168ZM-56.7,68.656a19.9,19.9,0,0,1,.416,4.288c0,2.72-.32,11.04-.32,15.3,0,5.408,3.36,7.68,8.544,7.68A16.492,16.492,0,0,0-34.3,88.688l-2.88-3.552c-2.272,3.456-5.6,6.464-10.848,6.464-2.432,0-4.352-1.024-4.352-4.224,0-3.936.224-11.04.384-14.432a32.522,32.522,0,0,1,.416-4.224Zm42.24,13.216a46.558,46.558,0,0,1,6.112-.352,45.773,45.773,0,0,1,5.44.384l.1-3.808a55.018,55.018,0,0,0-5.568-.288c-2.048,0-4.32.16-6.08.32Zm2.5-10.176c-1.728.416-3.52.768-5.312,1.056l.256-1.216c.16-.7.448-2.112.672-2.976l-4.832-.384a16.453,16.453,0,0,1-.128,3.2q-.1.768-.288,1.824c-.96.064-1.888.1-2.816.1a31.2,31.2,0,0,1-4-.256l.1,3.968c1.12.064,2.3.128,3.84.128.64,0,1.344-.032,2.08-.064-.224.9-.448,1.792-.672,2.624-1.184,4.448-3.584,11.1-5.472,14.272L-24.1,95.44a102.2,102.2,0,0,0,5.024-14.656c.352-1.28.672-2.688.96-4.064,2.112-.256,4.256-.608,6.144-1.024Zm-4.448,14.048a21.75,21.75,0,0,0-.544,4.224c0,3.2,2.72,5.056,8.064,5.056a50.708,50.708,0,0,0,6.464-.448l.16-4.064a36.739,36.739,0,0,1-6.592.64c-3.392,0-4.192-1.024-4.192-2.4a10.963,10.963,0,0,1,.448-2.656Zm35.04,3.232V75.92h6.752c.928,0,2.048.064,3.008.128V71.664c-.928.1-2.048.192-3.008.192H7.968a23.49,23.49,0,0,1-3.04-.192v4.384c.8-.064,2.176-.128,3.04-.128h6.176V88.976H6.016A17.28,17.28,0,0,1,2.88,88.72v4.64a26.741,26.741,0,0,1,3.136-.16H27.1a24.812,24.812,0,0,1,2.976.16V88.72a18.752,18.752,0,0,1-2.976.256ZM60.8,80.432c-.832.256-2.016.512-3.264.768-1.44.288-4.064.7-6.944,1.184L49.6,77.3,56,76.272c.96-.128,2.24-.32,2.944-.384L58.176,71.7c-.768.224-1.984.48-3.008.672-1.152.224-3.584.608-6.3,1.056-.256-1.44-.448-2.5-.512-2.944-.16-.768-.256-1.856-.352-2.5l-4.512.736c.224.768.448,1.536.64,2.432.1.512.32,1.568.576,2.912-2.752.448-5.216.8-6.336.928-.992.128-1.952.192-2.976.224l.864,4.416c.96-.256,1.824-.448,2.944-.672.992-.16,3.456-.576,6.272-1.024l.96,5.12c-3.232.512-6.208.992-7.68,1.216-1.024.128-2.464.32-3.328.352l.9,4.288c.736-.192,1.824-.416,3.2-.672s4.384-.768,7.648-1.312c.512,2.688.928,4.9,1.088,5.824.192.928.288,2.016.448,3.232l4.608-.832c-.288-1.024-.608-2.176-.832-3.136-.192-.992-.64-3.136-1.152-5.76,2.816-.448,5.408-.864,6.944-1.12,1.216-.192,2.528-.416,3.36-.48Zm26.784-10.08a11.553,11.553,0,0,1-3.328.416H72.992a35.751,35.751,0,0,1-3.776-.224v4.544c.672-.032,2.432-.224,3.776-.224H83.84a24.794,24.794,0,0,1-4.768,7.84,36.254,36.254,0,0,1-13.12,9.184l3.3,3.456A42.151,42.151,0,0,0,81.28,86.352a72.973,72.973,0,0,1,8.064,9.056l3.648-3.168a89.959,89.959,0,0,0-8.928-9.152,47.048,47.048,0,0,0,5.024-8.8,15.121,15.121,0,0,1,1.12-1.984Zm33.568.64a1.856,1.856,0,1,1,1.856,1.824A1.857,1.857,0,0,1,121.152,70.992Zm-1.984,0a3.84,3.84,0,1,0,3.84-3.84A3.845,3.845,0,0,0,119.168,70.992Zm-17.5,13.056a38.554,38.554,0,0,1-4.992,8.9l4.48,1.888a44,44,0,0,0,4.736-9.152,80.016,80.016,0,0,0,2.72-9.632c.128-.7.48-2.272.768-3.2l-4.672-.96A46.109,46.109,0,0,1,101.664,84.048Zm15.808-.672a98.875,98.875,0,0,1,3.328,11.3l4.736-1.536c-.9-3.168-2.592-8.288-3.744-11.168-1.184-3.1-3.392-8-4.7-10.5l-4.256,1.376A89.643,89.643,0,0,1,117.472,83.376ZM-77.056,131.208c1.184-.1,3.328-.16,5.152-.16H-54.72c1.344,0,2.976.128,3.744.16v-5.024c-.832.064-2.272.192-3.744.192H-71.9c-1.664,0-4-.1-5.152-.192Zm56.864-1.984a104.513,104.513,0,0,0-13.376-4.96v-4.7a34.8,34.8,0,0,1,.288-3.872h-4.992a22.318,22.318,0,0,1,.32,3.872v18.368a34.242,34.242,0,0,1-.32,4.448h4.992c-.128-1.28-.288-3.52-.288-4.448v-9.056a92.429,92.429,0,0,1,11.552,4.768ZM15.36,117.64a37.869,37.869,0,0,0-2.592-4.352l-2.528,1.056a31.928,31.928,0,0,1,2.592,4.416Zm-21.5-2.08a35.085,35.085,0,0,1-.672,6.72c-1.6.128-3.1.224-4.1.256a29.421,29.421,0,0,1-3.36,0l.352,4.288c.992-.16,2.624-.384,3.52-.48.608-.1,1.6-.224,2.72-.352-1.12,4.32-3.3,10.656-6.368,14.816l4.128,1.664c2.912-4.672,5.216-12.128,6.464-16.928.9-.064,1.664-.128,2.176-.128,1.984,0,3.072.352,3.072,2.88,0,3.136-.416,6.912-1.28,8.672a2.329,2.329,0,0,1-2.368,1.376,18.491,18.491,0,0,1-3.9-.672l.7,4.192a17.941,17.941,0,0,0,3.776.448c2.432,0,4.16-.7,5.216-2.912,1.344-2.752,1.792-7.808,1.792-11.552C5.728,123.3,3.36,121.8,0,121.8c-.64,0-1.6.064-2.656.128.224-1.152.48-2.3.672-3.264.16-.8.352-1.792.544-2.624Zm17.7,3.552c-.64-1.184-1.76-3.2-2.56-4.384l-2.528,1.056A35.38,35.38,0,0,1,8.64,119.56L5.7,120.808c2.272,2.816,4.512,8.416,5.344,11.936l4.032-1.888a62.967,62.967,0,0,0-5.152-11.04Zm29.472,5.024H32.992v-4.672h8.032Zm0,8.384H32.992v-4.832h8.032Zm3.808-16.576H29.344v20.1H44.832ZM28.128,127.4l-3.136.8v-4.7h3.36v-3.52h-3.36v-6.048H21.28v6.048H17.312v3.52H21.28v5.6c-1.6.384-3.136.736-4.384.992l.992,3.648,3.392-.9V139.5c0,.448-.16.608-.608.608-.416,0-1.76,0-3.008-.032a12.643,12.643,0,0,1,1.056,3.456c2.24,0,3.808-.1,4.864-.7,1.056-.544,1.408-1.472,1.408-3.328V131.88c1.216-.32,2.4-.672,3.584-.992Zm-.992,11.776v3.552H46.784v-3.552Zm45.44-24.32a45.84,45.84,0,0,1-3.488,8l3.328,1.152a72.112,72.112,0,0,0,4.416-7.9Zm-13.7,7.488a28.519,28.519,0,0,0-3.968-7.2l-3.456,1.376a30.183,30.183,0,0,1,3.744,7.36Zm7.232-8.48H61.92v11.072h-9.7v3.808h20v2.944H53.312v3.68H72.224V138.7H51.488v3.776H72.224v1.312h4.064V124.936H66.112Z" transform="translate(1641 5497)"/>
  </g>
</svg>
