<svg xmlns="http://www.w3.org/2000/svg" width="334" height="334" viewBox="0 0 334 334">
  <g id="グループ_210" data-name="グループ 210" transform="translate(-1066 -5388)">
    <g id="パス_88" data-name="パス 88" transform="translate(1066 5388)" fill="none">
      <path d="M167,0A167,167,0,1,1,0,167,167,167,0,0,1,167,0Z" stroke="none"/>
      <path d="M 167 7 C 78.77569580078125 7 7 78.77569580078125 7 167 C 7 255.2243041992188 78.77569580078125 327 167 327 C 255.2243041992188 327 327 255.2243041992188 327 167 C 327 78.77569580078125 255.2243041992188 7 167 7 M 167 0 C 259.2315673828125 0 334 74.76846313476562 334 167 C 334 259.2315673828125 259.2315673828125 334 167 334 C 74.76846313476562 334 0 259.2315673828125 0 167 C 0 74.76846313476562 74.76846313476562 0 167 0 Z" stroke="none" fill="#000"/>
    </g>
    <path id="パス_92" data-name="パス 92" d="M-112.644-24.336a2.082,2.082,0,0,1-2.088-2.052,2.09,2.09,0,0,1,2.088-2.088,2.082,2.082,0,0,1,2.052,2.088A2.075,2.075,0,0,1-112.644-24.336Zm-22.968-1.224a40.083,40.083,0,0,1-4.284-.288v5.076c.936-.072,2.628-.144,4.284-.144h16.776a23.117,23.117,0,0,1-4.248,10.152C-126-7.092-130.032-4-137.2-2.3l3.924,4.284A28.49,28.49,0,0,0-118.8-7.956c3.024-4,4.572-9.576,5.4-13.1l.288-1.08a2.053,2.053,0,0,0,.468.036,4.318,4.318,0,0,0,4.284-4.284,4.325,4.325,0,0,0-4.284-4.32,4.333,4.333,0,0,0-4.32,4.32,3.987,3.987,0,0,0,.072.684,15.937,15.937,0,0,1-2.052.144Zm54.792,4.68V-5.94H-98.208V-20.88ZM-76-22.032c0-1.08,0-2.412.072-3.492-1.3.072-2.664.072-3.564.072h-19.8c-.972,0-2.34-.036-3.816-.072.072,1.008.072,2.484.072,3.492v17.6c0,1.728-.072,4.86-.108,5.04h4.968l-.036-1.98h17.352l-.036,1.98h4.968c0-.144-.072-3.6-.072-5Zm22.9,10.44h10.98c.792,0,2.412,0,3.42.108l-.036-4.608c-.936.072-2.736.144-3.492.144H-53.1v-6.12h8.46c1.3,0,2.3.072,3.24.108v-4.5a26.847,26.847,0,0,1-3.24.18H-61.956c-1.3,0-2.448-.108-3.492-.18v4.5c1.044-.072,2.2-.108,3.492-.108h3.924v6.12H-63.9c-1.116,0-2.916-.108-3.924-.18v4.716c1.08-.072,2.916-.18,3.924-.18h5.868v6.948c0,3.636,1.62,5.9,8.208,5.9,3.384,0,7.452-.144,9.792-.288l.324-4.86c-2.88.288-6.048.5-9.288.5-2.88,0-4.1-.72-4.1-2.7Zm20.772.576c1.332-.108,3.744-.18,5.8-.18H-7.2c1.512,0,3.348.144,4.212.18v-5.652c-.936.072-2.556.216-4.212.216H-26.532c-1.872,0-4.5-.108-5.8-.216Zm43.092-17.5-2.628,3.96c2.376,1.332,6.12,3.78,8.136,5.184l2.7-4C17.1-24.66,13.14-27.18,10.764-28.512Zm-6.7,25.56L6.768,1.8A43.805,43.805,0,0,0,18.792-2.664,43.468,43.468,0,0,0,33.12-15.588l-2.772-4.9a36.7,36.7,0,0,1-14,13.5A39.948,39.948,0,0,1,4.068-2.952ZM5.22-20.3l-2.628,4A94.022,94.022,0,0,1,10.8-11.2l2.628-4.032C11.592-16.524,7.632-19.008,5.22-20.3Zm58.9,2.484c0-.756,0-1.944.036-2.412-.576.036-1.908.072-2.772.072H47.772c-1.332,0-3.528-.072-4.464-.18v4.356c.864-.072,3.132-.144,4.464-.144h11.88v4.356H48.168c-1.368,0-2.988-.036-3.924-.108v4.248c.828-.036,2.556-.072,3.924-.072H59.652v4.788H46.044a30.89,30.89,0,0,1-3.132-.144V1.368c.612-.036,2.088-.108,3.1-.108H59.652c0,.54,0,1.116-.036,1.44h4.536c0-.648-.036-1.872-.036-2.448Zm16.2-9.54-3.384,3.6a74.852,74.852,0,0,1,9,7.776l3.672-3.78A75.6,75.6,0,0,0,80.316-27.36Zm-4.5,23.976L78.84,1.368A38.987,38.987,0,0,0,92.2-3.708a38.281,38.281,0,0,0,13.32-13.32L102.708-22.1a34.136,34.136,0,0,1-13.1,14A37.1,37.1,0,0,1,75.816-3.384Zm41.652-3.1c-1.332,0-2.772-1.764-2.772-5.364a11.178,11.178,0,0,1,9.036-10.332,57.223,57.223,0,0,1-1.908,8.64C120.384-8.712,118.944-6.48,117.468-6.48Zm9.792,7.956c9-1.368,13.608-6.7,13.608-14.184,0-7.776-5.58-13.932-14.4-13.932-9.252,0-16.416,7.056-16.416,15.264,0,6.012,3.348,10.368,7.272,10.368,3.888,0,6.984-4.392,9.108-11.592a77.475,77.475,0,0,0,2.124-9.684c4.788.828,7.452,4.5,7.452,9.432,0,5.184-3.528,8.46-8.1,9.54-.936.216-1.944.4-3.312.576ZM-94.464,29.664a2.082,2.082,0,0,1-2.088-2.052,2.09,2.09,0,0,1,2.088-2.088,2.082,2.082,0,0,1,2.052,2.088A2.075,2.075,0,0,1-94.464,29.664Zm-22.968-1.224a40.084,40.084,0,0,1-4.284-.288v5.076c.936-.072,2.628-.144,4.284-.144h16.776A23.117,23.117,0,0,1-104.9,43.236c-2.916,3.672-6.948,6.768-14.112,8.46l3.924,4.284a28.49,28.49,0,0,0,14.472-9.936c3.024-4,4.572-9.576,5.4-13.1l.288-1.08a2.053,2.053,0,0,0,.468.036,4.318,4.318,0,0,0,4.284-4.284,4.325,4.325,0,0,0-4.284-4.32,4.333,4.333,0,0,0-4.32,4.32,3.987,3.987,0,0,0,.072.684,15.937,15.937,0,0,1-2.052.144Zm54.792,4.68V48.06H-80.028V33.12Zm4.824-1.152c0-1.08,0-2.412.072-3.492-1.3.072-2.664.072-3.564.072h-19.8c-.972,0-2.34-.036-3.816-.072.072,1.008.072,2.484.072,3.492v17.6c0,1.728-.072,4.86-.108,5.04h4.968l-.036-1.98h17.352l-.036,1.98h4.968c0-.144-.072-3.6-.072-5Zm20.484-3.1.036,4.608a98.67,98.67,0,0,0,15.3,0V28.872A72.742,72.742,0,0,1-37.332,28.872ZM-38.556,43.74a21.971,21.971,0,0,0-.612,4.644c0,3.636,2.916,5.868,9.072,5.868a49.554,49.554,0,0,0,9.216-.72l-.108-4.824a41.087,41.087,0,0,1-8.928.936c-3.6,0-4.968-.936-4.968-2.52a11.732,11.732,0,0,1,.432-2.988ZM-47.808,26.1a26.638,26.638,0,0,1-.36,3.492A98.849,98.849,0,0,0-49.644,43.7a45.512,45.512,0,0,0,1.4,11.664l4.1-.288c-.036-.5-.036-1.08-.072-1.476a10.473,10.473,0,0,1,.216-1.656A85.952,85.952,0,0,1-41.436,43.2l-2.232-1.728c-.5,1.152-1.08,2.34-1.584,3.6a17.2,17.2,0,0,1-.144-2.3A88.145,88.145,0,0,1-43.668,29.7a29.962,29.962,0,0,1,.864-3.168ZM-1.476,48.276c0,2.34-.828,3.384-3.132,3.384-2.484,0-4.284-.648-4.284-2.412,0-1.512,1.656-2.448,4.428-2.448a19.582,19.582,0,0,1,2.952.252C-1.476,47.52-1.476,47.952-1.476,48.276Zm15.408,1.656A28.191,28.191,0,0,0,3.1,43.812c-.18-2.628-.324-5.436-.4-7.6,2.88-.072,7.128-.216,10.116-.5l-.18-4.248c-2.952.324-7.128.468-9.936.54V29.412c.072-1.4.18-3.132.324-4.176H-2.34a22.619,22.619,0,0,1,.36,4.176c.036,1.512.072,3.636.072,5.8,0,1.872.144,4.932.252,7.7A20.459,20.459,0,0,0-3.78,42.8c-6.552,0-9.72,2.952-9.72,6.66,0,4.86,4.176,6.516,9.252,6.516,5.976,0,7.6-3.024,7.6-6.156,0-.36,0-.756-.036-1.224A27.536,27.536,0,0,1,11.2,54.18Zm21.2,1.908c-2.088,0-3.6-.9-3.6-2.232,0-.9.864-1.692,2.2-1.692,1.944,0,3.276,1.512,3.492,3.816A18.794,18.794,0,0,1,35.136,51.84Zm7.848-25.7a17.193,17.193,0,0,1-2.736.36c-2.016.18-9.648.36-11.52.36-1.008,0-2.232-.072-3.24-.18l.144,4.644a23.526,23.526,0,0,1,2.916-.288c1.872-.144,6.768-.36,8.6-.4-1.764,1.548-5.472,4.536-7.452,6.192-2.124,1.728-6.408,5.364-8.928,7.416l3.24,3.348c3.816-4.32,7.38-7.236,12.852-7.236,4.14,0,7.38,2.16,7.38,5.364a5.2,5.2,0,0,1-2.916,4.86c-.54-3.384-3.2-6.084-7.6-6.084-3.78,0-6.408,2.664-6.408,5.544,0,3.564,3.744,5.832,8.712,5.832,8.6,0,12.888-4.464,12.888-10.08,0-5.184-4.608-8.964-10.656-8.964a11.988,11.988,0,0,0-3.348.4c2.232-1.8,5.976-4.968,7.884-6.3q1.188-.81,2.484-1.62ZM59.8,37.224H62.82V39.2H59.8Zm3.024-9.252v1.8H59.8v-1.8Zm4.752,6.48H59.8V32.508h7.776ZM72.18,39.2H66.24v-1.98H71.1V34.236a22.47,22.47,0,0,1,2.952,2.2,22.544,22.544,0,0,0,2.52-4.14H87.516v-3.6H78.048a34.35,34.35,0,0,0,1.26-4.392L75.6,23.544c-.828,4-2.34,7.92-4.5,10.44V29.772H66.24v-1.8h5.688v-3.24H55.908V42.408H72.18Zm14.436,2.088V37.728H74.3v3.564Zm-23.8,6.3h3.1v4.86h-3.1Zm10.116,0v4.86H69.8v-4.86Zm7.02,0v4.86H76.824v-4.86Zm4.176,4.86V44.28H58.9v8.172H55.08v3.672H87.84V52.452ZM97.056,23.616a40.769,40.769,0,0,1-7.128,13.9A33.659,33.659,0,0,1,91.98,42.12,28.781,28.781,0,0,0,94.248,39.1v18h4.068V31.608c1.008-2.232,1.908-4.572,2.664-6.8Zm6.984,9.936a20.57,20.57,0,0,1,2.124,1.728,19.836,19.836,0,0,0,2.088-2.16,23.861,23.861,0,0,0,2.664,2.772,27.35,27.35,0,0,1-6.876,2.664Zm12.636-2.988a14.026,14.026,0,0,1-2.88,3.312,16.928,16.928,0,0,1-3.456-3.312Zm7.164,0V27.108h-11.7c.432-.864.828-1.8,1.188-2.7l-3.888-.9a21.885,21.885,0,0,1-5.4,8.388V28.08h-3.708V51.12h3.708V39.384a15.72,15.72,0,0,1,1.872,2.592,31.04,31.04,0,0,0,8.208-3.708,27.176,27.176,0,0,0,8.568,3.42,17.254,17.254,0,0,1,2.3-3.42,27.924,27.924,0,0,1-7.848-2.412,19.519,19.519,0,0,0,4-5.292Zm-6.012,12.744c-2.376,2.376-7.056,4.176-11.556,5.112a13.07,13.07,0,0,1,2.088,2.664c4.9-1.26,9.684-3.42,12.528-6.516ZM114.3,40.032c-1.764,1.62-5.22,3.1-8.28,3.888a11.119,11.119,0,0,1,2.268,2.448c3.348-1.08,6.912-2.772,9.144-5.04Zm6.12,7.344c-3.1,3.384-9.324,5.328-15.948,6.228a14.921,14.921,0,0,1,2.16,3.384c7.344-1.332,13.716-3.744,17.46-8.136Z" transform="translate(1232.5 5547)"/>
  </g>
</svg>
