<svg xmlns="http://www.w3.org/2000/svg" width="334" height="334" viewBox="0 0 334 334">
  <g id="グループ_209" data-name="グループ 209" transform="translate(-660 -5388)">
    <g id="パス_87" data-name="パス 87" transform="translate(660 5388)" fill="none">
      <path d="M167,0A167,167,0,1,1,0,167,167,167,0,0,1,167,0Z" stroke="none"/>
      <path d="M 167 7 C 78.77569580078125 7 7 78.77569580078125 7 167 C 7 255.2243041992188 78.77569580078125 327 167 327 C 255.2243041992188 327 327 255.2243041992188 327 167 C 327 78.77569580078125 255.2243041992188 7 167 7 M 167 0 C 259.2315673828125 0 334 74.76846313476562 334 167 C 334 259.2315673828125 259.2315673828125 334 167 334 C 74.76846313476562 334 0 259.2315673828125 0 167 C 0 74.76846313476562 74.76846313476562 0 167 0 Z" stroke="none" fill="#000"/>
    </g>
    <path id="パス_91" data-name="パス 91" d="M-57.24-30.492V-13.1c0,.5-.216.648-.864.648-.648.036-2.88.036-4.932-.036a16.135,16.135,0,0,1,1.512,4.428c2.916,0,5.112-.144,6.66-.828,1.548-.648,1.98-1.872,1.98-4.14v-17.46Zm7.74,6.012c2.952,3.78,6.012,8.82,7.092,12.132l4.392-2.34c-1.26-3.456-4.572-8.28-7.488-11.844Zm1.656,9.108C-50.76-5.76-57.276-2.34-69.192-1.008a14.835,14.835,0,0,1,2.268,4.284c13-2.052,20.16-6.228,23.688-17.316Zm-17.6-10.62c-1.116,3.78-3.564,8.64-6.552,11.484a32.5,32.5,0,0,1,3.888,2.52c3.1-3.168,5.724-8.352,7.452-12.888ZM-6.912-17.6H-14.04v-2.2h7.128Zm0,5.148H-14.04v-2.2h7.128Zm0,5.256H-14.04V-9.432h7.128ZM-17.892-23V-4.032H-2.88V-23H-9.252c.288-.756.576-1.584.864-2.448H-2.16v-3.636H-18.972v3.636h6.048c-.144.792-.288,1.656-.432,2.448Zm-13.356-1.188h8.6v2.484h3.564v-5.8h-5.868V-30.42h-4V-27.5H-34.7v5.8h3.456Zm6.48,21.924h-4.356V-5.58h4.356Zm-4.284-6.624a21.187,21.187,0,0,0,3.024-2.34c1.08.828,2.16,1.62,3.06,2.34Zm4.32-9.576A15.386,15.386,0,0,1-26.5-15.912l-2.484-1.62c.252-.324.5-.612.756-.936Zm3.6,11.088.072.072,2.412-2.988c-1.188-1.008-2.952-2.3-4.86-3.6a21.636,21.636,0,0,0,3.528-6.48l-2.412-1.116-.648.18h-3.348a14.209,14.209,0,0,0,.828-1.656l-3.492-.864a17.312,17.312,0,0,1-6.588,7.524,16.149,16.149,0,0,1,2.7,2.484,16.487,16.487,0,0,0,1.548-1.224l2.376,1.656a21.351,21.351,0,0,1-6.624,3.78,12.357,12.357,0,0,1,2.16,3.06l.756-.324V2.448h3.6V1.008h7.992a25.393,25.393,0,0,1,1.98,2.052,25.6,25.6,0,0,0,7.668-4.788l-3.456-2.16A20.4,20.4,0,0,1-21.132.072ZM-9.9-1.764A39.669,39.669,0,0,1-4.284,3.168L-.972.972A45.319,45.319,0,0,0-6.8-3.708ZM11.7-28.872a39.47,39.47,0,0,1-.756,7.56c-1.8.144-3.492.252-4.608.288a33.1,33.1,0,0,1-3.78,0l.4,4.824c1.116-.18,2.952-.432,3.96-.54.684-.108,1.8-.252,3.06-.4-1.3,4.86-3.708,11.988-7.2,16.668L7.452,1.4C10.728-3.852,13.32-12.24,14.688-17.64c1.008-.072,1.872-.144,2.448-.144,2.268,0,3.492.4,3.492,3.24,0,3.528-.468,7.776-1.476,9.756A2.593,2.593,0,0,1,16.488-3.24,20.515,20.515,0,0,1,12.132-4L12.924.72a19.9,19.9,0,0,0,4.248.5c2.7,0,4.68-.792,5.868-3.276,1.512-3.1,2.016-8.784,2.016-13,0-5.112-2.664-6.8-6.444-6.8-.72,0-1.8.072-2.988.144.252-1.3.54-2.592.72-3.672.18-.9.432-2.016.648-2.952Zm13.284,5.688c2.556,3.168,5.112,9.612,6.048,13.572l4.5-2.124c-1.08-3.384-4.068-10.188-6.228-13.248Zm23.04-1.368c2.772.72,10.728,2.376,14.328,2.844l1.08-4.392a112.866,112.866,0,0,1-14.256-2.772Zm1.368,2.844-4.824-.648A129.808,129.808,0,0,1,42.8-7.488l4.14,1.044a7.727,7.727,0,0,1,1.332-2.088A12.5,12.5,0,0,1,58.1-12.708c3.132,0,5.328,1.692,5.328,4,0,4.536-5.652,7.164-16.344,5.652l1.368,4.68c14.832,1.3,19.98-3.708,19.98-10.224,0-4.32-3.636-8.172-9.9-8.172A17.481,17.481,0,0,0,48.06-13.392C48.312-15.444,48.924-19.728,49.392-21.708ZM-45.072,41.868v8.964H-53.1V39.96h11.052V26.892h-4.5v8.892H-53.1V23.868h-4.392V35.784h-6.192V26.892h-4.248V39.96h10.44V50.832h-7.524V41.868h-4.356V57.132h4.356V55.044h19.944V57.1h4.464V41.868ZM-10.656,48.2v2.484h-2.988V48.2Zm2.952,5.04V45.576H-16.56v9.36h2.916V53.244ZM-2.268,40.86H-21.924v1.908c-.864-1.08-3.24-3.816-4.212-4.716v-.468h3.924V33.66h-3.924V28.548c1.4-.36,2.736-.72,3.96-1.152v2.916H-2.3V26.964h-7.74v-3.42h-4.14v3.42H-21.96l-2.772-2.952a46.523,46.523,0,0,1-10.4,2.628,12.6,12.6,0,0,1,1.188,3.24c1.188-.144,2.448-.324,3.708-.54v4.32h-4.68v3.924h4.284a36.36,36.36,0,0,1-4.86,9.684,23.958,23.958,0,0,1,1.98,4.1,29.276,29.276,0,0,0,3.276-6.3v12.06h4.1V42.768c.756,1.3,1.512,2.628,1.944,3.564l2.268-3.06v13.9h3.816v-13H-6.12v9.216c0,.324-.108.432-.432.468-.324,0-1.3,0-2.232-.036A13.266,13.266,0,0,1-7.776,57.1c1.872,0,3.24,0,4.248-.576,1.044-.576,1.26-1.44,1.26-3.1ZM-15.8,34.452h7.488v2.2H-15.8Zm11.3,5.076V31.572H-19.4v7.956ZM16.524,38.34V44.1H9.684V38.34ZM20.772,48.2V34.272H5.508V50.94H9.684V48.2ZM34.632,25.92H2.2v4.32h23.8V51.624c0,.756-.324,1.008-1.152,1.008-.864,0-4,.036-6.552-.108a19.417,19.417,0,0,1,1.764,4.536c3.672,0,6.336-.072,8.136-.792,1.692-.72,2.3-1.98,2.3-4.572V30.24h4.14ZM67,39.672c3.312,0,4.428-1.332,4.9-5.94a11.834,11.834,0,0,1-3.78-1.584c-.144,3.132-.4,3.672-1.548,3.672H62.64c-1.368,0-1.584-.144-1.584-1.44V32.256a66.055,66.055,0,0,0,9.216-3.384l-2.736-3.1a56.088,56.088,0,0,1-6.48,2.988V23.616H56.808V34.452c0,3.96,1.008,5.22,5.22,5.22ZM44.352,47.124V45h5.4v2.124Zm5.4-7.164v1.872h-5.4V39.96Zm4.212-3.528H40.392V57.1h3.96v-6.8h5.4V52.7c0,.432-.144.54-.576.54a29.908,29.908,0,0,1-3.168,0,15.841,15.841,0,0,1,1.368,3.78c2.16,0,3.816-.036,5.04-.72,1.188-.612,1.548-1.656,1.548-3.528Zm-5.4-9.18c.576.936,1.152,1.944,1.692,2.952l-4.788.216c.9-1.908,1.872-4.068,2.7-6.156l-4.464-.9A56.871,56.871,0,0,1,41.076,30.6c-1.008.036-1.944.072-2.808.072l.36,4.068c3.672-.216,8.568-.5,13.32-.828A13.3,13.3,0,0,1,52.6,35.82l3.924-1.584a35.209,35.209,0,0,0-4.356-8.352ZM62.676,53.136c-1.4,0-1.656-.18-1.656-1.44v-2.88A54.578,54.578,0,0,0,70.632,45l-2.844-3.132a40.774,40.774,0,0,1-6.768,3.384v-4.86H56.808V51.7c0,3.96,1.044,5.184,5.256,5.184h5.112c3.456,0,4.536-1.4,5-6.48a13.328,13.328,0,0,1-3.744-1.584c-.18,3.636-.432,4.32-1.656,4.32Z" transform="translate(826.5 5547)"/>
  </g>
</svg>
