<svg xmlns="http://www.w3.org/2000/svg" width="392.607" height="35.04" viewBox="0 0 392.607 35.04">
  <g id="GLAPentertainment" transform="translate(-2241.262 -4608.764)">
    <path id="パス_35" data-name="パス 35" d="M2259.808,4625.034h15.337v.41c0,2.239-.3,9.255-4.926,13.807-3.47,3.471-7.724,4.4-11.866,4.4s-8.471-.859-12.128-4.516a17.733,17.733,0,0,1-4.963-12.836,17.219,17.219,0,0,1,4.888-12.427c2.5-2.537,6.717-5.112,13.173-5.112a16.382,16.382,0,0,1,7.724,1.754,15.706,15.706,0,0,1,6.27,6.12l-5.673,3.06a9.313,9.313,0,0,0-3.918-3.956,10.93,10.93,0,0,0-4.7-1.045,11.263,11.263,0,0,0-7.724,2.948,12.433,12.433,0,0,0-3.359,8.807,11.4,11.4,0,0,0,3.321,8.471,10.234,10.234,0,0,0,7.426,2.836,11.091,11.091,0,0,0,6.568-2.015,8.7,8.7,0,0,0,3.135-5.113h-8.62l.037-5.6Z" fill="#fff"/>
    <path id="パス_36" data-name="パス 36" d="M2291.116,4608.913l-.074,29.182,15.15-.075v5.6l-21.643.075.074-34.779Z" fill="#fff"/>
    <path id="パス_37" data-name="パス 37" d="M2336.867,4636.3h-14.031l-3.06,7.314h-7.352l14.964-34.779h5.3l14.553,34.779h-7.314l-3.059-7.314Zm-1.978-5.522-4.963-12.5-4.926,12.5Z" fill="#fff"/>
    <path id="パス_38" data-name="パス 38" d="M2364.369,4608.764c3.769,0,6.344.41,8.806,2.537a11.36,11.36,0,0,1,.635,15.524c-1.866,1.866-4.627,2.948-8.471,2.948h-4.217v13.807h-6.493v-34.816Zm-3.209,15.412h2.649a6.687,6.687,0,0,0,4.254-1.045,4.992,4.992,0,0,0,1.791-3.919,4.553,4.553,0,0,0-1.866-3.806,8,8,0,0,0-4.627-1.045h-2.239l.038,9.815Z" fill="#fff"/>
    <path id="パス_39" data-name="パス 39" d="M2397.73,4639.289a7.176,7.176,0,0,1-7.128,4.515,7.583,7.583,0,0,1-5.56-2.052,7.323,7.323,0,0,1-2.276-5.672,7.767,7.767,0,0,1,2.2-5.71,7.448,7.448,0,0,1,5.449-2.052,6.89,6.89,0,0,1,5.672,2.388,8.719,8.719,0,0,1,1.754,5.709v.336h-10.859a4.237,4.237,0,0,0,.709,2.463,3.49,3.49,0,0,0,2.91,1.381,3.758,3.758,0,0,0,3.4-1.9l3.732.6Zm-3.769-5.15a3.5,3.5,0,0,0-6.9,0Z" fill="#fff"/>
    <path id="パス_40" data-name="パス 40" d="M2404.745,4629.288h4.1v1.866a5.348,5.348,0,0,1,4.478-2.351,5.508,5.508,0,0,1,4.291,1.791,6.128,6.128,0,0,1,1.157,4.1v9.1h-4.1v-7.911a4.038,4.038,0,0,0-.783-2.836,2.6,2.6,0,0,0-1.9-.746,2.766,2.766,0,0,0-2.5,1.268,5.011,5.011,0,0,0-.634,2.8v7.426h-4.1v-14.516Z" fill="#fff"/>
    <path id="パス_41" data-name="パス 41" d="M2432.471,4632.758V4643.8h-4.1v-11.046H2425.6v-3.47h2.8v-4.963h4.1v4.963h2.8v3.508h-2.836Z" fill="#fff"/>
    <path id="パス_42" data-name="パス 42" d="M2455.384,4639.289a7.176,7.176,0,0,1-7.128,4.515,7.582,7.582,0,0,1-5.56-2.052,7.323,7.323,0,0,1-2.276-5.672,7.917,7.917,0,0,1,2.2-5.71,7.475,7.475,0,0,1,5.486-2.052,6.889,6.889,0,0,1,5.672,2.388,8.719,8.719,0,0,1,1.754,5.709v.336h-10.9a4.237,4.237,0,0,0,.709,2.463,3.49,3.49,0,0,0,2.91,1.381,3.758,3.758,0,0,0,3.4-1.9l3.732.6Zm-3.769-5.15a3.5,3.5,0,0,0-6.9,0Z" fill="#fff"/>
    <path id="パス_43" data-name="パス 43" d="M2462.063,4629.288h4.1v2.164a5.154,5.154,0,0,1,1.791-2.015,4.425,4.425,0,0,1,2.426-.634,5.6,5.6,0,0,1,1.754.336l-.523,3.806a3.025,3.025,0,0,0-1.9-.522,3.455,3.455,0,0,0-2.724,1.156,4.9,4.9,0,0,0-.821,3.21v6.978h-4.1v-14.479Z" fill="#fff"/>
    <path id="パス_44" data-name="パス 44" d="M2505.462,4628.8h4.1v14.516h-4.1v-1.866a5.215,5.215,0,0,1-4.478,2.351c-4.478,0-7.426-3.508-7.426-7.762s2.911-7.724,7.2-7.724a5.219,5.219,0,0,1,4.664,2.351V4628.8Zm-7.649,7.239a4.031,4.031,0,1,0,4.03-4.1A3.962,3.962,0,0,0,2497.813,4636.042Z" fill="#fff"/>
    <path id="パス_45" data-name="パス 45" d="M2520.2,4624.288a2.462,2.462,0,1,1-2.462,2.462A2.484,2.484,0,0,1,2520.2,4624.288Zm2.053,7.724V4643.8h-4.1v-11.792Z" fill="#fff"/>
    <path id="パス_46" data-name="パス 46" d="M2530.987,4629.288h4.1v1.866a5.347,5.347,0,0,1,4.478-2.351,5.509,5.509,0,0,1,4.291,1.791,6.129,6.129,0,0,1,1.157,4.1v9.1h-4.1v-7.911a4.034,4.034,0,0,0-.784-2.836,2.594,2.594,0,0,0-1.9-.746,2.765,2.765,0,0,0-2.5,1.268,5.009,5.009,0,0,0-.634,2.8v7.426h-4.1v-14.516Z" fill="#fff"/>
    <path id="パス_47" data-name="パス 47" d="M2552.033,4629.288h4.1v1.642a5.385,5.385,0,0,1,4.329-2.127,4.775,4.775,0,0,1,4.59,2.649,5.343,5.343,0,0,1,4.664-2.649,4.575,4.575,0,0,1,3.919,1.791,6.113,6.113,0,0,1,1.007,4.1v9.1h-4.1v-7.911a4.38,4.38,0,0,0-.671-2.836,2.045,2.045,0,0,0-1.68-.746,2.429,2.429,0,0,0-2.239,1.268,5.619,5.619,0,0,0-.559,2.8v7.426h-4.1v-7.911a4.37,4.37,0,0,0-.672-2.836,2.043,2.043,0,0,0-1.679-.746,2.427,2.427,0,0,0-2.239,1.268,5.621,5.621,0,0,0-.56,2.8v7.426h-4.1v-14.516Z" fill="#fff"/>
    <path id="パス_48" data-name="パス 48" d="M2596.515,4639.289a7.175,7.175,0,0,1-7.128,4.515,7.583,7.583,0,0,1-5.56-2.052,7.323,7.323,0,0,1-2.276-5.672,7.918,7.918,0,0,1,2.2-5.71,7.476,7.476,0,0,1,5.486-2.052,6.888,6.888,0,0,1,5.672,2.388,8.719,8.719,0,0,1,1.754,5.709v.336H2585.8a4.244,4.244,0,0,0,.709,2.463,3.492,3.492,0,0,0,2.911,1.381,3.757,3.757,0,0,0,3.4-1.9l3.695.6Zm-3.769-5.15a3.5,3.5,0,0,0-6.9,0Z" fill="#fff"/>
    <path id="パス_49" data-name="パス 49" d="M2603.306,4629.288h4.1v1.866a5.349,5.349,0,0,1,4.478-2.351,5.511,5.511,0,0,1,4.292,1.791,6.132,6.132,0,0,1,1.156,4.1v9.1h-4.1v-7.911a4.039,4.039,0,0,0-.784-2.836,2.6,2.6,0,0,0-1.9-.746,2.765,2.765,0,0,0-2.5,1.268,5,5,0,0,0-.635,2.8v7.426h-4.1v-14.516Z" fill="#fff"/>
    <path id="パス_50" data-name="パス 50" d="M2485.647,4632.758V4643.8h-4.1v-11.046h-2.8v-3.47h2.8v-4.963h4.1v4.963h2.8v3.508h-2.8Z" fill="#fff"/>
    <path id="パス_51" data-name="パス 51" d="M2631.032,4632.758V4643.8h-4.1v-11.046h-2.8v-3.47h2.8v-4.963h4.1v4.963h2.837v3.508h-2.837Z" fill="#fff"/>
  </g>
</svg>
