<?xml version="1.0" encoding="utf-8"?>
<!-- Generator: Adobe Illustrator 27.8.1, SVG Export Plug-In . SVG Version: 6.00 Build 0)  -->
<!DOCTYPE svg PUBLIC "-//W3C//DTD SVG 1.1//EN" "http://www.w3.org/Graphics/SVG/1.1/DTD/svg11.dtd" [
	<!ENTITY ns_extend "http://ns.adobe.com/Extensibility/1.0/">
	<!ENTITY ns_ai "http://ns.adobe.com/AdobeIllustrator/10.0/">
	<!ENTITY ns_graphs "http://ns.adobe.com/Graphs/1.0/">
	<!ENTITY ns_vars "http://ns.adobe.com/Variables/1.0/">
	<!ENTITY ns_imrep "http://ns.adobe.com/ImageReplacement/1.0/">
	<!ENTITY ns_sfw "http://ns.adobe.com/SaveForWeb/1.0/">
	<!ENTITY ns_custom "http://ns.adobe.com/GenericCustomNamespace/1.0/">
	<!ENTITY ns_adobe_xpath "http://ns.adobe.com/XPath/1.0/">
]>
<svg version="1.1" id="Layer_1" xmlns:x="&ns_extend;" xmlns:i="&ns_ai;" xmlns:graph="&ns_graphs;"
	 xmlns="http://www.w3.org/2000/svg" xmlns:xlink="http://www.w3.org/1999/xlink" x="0px" y="0px" viewBox="0 0 1024 1024"
	 style="enable-background:new 0 0 1024 1024;" xml:space="preserve">
<style type="text/css">
	.st0{fill:#1877F2;}
	.st1{fill:#FFFFFF;}
</style>
<metadata>
	<sfw  xmlns="&ns_sfw;">
		<slices></slices>
		<sliceSourceBounds  bottomLeftOrigin="true" height="1024" width="1024" x="0" y="-1024"></sliceSourceBounds>
	</sfw>
</metadata>
<g>
	<path class="st0" d="M1024,512C1024,229.2,794.8,0,512,0S0,229.2,0,512c0,255.6,187.2,467.4,432,505.8V660H302V512h130V399.2
		C432,270.9,508.4,200,625.4,200c56,0,114.6,10,114.6,10v126h-64.6c-63.6,0-83.4,39.5-83.4,80v96h142l-22.7,148H592v357.8
		C836.8,979.4,1024,767.6,1024,512z"/>
	<path class="st1" d="M711.3,660L734,512H592v-96c0-40.5,19.8-80,83.4-80H740V210c0,0-58.6-10-114.6-10
		c-117,0-193.4,70.9-193.4,199.2V512H302v148h130v357.8c26.1,4.1,52.8,6.2,80,6.2s53.9-2.1,80-6.2V660H711.3z"/>
</g>
</svg>
