<svg xmlns="http://www.w3.org/2000/svg" width="405.387" height="36.142" viewBox="0 0 405.387 36.142">
  <g id="GLAPentertainment" transform="translate(-982.264 -40.166)">
    <path id="パス_447" data-name="パス 447" d="M1001.414,56.948h15.836v.423c0,2.31-.308,9.546-5.086,14.242-3.583,3.579-7.976,4.541-12.253,4.541s-8.746-.885-12.522-4.657a18.283,18.283,0,0,1-5.125-13.241,17.748,17.748,0,0,1,5.048-12.817c2.581-2.617,6.935-5.273,13.6-5.273a16.936,16.936,0,0,1,7.976,1.809,16.219,16.219,0,0,1,6.473,6.312l-5.856,3.157a9.614,9.614,0,0,0-4.046-4.08,11.283,11.283,0,0,0-4.855-1.078,11.635,11.635,0,0,0-7.976,3.041,12.813,12.813,0,0,0-3.468,9.083,11.749,11.749,0,0,0,3.429,8.738,10.573,10.573,0,0,0,7.668,2.925,11.461,11.461,0,0,0,6.782-2.079,8.961,8.961,0,0,0,3.236-5.273h-8.9l.038-5.773Z" fill="#fff"/>
    <path id="パス_448" data-name="パス 448" d="M1033.742,40.32l-.077,30.1,15.643-.077v5.774l-22.348.077.077-35.873Z" fill="#fff"/>
    <path id="パス_449" data-name="パス 449" d="M1080.981,68.572h-14.488l-3.159,7.544h-7.591l15.451-35.873h5.472l15.027,35.873h-7.552l-3.16-7.544Zm-2.042-5.7-5.125-12.894-5.086,12.894Z" fill="#fff"/>
    <path id="パス_450" data-name="パス 450" d="M1109.379,40.166c3.891,0,6.55.423,9.093,2.617a11.02,11.02,0,0,1,3.506,8.314,11,11,0,0,1-2.851,7.7c-1.927,1.925-4.778,3.041-8.747,3.041h-4.354V76.077h-6.7V40.166Zm-3.314,15.9h2.736a6.914,6.914,0,0,0,4.392-1.077,5.148,5.148,0,0,0,1.85-4.042,4.7,4.7,0,0,0-1.927-3.926,8.268,8.268,0,0,0-4.778-1.077h-2.312l.039,10.122Z" fill="#fff"/>
    <path id="パス_451" data-name="パス 451" d="M1143.825,71.651a7.406,7.406,0,0,1-7.359,4.657,7.828,7.828,0,0,1-5.741-2.117,7.548,7.548,0,0,1-2.351-5.85,8,8,0,0,1,2.274-5.889,7.692,7.692,0,0,1,5.625-2.117,7.116,7.116,0,0,1,5.857,2.463,8.986,8.986,0,0,1,1.811,5.889v.347h-11.213a4.371,4.371,0,0,0,.733,2.54,3.6,3.6,0,0,0,3,1.424,3.88,3.88,0,0,0,3.506-1.963l3.853.616Zm-3.891-5.312a3.617,3.617,0,0,0-7.128,0Z" fill="#fff"/>
    <path id="パス_452" data-name="パス 452" d="M1151.069,61.336h4.239V63.26a5.524,5.524,0,0,1,4.623-2.425,5.694,5.694,0,0,1,4.432,1.848,6.32,6.32,0,0,1,1.194,4.234v9.391h-4.238v-8.16a4.162,4.162,0,0,0-.81-2.925,2.685,2.685,0,0,0-1.965-.77,2.854,2.854,0,0,0-2.581,1.309,5.158,5.158,0,0,0-.655,2.887v7.659h-4.239V61.336Z" fill="#fff"/>
    <path id="パス_453" data-name="パス 453" d="M1179.7,64.915V76.308h-4.238V64.915h-2.852V61.336h2.89v-5.12h4.239v5.12h2.889v3.618H1179.7Z" fill="#fff"/>
    <path id="パス_454" data-name="パス 454" d="M1203.356,71.651A7.407,7.407,0,0,1,1196,76.308a7.826,7.826,0,0,1-5.741-2.117,7.548,7.548,0,0,1-2.351-5.85,8.161,8.161,0,0,1,2.273-5.889,7.726,7.726,0,0,1,5.665-2.117A7.114,7.114,0,0,1,1201.7,62.8a8.986,8.986,0,0,1,1.811,5.889v.347h-11.251a4.371,4.371,0,0,0,.732,2.54A3.607,3.607,0,0,0,1196,73a3.881,3.881,0,0,0,3.506-1.963l3.853.616Zm-3.891-5.312a3.617,3.617,0,0,0-7.129,0Z" fill="#fff"/>
    <path id="パス_455" data-name="パス 455" d="M1210.253,61.336h4.239v2.232a5.3,5.3,0,0,1,1.849-2.078,4.562,4.562,0,0,1,2.505-.655,5.82,5.82,0,0,1,1.811.347l-.54,3.926a3.124,3.124,0,0,0-1.965-.539,3.57,3.57,0,0,0-2.813,1.193,5.049,5.049,0,0,0-.847,3.31v7.2h-4.239V61.336Z" fill="#fff"/>
    <path id="パス_456" data-name="パス 456" d="M1255.065,60.835h4.238V75.808h-4.238V73.883a5.387,5.387,0,0,1-4.624,2.425c-4.623,0-7.667-3.618-7.667-8.006s3.005-7.967,7.436-7.967a5.392,5.392,0,0,1,4.817,2.425V60.835Zm-7.9,7.467a4.162,4.162,0,1,0,4.162-4.234A4.089,4.089,0,0,0,1247.166,68.3Z" fill="#fff"/>
    <path id="パス_457" data-name="パス 457" d="M1270.285,56.178a2.541,2.541,0,1,1-2.543,2.54A2.564,2.564,0,0,1,1270.285,56.178Zm2.119,7.967V76.308h-4.238V64.145Z" fill="#fff"/>
    <path id="パス_458" data-name="パス 458" d="M1281.42,61.336h4.239V63.26a5.525,5.525,0,0,1,4.624-2.425,5.694,5.694,0,0,1,4.431,1.848,6.32,6.32,0,0,1,1.194,4.234v9.391h-4.238v-8.16a4.166,4.166,0,0,0-.809-2.925,2.686,2.686,0,0,0-1.966-.77,2.854,2.854,0,0,0-2.581,1.309,5.158,5.158,0,0,0-.655,2.887v7.659h-4.239V61.336Z" fill="#fff"/>
    <path id="パス_459" data-name="パス 459" d="M1303.152,61.336h4.238v1.693a5.568,5.568,0,0,1,4.47-2.194,4.929,4.929,0,0,1,4.739,2.733,5.522,5.522,0,0,1,4.817-2.733,4.723,4.723,0,0,1,4.046,1.848,6.3,6.3,0,0,1,1.04,4.234v9.391h-4.239v-8.16a4.513,4.513,0,0,0-.693-2.925,2.113,2.113,0,0,0-1.734-.77,2.508,2.508,0,0,0-2.312,1.309,5.788,5.788,0,0,0-.578,2.887v7.659h-4.238v-8.16a4.512,4.512,0,0,0-.694-2.925,2.113,2.113,0,0,0-1.734-.77,2.508,2.508,0,0,0-2.312,1.309,5.788,5.788,0,0,0-.578,2.887v7.659h-4.238V61.336Z" fill="#fff"/>
    <path id="パス_460" data-name="パス 460" d="M1349.081,71.651a7.406,7.406,0,0,1-7.359,4.657,7.826,7.826,0,0,1-5.741-2.117,7.548,7.548,0,0,1-2.351-5.85,8.157,8.157,0,0,1,2.274-5.889,7.722,7.722,0,0,1,5.664-2.117,7.114,7.114,0,0,1,5.856,2.463,8.986,8.986,0,0,1,1.811,5.889v.347h-11.212a4.371,4.371,0,0,0,.732,2.54A3.605,3.605,0,0,0,1341.76,73a3.881,3.881,0,0,0,3.507-1.963l3.814.616Zm-3.891-5.312a3.617,3.617,0,0,0-7.129,0Z" fill="#fff"/>
    <path id="パス_461" data-name="パス 461" d="M1356.094,61.336h4.238V63.26a5.526,5.526,0,0,1,4.624-2.425,5.693,5.693,0,0,1,4.431,1.848,6.315,6.315,0,0,1,1.2,4.234v9.391h-4.239v-8.16a4.161,4.161,0,0,0-.809-2.925,2.685,2.685,0,0,0-1.965-.77,2.856,2.856,0,0,0-2.582,1.309,5.166,5.166,0,0,0-.655,2.887v7.659h-4.238V61.336Z" fill="#fff"/>
    <path id="パス_462" data-name="パス 462" d="M1234.6,64.915V76.308h-4.238V64.915h-2.89V61.336h2.89v-5.12h4.238v5.12h2.89v3.618h-2.89Z" fill="#fff"/>
    <path id="パス_463" data-name="パス 463" d="M1384.723,64.915V76.308h-4.239V64.915h-2.89V61.336h2.89v-5.12h4.239v5.12h2.928v3.618h-2.928Z" fill="#fff"/>
  </g>
</svg>
