<svg xmlns="http://www.w3.org/2000/svg" width="392.607" height="35.04" viewBox="0 0 392.607 35.04">
  <g id="GLAPentertainment" transform="translate(-57.18 -47.91)">
    <path id="パス_53" data-name="パス 53" d="M75.726,64.18H91.063v.411c0,2.239-.3,9.254-4.925,13.807-3.471,3.47-7.725,4.4-11.867,4.4s-8.471-.858-12.128-4.515A17.738,17.738,0,0,1,57.18,65.449a17.221,17.221,0,0,1,4.888-12.427c2.5-2.537,6.717-5.112,13.173-5.112a16.4,16.4,0,0,1,7.725,1.754,15.709,15.709,0,0,1,6.269,6.12l-5.672,3.06a9.327,9.327,0,0,0-3.918-3.956,10.932,10.932,0,0,0-4.7-1.045,11.266,11.266,0,0,0-7.725,2.948A12.432,12.432,0,0,0,63.86,65.6a11.4,11.4,0,0,0,3.321,8.471A10.231,10.231,0,0,0,74.607,76.9a11.088,11.088,0,0,0,6.567-2.015,8.686,8.686,0,0,0,3.135-5.112h-8.62l.037-5.6Z" fill="#22231f"/>
    <path id="パス_54" data-name="パス 54" d="M107.035,48.059l-.075,29.182,15.151-.075v5.6l-21.644.074.075-34.779Z" fill="#22231f"/>
    <path id="パス_55" data-name="パス 55" d="M152.785,75.45H138.754l-3.06,7.314h-7.351l14.963-34.779h5.3l14.554,34.779h-7.314l-3.06-7.314Zm-1.978-5.523-4.963-12.5-4.926,12.5Z" fill="#22231f"/>
    <path id="パス_56" data-name="パス 56" d="M180.287,47.91c3.769,0,6.344.411,8.807,2.538a11.357,11.357,0,0,1,.634,15.523c-1.866,1.866-4.627,2.948-8.471,2.948h-4.216V82.726h-6.493V47.91Zm-3.209,15.412h2.649a6.687,6.687,0,0,0,4.254-1.045,4.99,4.99,0,0,0,1.792-3.918,4.555,4.555,0,0,0-1.866-3.807,8,8,0,0,0-4.627-1.044h-2.239l.037,9.814Z" fill="#22231f"/>
    <path id="パス_57" data-name="パス 57" d="M213.648,78.435a7.175,7.175,0,0,1-7.127,4.515A7.582,7.582,0,0,1,200.96,80.9a7.326,7.326,0,0,1-2.276-5.672,7.764,7.764,0,0,1,2.2-5.71,7.445,7.445,0,0,1,5.448-2.052,6.889,6.889,0,0,1,5.672,2.388,8.721,8.721,0,0,1,1.754,5.71V75.9H202.9a4.241,4.241,0,0,0,.709,2.463,3.492,3.492,0,0,0,2.911,1.381,3.755,3.755,0,0,0,3.4-1.9l3.732.6Zm-3.769-5.15a3.5,3.5,0,0,0-6.9,0Z" fill="#22231f"/>
    <path id="パス_58" data-name="パス 58" d="M220.664,68.434h4.1V70.3a5.351,5.351,0,0,1,4.478-2.351,5.513,5.513,0,0,1,4.292,1.791,6.136,6.136,0,0,1,1.157,4.105v9.1H230.59V75.039a4.04,4.04,0,0,0-.784-2.836,2.6,2.6,0,0,0-1.9-.746,2.765,2.765,0,0,0-2.5,1.268,5.012,5.012,0,0,0-.635,2.8V82.95h-4.1V68.434Z" fill="#22231f"/>
    <path id="パス_59" data-name="パス 59" d="M248.39,71.9V82.95h-4.1V71.9h-2.762V68.434h2.8V63.471h4.1v4.963h2.8v3.508H248.39Z" fill="#22231f"/>
    <path id="パス_60" data-name="パス 60" d="M271.3,78.435a7.175,7.175,0,0,1-7.127,4.515,7.582,7.582,0,0,1-5.561-2.052,7.326,7.326,0,0,1-2.276-5.672,7.914,7.914,0,0,1,2.2-5.71,7.473,7.473,0,0,1,5.485-2.052,6.889,6.889,0,0,1,5.672,2.388,8.721,8.721,0,0,1,1.754,5.71V75.9h-10.9a4.241,4.241,0,0,0,.709,2.463,3.492,3.492,0,0,0,2.911,1.381,3.755,3.755,0,0,0,3.4-1.9l3.732.6Zm-3.769-5.15a3.5,3.5,0,0,0-6.9,0Z" fill="#22231f"/>
    <path id="パス_61" data-name="パス 61" d="M277.982,68.434h4.105V70.6a5.138,5.138,0,0,1,1.791-2.015,4.42,4.42,0,0,1,2.425-.634,5.64,5.64,0,0,1,1.754.336l-.522,3.806a3.028,3.028,0,0,0-1.9-.522,3.454,3.454,0,0,0-2.725,1.157,4.9,4.9,0,0,0-.82,3.209v6.978h-4.105V68.434Z" fill="#22231f"/>
    <path id="パス_62" data-name="パス 62" d="M321.381,67.949h4.1V82.465h-4.1V80.6A5.216,5.216,0,0,1,316.9,82.95c-4.478,0-7.426-3.508-7.426-7.762s2.911-7.724,7.2-7.724a5.217,5.217,0,0,1,4.664,2.351V67.949Zm-7.65,7.239a4.031,4.031,0,1,0,4.03-4.1A3.962,3.962,0,0,0,313.731,75.188Z" fill="#22231f"/>
    <path id="パス_63" data-name="パス 63" d="M336.121,63.434a2.463,2.463,0,1,1-2.463,2.463A2.485,2.485,0,0,1,336.121,63.434Zm2.052,7.724V82.95h-4.105V71.158Z" fill="#22231f"/>
    <path id="パス_64" data-name="パス 64" d="M346.9,68.434h4.105V70.3a5.349,5.349,0,0,1,4.478-2.351,5.51,5.51,0,0,1,4.291,1.791,6.13,6.13,0,0,1,1.157,4.105v9.1h-4.105V75.039a4.039,4.039,0,0,0-.783-2.836,2.6,2.6,0,0,0-1.9-.746,2.767,2.767,0,0,0-2.5,1.268,5.01,5.01,0,0,0-.634,2.8V82.95H346.9V68.434Z" fill="#22231f"/>
    <path id="パス_65" data-name="パス 65" d="M367.952,68.434h4.105v1.642a5.388,5.388,0,0,1,4.328-2.127,4.776,4.776,0,0,1,4.59,2.649,5.347,5.347,0,0,1,4.665-2.649,4.573,4.573,0,0,1,3.918,1.791,6.116,6.116,0,0,1,1.008,4.105v9.1h-4.105V75.039a4.373,4.373,0,0,0-.672-2.836,2.044,2.044,0,0,0-1.679-.746,2.427,2.427,0,0,0-2.239,1.268,5.61,5.61,0,0,0-.56,2.8V82.95h-4.105V75.039a4.382,4.382,0,0,0-.671-2.836,2.046,2.046,0,0,0-1.68-.746,2.429,2.429,0,0,0-2.239,1.268,5.62,5.62,0,0,0-.559,2.8V82.95h-4.105V68.434Z" fill="#22231f"/>
    <path id="パス_66" data-name="パス 66" d="M412.433,78.435a7.175,7.175,0,0,1-7.127,4.515,7.582,7.582,0,0,1-5.561-2.052,7.326,7.326,0,0,1-2.276-5.672,7.914,7.914,0,0,1,2.2-5.71,7.473,7.473,0,0,1,5.485-2.052,6.889,6.889,0,0,1,5.672,2.388,8.721,8.721,0,0,1,1.754,5.71V75.9H401.723a4.241,4.241,0,0,0,.709,2.463,3.493,3.493,0,0,0,2.911,1.381,3.758,3.758,0,0,0,3.4-1.9l3.694.6Zm-3.769-5.15a3.5,3.5,0,0,0-6.9,0Z" fill="#22231f"/>
    <path id="パス_67" data-name="パス 67" d="M419.225,68.434h4.1V70.3a5.351,5.351,0,0,1,4.478-2.351A5.513,5.513,0,0,1,432.1,69.74a6.136,6.136,0,0,1,1.157,4.105v9.1h-4.105V75.039a4.035,4.035,0,0,0-.784-2.836,2.6,2.6,0,0,0-1.9-.746,2.765,2.765,0,0,0-2.5,1.268,5.012,5.012,0,0,0-.635,2.8V82.95h-4.1V68.434Z" fill="#22231f"/>
    <path id="パス_68" data-name="パス 68" d="M301.566,71.9V82.95h-4.105V71.9h-2.8V68.434h2.8V63.471h4.105v4.963h2.8v3.508h-2.8Z" fill="#22231f"/>
    <path id="パス_69" data-name="パス 69" d="M446.951,71.9V82.95h-4.1V71.9h-2.8V68.434h2.8V63.471h4.1v4.963h2.836v3.508h-2.836Z" fill="#22231f"/>
  </g>
</svg>
