<svg xmlns="http://www.w3.org/2000/svg" xmlns:xlink="http://www.w3.org/1999/xlink" width="516.347" height="101.431" viewBox="0 0 516.347 101.431">
  <defs>
    <linearGradient id="linear-gradient" y1="0.5" x2="1" y2="0.5" gradientUnits="objectBoundingBox">
      <stop offset="0" stop-color="#d9be4b"/>
      <stop offset="1" stop-color="#d4933a"/>
    </linearGradient>
  </defs>
  <g id="グループ_407" data-name="グループ 407" transform="translate(-415.431 -2329.73)">
    <path id="パス_79" data-name="パス 79" d="M415.931,2362.986c0-11.118,5.559-19.608,17.081-25.268l3.841,7.884c-7.176,3.335-10.613,7.883-10.613,14.554a4.147,4.147,0,0,1,1.112-.1c5.054,0,9.2,3.437,9.2,8.9,0,5.963-3.841,9.8-9.2,9.8C419.872,2378.754,415.931,2372.993,415.931,2362.986Zm28.3,0c0-11.118,5.559-19.608,17.082-25.268l3.841,7.884c-7.177,3.335-10.613,7.883-10.613,14.554a4.144,4.144,0,0,1,1.112-.1c5.053,0,9.2,3.437,9.2,8.9,0,5.963-3.841,9.8-9.2,9.8C448.173,2378.754,444.231,2372.993,444.231,2362.986Zm87.838-21.63c0,.809-.1,1.82-.1,2.932a226.694,226.694,0,0,0,24.561-2.628l-.1,13.948a247.436,247.436,0,0,1-24.662,2.122c-.1,2.932-.1,5.762-.1,8.39,10.411-.506,18.5-1.415,26.279-2.325l-.1,14.352c-8.894.91-16.273,1.517-25.875,1.82.2,3.234.4,6.671.607,10.107a76.845,76.845,0,0,1,27.694,15.06l-8.793,13.645a77.175,77.175,0,0,0-18.093-13.139v2.021c0,9.5-7.681,15.97-21.023,15.97-17.082,0-25.875-6.772-25.875-17.991,0-10.815,9.7-18.5,25.774-18.5,1.718,0,3.335.1,4.952.2-.1-2.325-.2-4.75-.3-7.075h-4.952c-5.357,0-16.981-.505-23.349-1.314l-.2-14.353c6.267,1.213,19.1,1.921,23.753,1.921h4.548c0-2.729,0-5.559.1-8.288h-3.234a232.9,232.9,0,0,1-24.258-1.82l-.3-13.847a190.669,190.669,0,0,0,24.46,2.224h3.436v-3.437a38.7,38.7,0,0,0-.707-7.378h16.576C532.474,2336.1,532.17,2338.931,532.069,2341.356Zm-22.135,68.428c5.155,0,7.985-1.415,7.985-6.57,0-.708,0-1.718-.1-2.931a45.986,45.986,0,0,0-7.581-.607c-5.66,0-8.894,2.224-8.894,5.054C501.343,2408.065,504.678,2409.784,509.934,2409.784Zm88.145-71.056c5.458,0,25.672-.3,31.636-.808a53.3,53.3,0,0,0,8.995-1.213l7.581,10.815c-2.628,1.617-5.256,3.133-7.783,4.953-5.66,3.84-14.554,11.118-20.114,15.363a34.609,34.609,0,0,1,7.076-.607c17.384,0,31.029,11.119,31.029,26.381,0,15.767-11.421,29.615-37.6,29.615-14.252,0-26.077-6.671-26.077-17.79,0-8.894,8.086-17.182,19.608-17.182,12.331,0,20.215,7.176,21.933,16.778a13.2,13.2,0,0,0,5.964-11.623c0-8.693-8.9-14.151-20.013-14.151-14.757,0-25.37,8.9-35.073,20.72l-11.118-11.522c6.469-5.054,18.294-15.06,24.258-20.013,5.66-4.649,15.06-11.926,19.911-16.273-5.053.1-15.464.506-20.922.91-3.032.2-6.671.5-9.1.91l-.505-15.869A85.732,85.732,0,0,0,598.079,2338.728Zm17.688,70.55c1.617,0,3.133-.1,4.548-.2-.505-5.559-3.538-9.2-7.783-9.2-3.335,0-5.256,2.022-5.256,4.043C607.276,2407.055,610.612,2409.278,615.767,2409.278Zm94.915-61.958c4.751-.91,9-1.921,12.432-2.931l.4,14.049a137.736,137.736,0,0,1-17.182,3.436c-4.751,14.252-13.241,31.94-21.428,43.563l-14.757-7.479c7.884-9.905,15.566-24.056,20.013-34.567-1.112.1-2.123.1-3.234.1-4.245,0-8.39-.1-13.039-.405l-1.112-14.15c4.65.5,10.714.707,14.05.707q3.941,0,7.883-.3a80.491,80.491,0,0,0,2.527-16.475l16.779,1.617C713.31,2337.617,712.1,2342.266,710.682,2347.32Zm26.987,32.95c.1,2.426.3,6.368.505,10.613a65.818,65.818,0,0,1,20.923,13.139l-8.086,13.14a108.094,108.094,0,0,0-12.23-10.31c-.3,9.7-5.559,16.981-20.518,16.981-13.342,0-23.753-6.267-23.753-17.991,0-10.108,7.985-18.8,23.55-18.8a46.315,46.315,0,0,1,5.357.3c-.4-7.176-.808-15.565-1.111-21.225h15.363C737.366,2370.466,737.568,2375.317,737.669,2380.27Zm-21.63,29.514c6.064,0,7.884-3.538,7.884-9.2v-.5a37.635,37.635,0,0,0-6.873-.708c-4.953,0-8.086,2.021-8.086,4.953C708.964,2407.56,711.794,2409.784,716.039,2409.784Zm12.432-51.447,7.884-12.129c7.277,3.133,20.316,10.107,25.774,13.847l-8.693,12.938C747.372,2368.242,735.546,2361.47,728.471,2358.337Zm66.614-9.6c-2.122,9.3-5.761,30.019-3.739,40.227,1.314-2.425,3.032-6.671,4.548-9.6l7.479,4.852a227.48,227.48,0,0,0-7.075,25.875,27.1,27.1,0,0,0-.707,5.155c0,1.111.1,3.032.2,4.649l-13.746,1.314c-2.325-6.064-6.065-20.72-6.065-33.152a275.264,275.264,0,0,1,3.033-40.43,81.461,81.461,0,0,0,.707-9.8l18.092,1.718C796.8,2342.367,795.591,2346.511,795.085,2348.735Zm50.942-3.538c-.1,2.123-.1,6.671-.1,11.725,5.862-.4,11.219-1.011,15.363-1.617l-.1,15.868c-4.043.3-9.4.708-15.262,1.011v4.548c0,24.157-2.83,37.8-22.237,50.74l-14.15-11.119c4.346-1.92,9.9-5.559,12.937-9.1,5.964-7.278,8.289-14.959,8.289-30.626v-3.942c-3.235.1-6.368.1-9.5.1-4.144,0-9.8-.3-15.162-.505v-15.464a102.522,102.522,0,0,0,14.757,1.01c3.134,0,6.368-.1,9.7-.2,0-5.053-.2-9.7-.4-12.432a54.959,54.959,0,0,0-1.213-7.479h17.486C846.229,2340.245,846.128,2342.873,846.027,2345.2Zm13.443,2.729-8.086,2.628c-1.415-4.447-3.033-10.208-5.054-14.453l7.985-2.426A101.891,101.891,0,0,1,859.47,2347.926Zm10.815-3.335-7.985,2.527a121.112,121.112,0,0,0-5.357-14.252l7.985-2.527A125.77,125.77,0,0,1,870.285,2344.591Zm8.8,24.662c7.176-3.437,10.714-7.884,10.714-14.656a4.151,4.151,0,0,1-1.112.1c-5.155,0-9.3-3.436-9.3-8.894,0-5.964,3.942-9.7,9.3-9.7,7.479,0,11.32,5.761,11.32,15.565,0,11.118-5.559,19.811-16.98,25.37Zm28.3,0c7.176-3.437,10.714-7.884,10.714-14.656a4.151,4.151,0,0,1-1.112.1c-5.155,0-9.3-3.436-9.3-8.894,0-5.964,3.942-9.7,9.3-9.7,7.479,0,11.32,5.761,11.32,15.565,0,11.118-5.559,19.811-16.98,25.37Z" fill="none" stroke="#707070" stroke-linecap="round" stroke-miterlimit="10" stroke-width="1"/>
    <path id="パス_80" data-name="パス 80" d="M419.4,2366.675c0-11.118,5.559-19.608,17.082-25.268l3.841,7.884c-7.177,3.335-10.613,7.884-10.613,14.554a4.144,4.144,0,0,1,1.112-.1c5.053,0,9.2,3.437,9.2,8.9,0,5.963-3.841,9.8-9.2,9.8C423.342,2382.443,419.4,2376.682,419.4,2366.675Zm28.3,0c0-11.118,5.559-19.608,17.082-25.268l3.841,7.884c-7.177,3.335-10.613,7.884-10.613,14.554a4.144,4.144,0,0,1,1.112-.1c5.053,0,9.2,3.437,9.2,8.9,0,5.963-3.84,9.8-9.2,9.8C451.643,2382.443,447.7,2376.682,447.7,2366.675Zm87.838-21.629c0,.808-.1,1.819-.1,2.931A226.753,226.753,0,0,0,560,2345.349l-.1,13.948c-6.064.91-14.959,1.718-24.662,2.123-.1,2.931-.1,5.761-.1,8.389,10.41-.506,18.5-1.415,26.279-2.325l-.1,14.353c-8.895.909-16.273,1.516-25.875,1.819.2,3.234.4,6.671.606,10.107a76.859,76.859,0,0,1,27.7,15.06l-8.794,13.645a77.14,77.14,0,0,0-18.092-13.139v2.021c0,9.5-7.682,15.97-21.023,15.97-17.082,0-25.875-6.772-25.875-17.991,0-10.815,9.7-18.5,25.774-18.5,1.718,0,3.335.1,4.952.2-.1-2.324-.2-4.75-.3-7.075h-4.953c-5.357,0-16.98-.5-23.348-1.314l-.2-14.352c6.267,1.213,19.1,1.92,23.752,1.92h4.549c0-2.729,0-5.559.1-8.288h-3.235a233.159,233.159,0,0,1-24.257-1.819l-.3-13.848a190.7,190.7,0,0,0,24.46,2.224h3.437v-3.436a38.621,38.621,0,0,0-.708-7.379h16.577C535.943,2339.79,535.64,2342.62,535.539,2345.046ZM513.4,2413.473c5.155,0,7.985-1.415,7.985-6.57,0-.707,0-1.718-.1-2.931a46.12,46.12,0,0,0-7.581-.607c-5.66,0-8.894,2.224-8.894,5.054C504.813,2411.755,508.148,2413.473,513.4,2413.473Zm88.144-71.055c5.458,0,25.673-.3,31.637-.809a53.3,53.3,0,0,0,8.995-1.213l7.581,10.815c-2.628,1.617-5.256,3.133-7.783,4.953-5.66,3.841-14.555,11.118-20.114,15.363a34.655,34.655,0,0,1,7.075-.606c17.385,0,31.03,11.118,31.03,26.38,0,15.768-11.421,29.615-37.6,29.615-14.252,0-26.078-6.671-26.078-17.789,0-8.9,8.086-17.183,19.609-17.183,12.331,0,20.215,7.176,21.933,16.778A13.2,13.2,0,0,0,643.8,2397.1c0-8.693-8.894-14.151-20.012-14.151-14.757,0-25.37,8.9-35.073,20.721l-11.118-11.523c6.469-5.054,18.294-15.06,24.258-20.013,5.66-4.649,15.06-11.926,19.911-16.272-5.054.1-15.464.5-20.922.909-3.032.2-6.671.506-9.1.91l-.505-15.869A85.474,85.474,0,0,0,601.548,2342.418Zm17.688,70.549c1.618,0,3.134-.1,4.549-.2-.506-5.559-3.538-9.2-7.783-9.2-3.335,0-5.256,2.021-5.256,4.043C610.746,2410.744,614.082,2412.967,619.236,2412.967Zm94.916-61.958c4.75-.91,8.995-1.92,12.432-2.931l.4,14.049a137.89,137.89,0,0,1-17.182,3.437c-4.751,14.251-13.241,31.939-21.428,43.563l-14.757-7.48c7.884-9.905,15.566-24.056,20.013-34.567-1.112.1-2.123.1-3.235.1-4.245,0-8.389-.1-13.038-.4l-1.112-14.151c4.649.506,10.714.708,14.049.708q3.942,0,7.884-.3a80.491,80.491,0,0,0,2.527-16.475l16.778,1.618C716.78,2341.306,715.567,2345.955,714.152,2351.009Zm26.987,32.95c.1,2.426.3,6.368.505,10.613a65.785,65.785,0,0,1,20.922,13.14l-8.086,13.139a107.815,107.815,0,0,0-12.23-10.309c-.3,9.7-5.559,16.98-20.518,16.98-13.341,0-23.752-6.266-23.752-17.991,0-10.107,7.985-18.8,23.55-18.8a46.315,46.315,0,0,1,5.357.3c-.4-7.176-.808-15.565-1.112-21.225h15.364C740.835,2374.155,741.038,2379.007,741.139,2383.959Zm-21.63,29.514c6.064,0,7.884-3.538,7.884-9.2v-.5a37.644,37.644,0,0,0-6.873-.708c-4.953,0-8.086,2.022-8.086,4.953C712.434,2411.249,715.264,2413.473,719.509,2413.473Zm12.432-51.447,7.884-12.129c7.277,3.133,20.316,10.108,25.774,13.847l-8.693,12.938C750.842,2371.931,739.016,2365.159,731.941,2362.026Zm66.614-9.6c-2.122,9.3-5.761,30.019-3.74,40.228,1.314-2.426,3.033-6.671,4.549-9.6l7.479,4.851a227.523,227.523,0,0,0-7.075,25.875,27.106,27.106,0,0,0-.707,5.155c0,1.112.1,3.032.2,4.649l-13.746,1.314c-2.325-6.064-6.065-20.72-6.065-33.152a275.305,275.305,0,0,1,3.032-40.43,81.265,81.265,0,0,0,.708-9.8l18.092,1.718C800.273,2346.056,799.061,2350.2,798.555,2352.424Zm50.942-3.538c-.1,2.123-.1,6.671-.1,11.725,5.862-.4,11.219-1.011,15.363-1.617l-.1,15.868c-4.043.3-9.4.708-15.262,1.011v4.549c0,24.156-2.831,37.8-22.237,50.739l-14.15-11.118c4.346-1.921,9.905-5.559,12.937-9.1,5.964-7.277,8.288-14.959,8.288-30.625v-3.942c-3.234.1-6.367.1-9.5.1-4.144,0-9.8-.3-15.161-.506V2360.51a102.522,102.522,0,0,0,14.757,1.011c3.133,0,6.368-.1,9.7-.2,0-5.054-.2-9.7-.4-12.433a55.135,55.135,0,0,0-1.213-7.479H849.9C849.7,2343.934,849.6,2346.562,849.5,2348.886Zm13.442,2.729-8.085,2.628c-1.416-4.447-3.033-10.208-5.054-14.453l7.985-2.426A101.8,101.8,0,0,1,862.939,2351.615Zm10.815-3.335-7.984,2.527a121.188,121.188,0,0,0-5.357-14.252l7.984-2.526A125.4,125.4,0,0,1,873.754,2348.28Zm8.8,24.662c7.176-3.436,10.714-7.884,10.714-14.656a4.151,4.151,0,0,1-1.112.1c-5.155,0-9.3-3.436-9.3-8.894,0-5.964,3.942-9.7,9.3-9.7,7.479,0,11.32,5.761,11.32,15.565,0,11.118-5.559,19.811-16.98,25.37Zm28.3,0c7.177-3.436,10.714-7.884,10.714-14.656a4.14,4.14,0,0,1-1.111.1c-5.155,0-9.3-3.436-9.3-8.894,0-5.964,3.942-9.7,9.3-9.7,7.479,0,11.32,5.761,11.32,15.565,0,11.118-5.559,19.811-16.981,25.37Z" fill="url(#linear-gradient)"/>
  </g>
</svg>
